<?xml version="1.0" standalone="no"?>
<!DOCTYPE svg PUBLIC "-//W3C//DTD SVG 1.1//EN" "http://www.w3.org/Graphics/SVG/1.1/DTD/svg11.dtd" >
<svg xmlns="http://www.w3.org/2000/svg" xmlns:xlink="http://www.w3.org/1999/xlink" version="1.1">
<metadata>
Created by FontForge 20170731 at Fri Jun  7 02:30:06 2019
 By Aleksey,,,
Copyright (c) 2018 by Martin Va'cha. All rights reserved.
</metadata>
<defs>
<font id="RecklessNeueTRIAL-RegularItalic" horiz-adv-x="521" >
  <font-face 
    font-family="Reckless Neue TRIAL"
    font-weight="400"
    font-style="italic"
    font-stretch="normal"
    units-per-em="1000"
    panose-1="0 0 5 0 0 0 0 0 0 0"
    ascent="800"
    descent="-200"
    x-height="501"
    cap-height="668"
    bbox="-94 -219.2 1067 810"
    underline-thickness="50"
    underline-position="-200"
    slope="-9"
    unicode-range="U+000D-00A0"
  />
<missing-glyph horiz-adv-x="1100" 
d="M59 309q0 201 141 347t341 154v-1000q-99 3 -188 44t-153.5 107.5t-102.5 157.5t-38 190zM577 806q62 -21 105.5 -165t43.5 -332t-43.5 -331t-105.5 -165v993zM901 309q0 -168 -69.5 -301.5t-178.5 -178.5q51 66 80.5 194.5t29.5 285.5t-29.5 286t-80.5 196
q109 -46 178.5 -180.5t69.5 -301.5zM1059 309q0 -151 -83.5 -276.5t-220.5 -182.5q84 73 133.5 195t49.5 264q0 141 -49.5 264t-133.5 196q137 -58 220.5 -183.5t83.5 -276.5z" />
    <glyph glyph-name=".notdef" horiz-adv-x="1100" 
d="M59 309q0 201 141 347t341 154v-1000q-99 3 -188 44t-153.5 107.5t-102.5 157.5t-38 190zM577 806q62 -21 105.5 -165t43.5 -332t-43.5 -331t-105.5 -165v993zM901 309q0 -168 -69.5 -301.5t-178.5 -178.5q51 66 80.5 194.5t29.5 285.5t-29.5 286t-80.5 196
q109 -46 178.5 -180.5t69.5 -301.5zM1059 309q0 -151 -83.5 -276.5t-220.5 -182.5q84 73 133.5 195t49.5 264q0 141 -49.5 264t-133.5 196q137 -58 220.5 -183.5t83.5 -276.5z" />
    <glyph glyph-name=".null" horiz-adv-x="0" 
 />
    <glyph glyph-name="nonmarkingreturn" horiz-adv-x="333" 
 />
    <glyph glyph-name="CR" unicode="&#xd;" horiz-adv-x="600" 
 />
    <glyph glyph-name="space" unicode=" " horiz-adv-x="234" 
 />
    <glyph glyph-name="comma" unicode="," horiz-adv-x="238" 
d="M10 -116l1 14q38 8 66.5 35t32.5 68q-15 -13 -34 -13q-23 0 -40 16.5t-17 40.5q0 28 19.5 46.5t48.5 18.5q28 0 46.5 -20t17.5 -55q-1 -59 -40.5 -102.5t-100.5 -48.5z" />
    <glyph glyph-name="hyphen" unicode="-" horiz-adv-x="305" 
d="M30 265l6 42h250l-6 -42h-250z" />
    <glyph glyph-name="period" unicode="." horiz-adv-x="223" 
d="M75 -12q-24 0 -40 16.5t-16 40.5q0 27 19.5 46t46.5 19q25 0 40.5 -16.5t15.5 -39.5q0 -28 -19.5 -47t-46.5 -19z" />
    <glyph glyph-name="zero" unicode="0" horiz-adv-x="621" 
d="M266 -15q-105 0 -157.5 74t-52.5 201q0 181 93.5 302t232.5 121q105 0 157 -74.5t52 -200.5q0 -181 -93 -302t-232 -121zM282 13q58 0 106.5 57.5t76 150t27.5 196.5q0 44 -5.5 82.5t-19 75.5t-40 58.5t-63.5 21.5q-58 0 -106.5 -59t-75.5 -153t-27 -198q0 -44 6 -82.5
t19 -73.5t39.5 -55.5t62.5 -20.5z" />
    <glyph glyph-name="one" unicode="1" horiz-adv-x="393" 
d="M20 0l2 14q65 2 90 16t31 59l76 479h-109l2 14q116 22 201 90h13l-92 -583q-7 -44 11 -58.5t67 -16.5l-3 -14h-289z" />
    <glyph glyph-name="two" unicode="2" horiz-adv-x="500" 
d="M-27 0l2 14l198 186l58.5 54t54 55.5t52 65t32 64t14.5 70.5q0 53 -28.5 82.5t-78.5 29.5q-52 0 -103.5 -31.5t-83.5 -83.5l-10 5q34 76 96 123.5t143 47.5q76 0 120 -43t44 -117q0 -32 -10 -64t-24.5 -58.5t-42.5 -58t-50 -53t-62.5 -54t-65.5 -51t-73 -53t-72 -52.5
h229q57 0 81 18t52 82h14l-56 -178h-430z" />
    <glyph glyph-name="three" unicode="3" horiz-adv-x="506" 
d="M283 353q88 -5 138.5 -41t50.5 -105q0 -99 -72.5 -160t-188.5 -61q-95 0 -152 44.5t-58 116.5l97 27q-5 -68 30 -114t99 -46q65 0 107 57.5t42 126.5q0 67 -49 103.5t-140 35.5l3 16q95 10 150.5 58.5t55.5 110.5q0 44 -30 71.5t-80 27.5q-54 0 -105.5 -31t-79.5 -84
l-10 5q26 71 91 121t152 50q76 0 118.5 -37t42.5 -96q0 -76 -56.5 -126.5t-155.5 -69.5z" />
    <glyph glyph-name="four" unicode="4" horiz-adv-x="552" 
d="M177 0l2 14q66 3 91 17t32 58l15 99h-313l3 18l408 462h69l-72 -450h115l-5 -30h-115l-15 -99q-7 -44 10.5 -58t67.5 -17l-2 -14h-291zM55 218h267l59 369z" />
    <glyph glyph-name="five" unicode="5" 
d="M210 -14q-95 0 -154.5 44.5t-59.5 116.5l96 27q-5 -68 32 -114t104 -46q70 0 114.5 59.5t44.5 144.5q0 69 -38.5 111.5t-105.5 42.5q-80 0 -158 -51l-8 4l111 343h333l-12 -80h-318l-76 -228q80 70 181 70q86 0 138 -53.5t52 -137.5q0 -111 -78.5 -182t-197.5 -71z" />
    <glyph glyph-name="six" unicode="6" horiz-adv-x="569" 
d="M357 429q79 0 126.5 -50.5t47.5 -132.5q0 -109 -77.5 -185t-188.5 -76q-100 0 -156 67t-56 194q0 60 12.5 121t40 118t66 101t94.5 70.5t122 26.5q68 0 120 -31.5t62 -90.5l-99 -35q-2 54 -31 91.5t-73 37.5q-58 0 -103.5 -52t-69 -121.5t-34.5 -151.5q80 99 197 99z
M276 13q64 0 110 67t46 149q0 67 -34.5 108t-91.5 41q-36 0 -76.5 -17t-71.5 -51q-5 -35 -5 -80q0 -102 33 -159.5t90 -57.5z" />
    <glyph glyph-name="seven" unicode="7" 
d="M126 0q10 75 37.5 148t60.5 129.5t82.5 117.5t88.5 101.5t92 91.5h-252q-53 0 -84.5 -27.5t-58.5 -95.5h-14l62 203h438l-2 -14q-67 -71 -116.5 -134t-100.5 -145t-84.5 -177t-47.5 -198h-101z" />
    <glyph glyph-name="eight" unicode="8" horiz-adv-x="534" 
d="M346 371q33 -18 54 -32t44 -36.5t34 -52.5t11 -67q0 -90 -71.5 -144t-185.5 -54q-100 0 -157.5 42t-57.5 114q0 140 205 196q-55 32 -85 67t-30 91q0 80 66.5 134t168.5 54q83 0 132.5 -37.5t49.5 -100.5t-48.5 -107t-129.5 -67zM331 655q-55 0 -93 -38.5t-38 -91.5
q0 -49 30.5 -78.5t90.5 -61.5q113 59 113 162q0 49 -28 78.5t-75 29.5zM238 13q66 0 109 41t43 104q0 25 -9 47.5t-20 37t-34 31.5t-37 25t-44 24q-133 -62 -133 -181q0 -61 33 -95t92 -34z" />
    <glyph glyph-name="nine" unicode="9" horiz-adv-x="572" 
d="M334 683q100 0 155.5 -67t55.5 -194q0 -76 -21 -151.5t-60.5 -140.5t-105.5 -105t-147 -40q-68 0 -120 31.5t-63 90.5l100 35q2 -54 30.5 -91.5t72.5 -37.5t81.5 29t62 78t40.5 103.5t24 114.5q-41 -51 -94 -75t-103 -24q-80 0 -127 50.5t-47 133.5q0 109 78 184.5
t188 75.5zM293 290q36 0 76.5 17t72.5 52q4 37 4 79q0 101 -33.5 159t-90.5 58q-64 0 -110 -67t-46 -149q0 -67 34.5 -108t92.5 -41z" />
    <glyph glyph-name="A" unicode="A" horiz-adv-x="735" 
d="M602 97q13 -45 31.5 -62t59.5 -21l-2 -14h-258l3 14q52 4 65.5 21t0.5 62l-33 123h-287l-71 -123q-27 -45 -18.5 -62t59.5 -21l-2 -14h-185l2 14q40 4 63.5 21t49.5 62l344 586h15zM198 248h263l-83 310z" />
    <glyph glyph-name="B" unicode="B" horiz-adv-x="632" 
d="M-6 0l2 14q49 3 72.5 18.5t29.5 56.5l79 491q6 37 -12.5 55t-66.5 19l2 14h275q102 0 159.5 -40t57.5 -114q0 -64 -50 -110.5t-133 -53.5q84 -4 131 -44.5t47 -109.5q0 -91 -73.5 -143.5t-195.5 -52.5h-324zM232 361h100q70 0 116 46.5t46 108.5q0 59 -36.5 91.5
t-103.5 32.5h-78zM257 28h51q81 0 131 47t50 121q0 65 -42 101t-119 36h-101l-39 -246q-4 -28 14 -43.5t55 -15.5z" />
    <glyph glyph-name="C" unicode="C" horiz-adv-x="659" 
d="M316 -15q-115 0 -188.5 83.5t-73.5 211.5q0 167 110.5 285t267.5 118q96 0 156 -39t70 -108l-93 -28q-5 68 -44.5 108t-104.5 40q-109 0 -185.5 -102.5t-76.5 -237.5q0 -114 59.5 -185t153.5 -71q81 0 145.5 38.5t96.5 109.5l12 -3q-38 -105 -120 -162.5t-185 -57.5z" />
    <glyph glyph-name="D" unicode="D" horiz-adv-x="722" 
d="M386 668q149 0 229.5 -75t80.5 -203q0 -169 -113.5 -279.5t-284.5 -110.5h-304l2 14q50 3 73 18t29 57l78 491q4 42 -13 57t-66 17l3 14h286zM299 28q128 0 213.5 106.5t85.5 250.5q0 110 -60 182.5t-174 72.5h-89l-87 -553q-6 -37 21 -48t90 -11z" />
    <glyph glyph-name="E" unicode="E" horiz-adv-x="620" 
d="M448 640h-172l-45 -283h137q45 0 64.5 22t29.5 73h14l-35 -219h-14q6 52 -6 74t-57 22h-137l-38 -240q-10 -61 35 -61h150q68 0 112 33t74 114h14l-53 -175h-527l2 14q49 2 72.5 18t29.5 57l78 491q6 38 -11.5 55.5t-66.5 18.5l2 14h509l6 -179h-14q-9 81 -43 116
t-110 35z" />
    <glyph glyph-name="F" unicode="F" horiz-adv-x="588" 
d="M608 668l7 -179h-14q-9 81 -43.5 116t-110.5 35h-171l-45 -283h136q45 0 64 21.5t30 73.5h14l-35 -219h-14q6 52 -6 74t-57 22h-137l-38 -240q-6 -43 16 -58t83 -17l-2 -14h-291l2 14q49 2 72 18t30 57l78 491q6 38 -11 55.5t-67 18.5l2 14h508z" />
    <glyph glyph-name="G" unicode="G" horiz-adv-x="734" 
d="M342 -14q-135 0 -211.5 79t-76.5 216q0 170 110.5 286t272.5 116q99 0 162.5 -39.5t73.5 -108.5l-93 -27q-5 67 -48.5 107t-110.5 40q-110 0 -188 -106.5t-78 -251.5q0 -129 59.5 -205t158.5 -76q88 0 146 52l26 170q7 45 -10.5 64t-69.5 21l2 14h275l-2 -14
q-51 -4 -74.5 -24.5t-29.5 -60.5l-20 -133q-45 -51 -119 -85t-155 -34z" />
    <glyph glyph-name="H" unicode="H" horiz-adv-x="777" 
d="M539 668h270l-2 -14q-49 -2 -72 -16.5t-30 -55.5l-78 -493q-6 -40 12 -56.5t66 -18.5l-2 -14h-270l2 14q49 2 72 18t30 57l38 239h-349l-38 -239q-6 -40 12 -56.5t66 -18.5l-2 -14h-270l2 14q49 2 72 18t30 57l78 491q7 38 -10.5 55.5t-67.5 18.5l2 14h270l-2 -14
q-49 -2 -72 -16.5t-29 -55.5l-36 -226h348l36 224q6 38 -11.5 55.5t-66.5 18.5z" />
    <glyph glyph-name="I" unicode="I" horiz-adv-x="338" 
d="M-6 0l2 14q49 2 72 18t30 57l78 491q7 38 -10.5 55.5t-67.5 18.5l2 14h270l-2 -14q-49 -2 -72 -16.5t-29 -55.5l-79 -493q-6 -40 12 -56.5t66 -18.5l-2 -14h-270z" />
    <glyph glyph-name="J" unicode="J" horiz-adv-x="511" 
d="M175 -15q-85 0 -134 40.5t-54 111.5l97 26q-4 -69 21.5 -109.5t73.5 -40.5q92 0 117 149l65 418q6 35 -9.5 54t-67.5 20l2 14h269l-2 -14q-51 -3 -72.5 -18t-28.5 -54l-63 -400q-15 -94 -63 -145.5t-151 -51.5z" />
    <glyph glyph-name="K" unicode="K" horiz-adv-x="711" 
d="M736 654q-38 -2 -63 -13t-60 -40l-223 -182l190 -343q19 -34 39.5 -47.5t58.5 -14.5l-2 -14h-167q-2 22 -25 64l-164 298l-102 -84l-30 -189q-6 -40 12 -56.5t66 -18.5l-2 -14h-270l2 14q49 2 72 18t30 57l78 491q7 38 -10.5 55.5t-67.5 18.5l2 14h270l-2 -14
q-49 -2 -72 -16.5t-29 -55.5l-42 -262l338 275q36 28 28 43t-67 16l2 14h213z" />
    <glyph glyph-name="L" unicode="L" horiz-adv-x="567" 
d="M526 180h14l-54 -180h-492l2 14q50 3 73 18.5t29 56.5l78 491q7 40 -11.5 55.5t-67.5 18.5l3 14h270l-3 -14q-50 -3 -72 -18.5t-29 -55.5l-78 -491q-10 -61 42 -61h109q129 0 187 152z" />
    <glyph glyph-name="M" unicode="M" horiz-adv-x="916" 
d="M949 668l-3 -14q-50 -2 -72 -16.5t-28 -52.5l-80 -503q-6 -34 12 -48.5t67 -19.5l-2 -14h-269l2 14q50 5 72.5 19.5t27.5 48.5l75 473l-356 -555h-23l-171 563l-76 -481q-6 -34 12 -48.5t68 -19.5l-3 -14h-208l3 14q50 5 72 19.5t28 48.5l80 503q6 38 -12 52.5t-68 16.5
l3 14h168l169 -554l356 554h156z" />
    <glyph glyph-name="N" unicode="N" horiz-adv-x="736" 
d="M547 668h222l-3 -14q-52 -3 -73.5 -20t-28.5 -63l-93 -586h-24l-338 585l-75 -473q-7 -45 12.5 -62t79.5 -21l-3 -14h-222l2 14q52 4 74 21t29 62l80 508q-33 47 -89 49l3 14h165l302 -528l69 431q7 45 -13 62.5t-79 20.5z" />
    <glyph glyph-name="O" unicode="O" horiz-adv-x="758" 
d="M342 -14q-135 0 -211.5 83t-76.5 215q0 167 113 282.5t277 115.5q134 0 210.5 -82t76.5 -215q0 -167 -112.5 -283t-276.5 -116zM356 14q80 0 144.5 54t98 138t33.5 177q0 117 -55 194t-148 77q-120 0 -198 -112.5t-78 -256.5q0 -118 56 -194.5t147 -76.5z" />
    <glyph glyph-name="P" unicode="P" horiz-adv-x="605" 
d="M384 668q107 0 167 -45.5t60 -127.5q0 -93 -78 -148t-215 -55h-97l-33 -203q-8 -39 12 -56t66 -19l-2 -14h-270l2 14q49 3 72.5 18.5t29.5 56.5l78 491q6 38 -14 55t-64 19l2 14h284zM310 320q94 0 148.5 49t54.5 124q0 69 -39.5 108t-113.5 39h-83l-52 -320h85z" />
    <glyph glyph-name="Q" unicode="Q" horiz-adv-x="740" 
d="M348 -14q8 -40 31 -68t50.5 -40t62.5 -16.5t62 -2.5t52 7l-30 -85q-32 -1 -61.5 3t-62 18t-58 36t-44 60t-23.5 88q-132 2 -207.5 84.5t-75.5 213.5q0 167 113.5 282.5t277.5 115.5q134 0 210 -82t76 -215q0 -163 -107.5 -278t-265.5 -121zM144 285q0 -118 55.5 -194.5
t147.5 -76.5q119 0 197.5 112t78.5 257q0 117 -55.5 194t-147.5 77q-81 0 -145.5 -54.5t-97.5 -138t-33 -176.5z" />
    <glyph glyph-name="R" unicode="R" horiz-adv-x="663" 
d="M544 68q14 -23 39 -38t52 -16l-2 -14h-163q-3 17 -20 51l-139 241h-90l-33 -203q-8 -39 12 -56t66 -19l-2 -14h-270l2 14q49 3 72.5 18.5t29.5 56.5l78 491q6 38 -14 55t-64 19l2 14h284q107 0 167 -45.5t60 -127.5q0 -76 -53 -127.5t-150 -68.5zM277 640l-52 -320h85
q94 0 148.5 49t54.5 124q0 69 -39.5 108t-113.5 39h-83z" />
    <glyph glyph-name="S" unicode="S" horiz-adv-x="530" 
d="M233 -14q-93 0 -156.5 42.5t-71.5 116.5l92 27q0 -71 44 -114.5t107 -43.5q66 0 108 40t42 100q0 49 -32.5 83t-78.5 55.5t-92.5 43.5t-79 61t-32.5 94q0 83 66 137t173 54q80 0 141 -39t71 -104l-89 -28q-3 59 -43.5 101t-93.5 42q-62 0 -101.5 -35.5t-39.5 -87.5
q0 -45 33.5 -77t81 -53t95 -44.5t81 -63.5t33.5 -97q0 -92 -72.5 -151t-185.5 -59z" />
    <glyph glyph-name="T" unicode="T" horiz-adv-x="633" 
d="M659 668l-2 -179h-14q-5 81 -37.5 116t-108.5 35h-73l-88 -551q-6 -40 12 -56.5t66 -18.5l-2 -14h-270l2 14q49 2 72 18t30 57l87 551h-74q-76 0 -119 -35t-75 -116h-14l55 179h553z" />
    <glyph glyph-name="U" unicode="U" horiz-adv-x="724" 
d="M564 668h208l-3 -14q-49 -3 -72 -18t-29 -56l-55 -342q-19 -117 -92.5 -184.5t-177.5 -67.5q-116 0 -178.5 53t-62.5 148q0 15 4 51l55 342q5 42 -12 57t-66 17l2 14h270l-3 -14q-49 -3 -71.5 -18t-29.5 -56l-54 -342q-4 -20 -4 -44q0 -77 46.5 -120.5t130.5 -43.5
t141.5 55.5t73.5 152.5l55 342q5 42 -12 57t-67 17z" />
    <glyph glyph-name="V" unicode="V" horiz-adv-x="741" 
d="M325 -15l-163 586q-13 45 -32 62.5t-59 20.5l3 14h257l-3 -14q-51 -3 -64.5 -20.5t-0.5 -62.5l124 -461l267 461q27 45 18 62.5t-60 20.5l3 14h185l-3 -14q-40 -4 -63 -21t-50 -62l-343 -586h-16z" />
    <glyph glyph-name="W" unicode="W" horiz-adv-x="1008" 
d="M894 668h173l-3 -14q-38 -6 -58 -21.5t-44 -61.5l-307 -586h-15l-101 480l-251 -480h-14l-123 586q-6 28 -12 42.5t-22.5 26.5t-45.5 14l3 14h224l-3 -14q-45 -4 -55.5 -23.5t0.5 -59.5l90 -451l201 387l-14 64q-9 42 -25 61t-55 22l3 14h224l-3 -14q-44 -4 -54 -21.5
t-1 -61.5l91 -451l233 451q24 37 18 58.5t-57 24.5z" />
    <glyph glyph-name="X" unicode="X" horiz-adv-x="680" 
d="M720 654q-42 -4 -70.5 -21t-69.5 -62l-182 -202l145 -272q24 -45 44 -62t54 -21l-2 -14h-251l2 14q51 3 60 20t-15 63l-109 205l-182 -205q-41 -45 -38.5 -62.5t52.5 -20.5l-2 -14h-190l2 14q42 4 71 21t70 62l205 228l-131 246q-25 46 -45 62.5t-54 20.5l2 14h251
l-3 -14q-50 -3 -59 -20t15 -63l96 -179l159 179q41 46 38 63t-53 20l3 14h190z" />
    <glyph glyph-name="Y" unicode="Y" horiz-adv-x="639" 
d="M146 0l2 14q48 3 70.5 18t28.5 57l35 221l-124 261q-22 45 -40.5 62t-49.5 21l2 14h246l-3 -14q-52 -3 -62.5 -20t11.5 -63l106 -225l177 225q36 46 28.5 63t-65.5 20l3 14h190l-3 -14q-35 -4 -59.5 -20.5t-60.5 -62.5l-207 -261l-34 -221q-6 -42 11 -57t64 -18l-2 -14
h-264z" />
    <glyph glyph-name="Z" unicode="Z" horiz-adv-x="551" 
d="M522 204l-15 -56q-19 -67 -47 -104.5t-62.5 -47.5t-79 -9t-95.5 9.5t-111.5 8t-127.5 -12.5l-7 10l515 586h-259q-54 0 -93 -26.5t-70 -100.5h-14l61 207h477v-13l-522 -596q53 23 113 23.5t104 -7.5t86 -7t76 33.5t58 105.5z" />
    <glyph glyph-name="a" unicode="a" horiz-adv-x="501" 
d="M452 41l24 -1l-2 -14l-151 -41h-14l19 123q-65 -123 -180 -123q-57 0 -90 35t-30 95q2 40 21.5 70.5t55.5 50t73 31t87 20.5l94 17l5 34q11 69 -14 109.5t-79 40.5q-62 0 -94 -47.5t-15 -103.5l-82 -27q-25 84 38.5 145t165.5 61q88 0 132 -48.5t31 -131.5l-38 -243
q-4 -27 7 -38.5t36 -13.5zM195 42q40 0 76.5 27.5t62.5 73.5l20 132l-91 -17q-142 -29 -146 -130q-2 -39 19.5 -62.5t58.5 -23.5z" />
    <glyph glyph-name="b" unicode="b" horiz-adv-x="557" 
d="M254 -15q-45 0 -83.5 19.5t-56.5 53.5l-68 -73h-14l98 614q4 26 -6.5 38t-37.5 14h-24l2 14l152 41h14l-50 -311q29 57 77 89t103 32q75 0 120.5 -58.5t45.5 -155.5q0 -130 -76 -223.5t-196 -93.5zM255 19q76 0 126.5 84.5t50.5 191.5q0 75 -30 121t-82 46
q-44 0 -82.5 -27t-62.5 -73l-32 -198q-9 -56 22.5 -100.5t89.5 -44.5z" />
    <glyph glyph-name="c" unicode="c" horiz-adv-x="489" 
d="M227 -14q-88 0 -141.5 60t-53.5 158q0 137 79 224.5t199 87.5q76 0 120 -36.5t47 -84.5l-83 -25q-2 45 -24.5 81.5t-74.5 36.5q-73 0 -122.5 -72.5t-49.5 -173.5q0 -84 39 -134t109 -50q112 0 173 96l11 -4q-32 -81 -91 -122.5t-137 -41.5z" />
    <glyph glyph-name="d" unicode="d" horiz-adv-x="550" 
d="M208 -15q-78 0 -127.5 57t-49.5 151q0 140 76.5 231.5t194.5 91.5q92 0 131 -64l23 147q4 27 -6.5 38.5t-37.5 13.5l-24 1l2 14l153 41h14l-100 -614q-8 -49 44 -52l24 -1l-2 -14l-152 -41h-14l19 118q-61 -118 -168 -118zM245 43q42 0 78.5 27t58.5 68l33 207
q8 50 -21.5 94t-89.5 44q-78 0 -128.5 -82.5t-50.5 -191.5q0 -77 33 -121.5t87 -44.5z" />
    <glyph glyph-name="e" unicode="e" horiz-adv-x="501" 
d="M267 56q106 0 169 86l11 -6q-29 -72 -86 -111t-132 -39q-91 0 -144 61t-53 160q0 131 79 220t201 89q76 0 117.5 -30.5t41.5 -77.5q0 -29 -15.5 -52.5t-38 -39t-63.5 -29.5t-74.5 -22.5t-87.5 -19.5l-70 -15q1 -80 39.5 -127t105.5 -47zM295 488q-70 0 -118 -67.5
t-54 -162.5l68 15q88 21 140 51.5t52 85.5q0 31 -24 54.5t-64 23.5z" />
    <glyph glyph-name="f" unicode="f" horiz-adv-x="306" 
d="M39 0l76 473h-85l4 28h85l8 50q13 80 66 125t133 45q95 0 118 -52l-72 -48q-7 72 -61 72q-39 0 -64.5 -36t-34.5 -94l-10 -62h138l-4 -28h-139l-75 -473h-83z" />
    <glyph glyph-name="g" unicode="g" horiz-adv-x="497" 
d="M529 501l-5 -28h-106q47 -42 47 -111q0 -84 -65 -138t-161 -54q-64 0 -108 25q-41 -31 -41 -65q0 -18 16 -32t47 -16l156 -11q139 -11 139 -112q0 -78 -81 -124.5t-214 -46.5q-87 0 -141.5 30.5t-54.5 84.5q0 46 36.5 78t81.5 46q-41 24 -41 69q0 65 84 107
q-61 42 -61 120q0 84 65.5 138.5t162.5 54.5q49 0 86 -15h158zM249 199q53 0 90.5 49.5t37.5 117.5q0 54 -27.5 87.5t-75.5 33.5q-54 0 -91.5 -49.5t-37.5 -116.5q0 -54 27.5 -88t76.5 -34zM139 9q-30 3 -47 10q-59 -49 -59 -97q0 -50 44 -79t114 -29q75 0 134 29.5t59 81.5
q0 64 -98 72z" />
    <glyph glyph-name="h" unicode="h" horiz-adv-x="582" 
d="M538 65l10 -10q-45 -69 -106 -69q-34 0 -53 18t-19 51q0 11 6 50l40 253q8 47 -11.5 73.5t-60.5 26.5q-76 0 -159 -82l-61 -376h-83l97 599q4 26 -5.5 37.5t-35.5 13.5l-26 1l2 14l151 41h14l-49 -301q101 111 198 111q64 0 94 -40t19 -110l-41 -265q-4 -26 -4 -35
q0 -33 30 -33q25 0 53 32z" />
    <glyph glyph-name="i" unicode="i" horiz-adv-x="293" 
d="M170 584q-25 0 -41.5 16t-16.5 40q0 27 20 45.5t48 18.5q25 0 41.5 -16t16.5 -39q0 -27 -20 -46t-48 -19zM127 -14q-33 0 -52 17.5t-19 50.5q0 11 5 51l49 304q8 49 -44 52h-24l2 14l152 41h14l-67 -416q-4 -28 -4 -35q0 -33 29 -33q26 0 55 33l10 -10q-45 -69 -106 -69z
" />
    <glyph glyph-name="j" unicode="j" horiz-adv-x="233" 
d="M174 585q-25 0 -41.5 16t-16.5 40q0 27 20 45.5t48 18.5q25 0 41.5 -16t16.5 -39q0 -27 -20 -46t-48 -19zM-82 -212l-4 11q59 40 91.5 93.5t48.5 151.5l58 364q8 49 -44 53h-23l2 14l151 41h14l-70 -441q-17 -115 -66.5 -181.5t-157.5 -105.5z" />
    <glyph glyph-name="k" unicode="k" horiz-adv-x="531" 
d="M432 64q14 -27 29.5 -37.5t47.5 -12.5l-2 -14l-131 -10l-142 286l-74 -62l-34 -214h-83l95 599q7 49 -44 52h-23l2 14l151 41h14l-71 -450l230 192l18 15t18 14.5t16.5 12.5t17 11t16 6t18 3t17.5 -3l-18 -75q-16 9 -47 5t-53 -23l-101 -84z" />
    <glyph glyph-name="l" unicode="l" horiz-adv-x="268" 
d="M126 -14q-33 0 -52.5 17.5t-19.5 50.5q0 19 6 51l78 494q4 27 -5 38t-36 13l-26 1l2 14l151 41h14l-95 -605q-4 -19 -4 -36q0 -32 29 -32q26 0 54 32l10 -10q-45 -69 -106 -69z" />
    <glyph glyph-name="m" unicode="m" horiz-adv-x="905" 
d="M861 65l10 -10q-45 -69 -106 -69q-34 0 -53 18t-19 51q0 11 6 50l40 253q8 47 -11.5 73.5t-60.5 26.5q-77 0 -161 -84q0 -1 -0.5 -3.5t-0.5 -4.5l-58 -366h-83l56 358q7 46 -12 73t-60 27q-77 0 -160 -83l-60 -375h-83l65 409q4 26 -5.5 37.5t-35.5 13.5l-27 1l2 14
l152 41h14l-18 -112q101 112 199 112q55 0 86 -30.5t31 -85.5q103 116 202 116q64 0 94.5 -40t19.5 -110l-42 -265q-4 -22 -4 -35q0 -33 30 -33q25 0 53 32z" />
    <glyph glyph-name="n" unicode="n" horiz-adv-x="586" 
d="M542 65l10 -10q-45 -69 -106 -69q-34 0 -53 18t-19 51q0 11 6 50l40 253q8 47 -11.5 73.5t-60.5 26.5q-77 0 -160 -83l-60 -375h-83l65 409q4 26 -5.5 37.5t-35.5 13.5l-27 1l2 14l152 41h14l-18 -112q101 112 199 112q64 0 94 -40t19 -110l-41 -265q-4 -22 -4 -35
q0 -33 30 -33q25 0 53 32z" />
    <glyph glyph-name="o" unicode="o" horiz-adv-x="544" 
d="M230 -14q-91 0 -144.5 60t-53.5 164q0 129 80.5 217.5t201.5 88.5q91 0 144.5 -60t53.5 -164q0 -127 -80 -216.5t-202 -89.5zM250 14q51 0 90.5 41t59.5 102.5t20 128.5q0 89 -33 145.5t-91 56.5q-74 0 -123 -82.5t-49 -188.5q0 -90 33 -146.5t93 -56.5z" />
    <glyph glyph-name="p" unicode="p" horiz-adv-x="567" 
d="M14 -197l96 606q8 48 -41 51l-27 1l2 14l152 41h14l-18 -116q29 53 76.5 84.5t100.5 31.5q75 0 121 -58.5t46 -157.5q0 -129 -74.5 -222t-190.5 -93q-47 0 -83.5 19t-50.5 51l-40 -252h-83zM265 19q77 0 127 84t50 193q0 73 -30 117.5t-83 44.5q-45 0 -82.5 -25.5
t-60.5 -69.5l-30 -197q-9 -59 20.5 -103t88.5 -44z" />
    <glyph glyph-name="q" unicode="q" horiz-adv-x="545" 
d="M328 -197l48 300q-29 -56 -75.5 -87t-99.5 -31q-78 0 -124.5 56t-46.5 151q0 139 78 231.5t199 92.5q93 0 140 -68l63 68h14l-113 -713h-83zM238 43q43 0 82.5 27.5t60.5 67.5l34 211q5 50 -24.5 92t-87.5 42q-77 0 -127.5 -82t-50.5 -192q0 -77 30 -121.5t83 -44.5z" />
    <glyph glyph-name="r" unicode="r" horiz-adv-x="361" 
d="M351 517q19 0 39 -9l-18 -81q-18 14 -50 14q-76 0 -139 -93l-55 -348h-83l65 409q7 49 -44 52h-24l2 14l152 41h14l-21 -135q72 136 162 136z" />
    <glyph glyph-name="s" unicode="s" horiz-adv-x="437" 
d="M190 -14q-71 0 -123.5 31.5t-68.5 80.5l78 41q5 -56 38 -90.5t85 -34.5q48 0 79.5 29.5t31.5 75.5q0 37 -26 61t-63.5 38t-75 29t-63.5 45t-26 76q0 67 53 107.5t133 40.5q67 0 114 -26t61 -70l-71 -39q-8 48 -39 77.5t-75 29.5q-46 0 -74 -26.5t-28 -66.5
q0 -33 26.5 -55t64 -35t75 -28t64 -46.5t26.5 -78.5q0 -74 -57 -120t-139 -46z" />
    <glyph glyph-name="t" unicode="t" horiz-adv-x="323" 
d="M192 473l-55 -350q-7 -42 9.5 -67.5t53.5 -25.5q17 0 32 6t20 9.5t18 14.5l6 -5q-17 -27 -48 -48.5t-75 -21.5q-56 0 -83 37t-17 99l56 352h-54l2 14l143 125h14l-17 -111h148l-4 -28h-149z" />
    <glyph glyph-name="u" unicode="u" horiz-adv-x="555" 
d="M503 41l27 -1l-2 -14l-146 -41h-14l12 108q-87 -108 -191 -108q-64 0 -98 42t-23 108l44 266q4 22 4 35q0 34 -30 34q-23 0 -54 -32l-10 9q46 69 107 69q33 0 52 -17.5t19 -51.5q0 -17 -5 -50l-42 -254q-8 -45 13.5 -72.5t63.5 -27.5q79 0 154 79l60 379h83l-64 -408
q-4 -27 5 -38.5t35 -13.5z" />
    <glyph glyph-name="v" unicode="v" horiz-adv-x="457" 
d="M191 -15l-117 449q-7 28 -21 40t-46 13l2 14l132 11l103 -410l151 267q15 35 3.5 61t-42.5 46l50 43q38 -22 45.5 -59.5t-18.5 -82.5l-229 -392h-13z" />
    <glyph glyph-name="w" unicode="w" horiz-adv-x="752" 
d="M701 519q38 -22 45.5 -59.5t-18.5 -82.5l-229 -392h-13l-87 334l-195 -334h-13l-117 449q-7 28 -21 40t-46 13l2 14l132 11l103 -410l145 254l-20 78q-7 28 -21 40t-46 13l2 14l132 11l104 -410l150 267q15 35 3.5 61t-41.5 46z" />
    <glyph glyph-name="x" unicode="x" horiz-adv-x="483" 
d="M481 434q-17 10 -46.5 4.5t-49.5 -30.5l-102 -127l107 -217q23 -46 76 -50l-2 -14l-141 -10l-111 222l-111 -138q-38 -47 -65.5 -65t-65.5 -9l20 73q17 -10 46 -4.5t50 30.5l114 138l-101 202q-13 24 -29.5 35.5t-48.5 12.5l2 14l146 11l101 -205l100 126q36 47 64 65
t67 9z" />
    <glyph glyph-name="y" unicode="y" horiz-adv-x="458" 
d="M-28 -212q-33 0 -66 14l43 86q38 -29 81 -29t75 29t65 88l16 28l-112 430q-8 28 -22 40t-45 13l2 14l133 11l102 -415l152 272q15 35 3 61t-43 46l50 43q38 -22 45.5 -59.5t-17.5 -82.5l-234 -403q-51 -89 -102.5 -137.5t-125.5 -48.5z" />
    <glyph glyph-name="z" unicode="z" horiz-adv-x="451" 
d="M-13 -1l-7 10l384 426h-195q-39 0 -60.5 -20.5t-41.5 -77.5h-13l35 164h364l2 -11l-389 -430q39 21 84.5 21.5t79.5 -8t67 -10.5t59 21.5t44 80.5l13 -4l-10 -37q-14 -58 -36.5 -88t-48.5 -35.5t-63 -1.5t-74.5 12t-90.5 6.5t-103 -18.5z" />
    <glyph glyph-name="uni00A0" unicode="&#xa0;" horiz-adv-x="200" 
 />
    <glyph glyph-name="K.ss05" horiz-adv-x="694" 
d="M714 654q-56 -3 -133 -61l-283 -220l263 -292q19 -22 28.5 -32t30 -22t41.5 -13l-2 -14h-159q-7 21 -37 55l-238 264l-37 -230q-6 -40 12 -56.5t66 -18.5l-2 -14h-270l2 14q49 2 72 18t30 57l78 491q7 38 -10.5 55.5t-67.5 18.5l2 14h270l-2 -14q-49 -2 -72 -16.5
t-29 -55.5l-36 -227l312 240q40 32 30.5 46t-69.5 13l2 14h210z" />
    <glyph glyph-name="M.ss11" horiz-adv-x="915" 
d="M780 82q-2 -35 14.5 -49t65.5 -19l-2 -14h-269l2 14q51 5 74 20t26 48l32 473l-334 -555h-31l-128 550l-121 -468q-9 -34 10.5 -48t69.5 -20l-2 -14h-208l2 14q49 4 70 18.5t30 49.5l132 506q9 36 -9 49.5t-64 16.5l4 14h161l124 -552l333 552h147l-1 -14q-48 -2 -69 -17
t-25 -57z" />
    <glyph glyph-name="R.ss12" horiz-adv-x="662" 
d="M544 68q46 -51 91 -54l-2 -14h-158q-3 20 -27 51l-227 241l-33 -203q-8 -39 11 -55.5t67 -19.5l-2 -14h-270l2 14q52 5 74 19.5t28 55.5l78 491q6 38 -13 54.5t-65 19.5l2 14h284q107 0 167 -45.5t60 -127.5q0 -91 -75 -146t-209 -57zM360 640h-83l-52 -320h85
q94 0 148.5 49t54.5 124q0 69 -39.5 108t-113.5 39z" />
    <glyph glyph-name="a.ss01" horiz-adv-x="551" 
d="M525 516l-67 -423q-4 -27 6.5 -38.5t37.5 -13.5l23 -1l-2 -14l-146 -41h-14l14 118q-61 -118 -166 -118q-78 0 -129 57t-51 151q0 140 76.5 231.5t194.5 91.5q99 0 146 -68l63 68h14zM248 43q42 0 77 27t57 68l33 207q8 50 -21.5 94t-89.5 44q-78 0 -128.5 -82.5
t-50.5 -191.5q0 -76 34 -121t89 -45z" />
    <glyph glyph-name="g.ss02" horiz-adv-x="547" 
d="M203 -212q-74 0 -134.5 29t-78.5 84l83 37q2 -55 42 -88.5t93 -33.5q60 0 98.5 39t49.5 112l21 136q-61 -118 -167 -118q-77 0 -128 56.5t-51 155.5q0 136 77.5 227.5t197.5 91.5q95 0 142 -68l64 68h14l-85 -531q-15 -97 -79 -147t-159 -50zM249 43q41 0 76.5 26.5
t56.5 68.5l34 211q5 49 -23.5 91.5t-86.5 42.5q-78 0 -129.5 -81.5t-51.5 -189.5q0 -78 35 -123.5t89 -45.5z" />
    <glyph glyph-name="g.ss03" horiz-adv-x="506" 
d="M537 501l-5 -28h-106q47 -42 47 -110q0 -83 -65 -138t-162 -55q-73 0 -121 33l-18 -111h167q183 0 183 -120q0 -82 -84.5 -133t-215.5 -51q-95 0 -147 30.5t-52 85.5q0 52 33.5 85.5t79.5 50.5l29 184q-36 39 -36 98q0 84 65.5 139t162.5 55q50 0 87 -15h158zM256 198
q54 0 91 50t37 118q0 54 -27 87.5t-75 33.5q-54 0 -91.5 -49.5t-37.5 -117.5q0 -54 27.5 -88t75.5 -34zM258 22l-174 1q-49 -47 -49 -104q0 -50 44.5 -77.5t114.5 -27.5q83 0 142 36t59 94q0 25 -11.5 41.5t-33 24t-43 10t-49.5 2.5z" />
    <glyph glyph-name="g.ss04" horiz-adv-x="546" 
d="M20 -197l5 28h307l44 272q-62 -115 -177 -118q-74 -2 -121.5 55t-47.5 157q0 133 78 226t197 93q95 0 142 -68l62 63h14l-103 -656q-4 -23 -21 -37.5t-41 -14.5h-338zM238 43q43 0 82.5 27.5t60.5 67.5l34 211q5 49 -23.5 91.5t-86.5 42.5q-78 0 -129 -81.5t-51 -189.5
q0 -79 30 -124t83 -45z" />
    <glyph glyph-name="k.ss05" horiz-adv-x="524" 
d="M513 432q-15 9 -48.5 5t-59.5 -22l-155 -106l175 -252q15 -23 30 -32.5t46 -10.5l-2 -14l-128 -10l-201 286l-44 -276h-83l95 599q7 49 -44 52h-23l2 14l151 41h14l-67 -420l231 162q6 5 19.5 15t19 13.5t18.5 12t18 10.5t18 7t18.5 3t18.5 -2z" />
    <glyph glyph-name="r.ss06" horiz-adv-x="337" 
d="M25 0l70 449q4 23 21 37.5t41 14.5h211l-5 -28h-182l-74 -473h-82z" />
    <glyph glyph-name="t.ss07" horiz-adv-x="285" 
d="M87 0q-23 0 -35.5 14.5t-8.5 38.5l66 420h-54l2 14l143 125h14l-17 -111h113l-5 -28h-113l-70 -445h113l-5 -28h-143z" />
    <glyph glyph-name="y.ss08" horiz-adv-x="457" 
d="M10 -197l2 11l175 193l-113 427q-8 28 -22 40t-45 13l2 14l132 11l104 -411l151 268q15 35 3 60.5t-42 46.5l49 43q38 -22 45.5 -59.5t-18.5 -82.5l-219 -376l-114 -198h-90z" />
    <glyph glyph-name="y.ss09" horiz-adv-x="553" 
d="M446 501h83l-82 -516q-16 -97 -79 -147t-157 -50q-76 0 -136.5 29t-78.5 84l82 37q3 -56 43 -89t94 -33q59 0 97 40t50 115l19 121q-89 -107 -190 -107q-64 0 -98 42t-23 108l42 266q4 22 4 35q0 34 -30 34q-23 0 -54 -32l-10 9q46 69 107 69q33 0 52 -17.5t19 -51.5
q0 -17 -5 -50l-41 -254q-7 -45 14 -72.5t63 -27.5q79 0 155 80z" />
    <glyph glyph-name="y.ss10" horiz-adv-x="553" 
d="M27 -197l5 28h307l42 260q-88 -106 -190 -106q-64 0 -98 42t-23 108l42 266q4 22 4 35q0 34 -30 34q-23 0 -54 -32l-10 9q46 69 107 69q33 0 52 -17.5t19 -51.5q0 -17 -5 -50l-41 -254q-7 -45 14 -72.5t63 -27.5q80 0 155 82l60 376h83l-103 -646q-4 -23 -21 -37.5
t-40 -14.5h-338z" />
    </font>
</defs>
</svg>
