<?xml version="1.0" standalone="no"?>
<!DOCTYPE svg PUBLIC "-//W3C//DTD SVG 1.1//EN" "http://www.w3.org/Graphics/SVG/1.1/DTD/svg11.dtd" >
<svg xmlns="http://www.w3.org/2000/svg" xmlns:xlink="http://www.w3.org/1999/xlink" version="1.1">
<metadata>
Created by FontForge 20170731 at Fri Jun  7 02:30:11 2019
 By Aleksey,,,
Copyright (c) 2018 by Martin Va'cha. All rights reserved.
</metadata>
<defs>
<font id="RecklessNeueTRIAL-Heavy" horiz-adv-x="633" >
  <font-face 
    font-family="Reckless Neue TRIAL Heavy"
    font-weight="900"
    font-stretch="normal"
    units-per-em="1000"
    panose-1="0 0 10 0 0 0 0 0 0 0"
    ascent="800"
    descent="-200"
    x-height="513"
    cap-height="668"
    bbox="-20 -239.074 1068 810"
    underline-thickness="50"
    underline-position="-200"
    unicode-range="U+000D-00A0"
  />
<missing-glyph horiz-adv-x="1060" 
d="M30 309q0 201 141 347t341 154v-1000q-99 3 -188 44t-153.5 107.5t-102.5 157.5t-38 190zM548 806q62 -21 105.5 -165t43.5 -332t-43.5 -331t-105.5 -165v993zM872 309q0 -168 -69.5 -301.5t-178.5 -178.5q51 66 80.5 194.5t29.5 285.5t-29.5 286t-80.5 196
q109 -46 178.5 -180.5t69.5 -301.5zM1030 309q0 -151 -83.5 -276.5t-220.5 -182.5q84 73 133.5 195t49.5 264q0 141 -49.5 264t-133.5 196q137 -58 220.5 -183.5t83.5 -276.5z" />
    <glyph glyph-name=".notdef" horiz-adv-x="1060" 
d="M30 309q0 201 141 347t341 154v-1000q-99 3 -188 44t-153.5 107.5t-102.5 157.5t-38 190zM548 806q62 -21 105.5 -165t43.5 -332t-43.5 -331t-105.5 -165v993zM872 309q0 -168 -69.5 -301.5t-178.5 -178.5q51 66 80.5 194.5t29.5 285.5t-29.5 286t-80.5 196
q109 -46 178.5 -180.5t69.5 -301.5zM1030 309q0 -151 -83.5 -276.5t-220.5 -182.5q84 73 133.5 195t49.5 264q0 141 -49.5 264t-133.5 196q137 -58 220.5 -183.5t83.5 -276.5z" />
    <glyph glyph-name=".null" horiz-adv-x="0" 
 />
    <glyph glyph-name="nonmarkingreturn" horiz-adv-x="333" 
 />
    <glyph glyph-name="CR" unicode="&#xd;" horiz-adv-x="600" 
 />
    <glyph glyph-name="space" unicode=" " horiz-adv-x="220" 
 />
    <glyph glyph-name="comma" unicode="," horiz-adv-x="258" 
d="M39 -129v14q45 11 79 38t36 71q-25 -5 -42 -5q-35 0 -56 24t-21 64t27.5 67t66.5 27q43 0 68.5 -29.5t25.5 -81.5q0 -74 -50 -127.5t-134 -61.5z" />
    <glyph glyph-name="hyphen" unicode="-" horiz-adv-x="300" 
d="M25 265v56h250v-56h-250z" />
    <glyph glyph-name="period" unicode="." horiz-adv-x="258" 
d="M129 -15q-39 0 -66.5 27t-27.5 67q0 38 27.5 65t66.5 27q41 0 67.5 -26.5t26.5 -65.5q0 -40 -27.5 -67t-66.5 -27z" />
    <glyph glyph-name="zero" unicode="0" horiz-adv-x="685" 
d="M345 -14q-77 0 -137.5 28t-97 77t-55.5 110.5t-19 132.5q0 148 79 248t230 100q148 0 226 -100t78 -248q0 -95 -31.5 -172t-102 -126.5t-170.5 -49.5zM358 13q40 0 66 81.5t26 189.5q0 164 -35.5 267.5t-87.5 103.5q-40 0 -66 -81t-26 -189q0 -165 36.5 -268.5
t86.5 -103.5z" />
    <glyph glyph-name="one" unicode="1" horiz-adv-x="454" 
d="M38 0v14q59 7 82 21t23 40v464h-103v14q173 48 281 129h14v-607q0 -25 19.5 -39t65.5 -22v-14h-382z" />
    <glyph glyph-name="two" unicode="2" horiz-adv-x="563" 
d="M9 0v14l210 249q45 53 66 99.5t21 105.5q0 53 -32 85t-84 32q-43 0 -81.5 -27t-54.5 -80l-13 3q2 31 15.5 63t39.5 64.5t73.5 53t109.5 20.5q98 0 158.5 -54.5t60.5 -143.5q0 -34 -10 -65.5t-23.5 -55.5t-42 -51t-50 -44.5t-65 -44t-69.5 -40.5t-79 -43h217q61 0 90 24.5
t45 86.5h14l-31 -251h-485z" />
    <glyph glyph-name="three" unicode="3" horiz-adv-x="556" 
d="M271 345q271 -2 271 -174q0 -87 -77 -136t-206 -49q-106 0 -176.5 45t-78.5 114l182 50q8 -85 32.5 -133t61.5 -48q29 0 50 37.5t21 112.5q0 72 -47 118.5t-134 46.5v14q147 33 147 128q0 51 -32 82.5t-84 31.5q-43 0 -81.5 -27t-54.5 -80l-13 3q2 31 15.5 63t39.5 64.5
t73.5 53t109.5 20.5q105 0 161.5 -48.5t56.5 -119.5q0 -45 -19 -77.5t-55 -50.5t-74 -27t-89 -14z" />
    <glyph glyph-name="four" unicode="4" horiz-adv-x="603" 
d="M215 0v14q46 8 65.5 22t19.5 39v112h-288v24l317 457h163v-451h98v-30h-98v-112q0 -25 19.5 -39t65.5 -22v-14h-362zM53 217h247v357z" />
    <glyph glyph-name="five" unicode="5" horiz-adv-x="562" 
d="M261 -14q-106 0 -176.5 45t-78.5 114l182 50q8 -85 32.5 -133t61.5 -48q29 0 50 37.5t21 112.5q0 84 -36.5 131t-106.5 47q-42 0 -71.5 -9t-72.5 -32l-8 5l63 362h378v-160h-376l-30 -160q86 82 211 82q107 0 173 -59.5t66 -154.5q0 -230 -282 -230z" />
    <glyph glyph-name="six" unicode="6" horiz-adv-x="641" 
d="M396 430q94 0 154.5 -60.5t60.5 -156.5q0 -99 -73 -163.5t-207 -64.5q-142 0 -218.5 82.5t-76.5 248.5q0 169 84 268t223 99q107 0 181.5 -45.5t82.5 -113.5l-191 -50q1 80 -26 130.5t-66 50.5q-88 0 -92 -282q68 57 164 57zM344 13q37 0 56.5 46.5t19.5 116.5
q0 86 -34.5 135t-91.5 49q-36 0 -62 -23q1 -73 12 -143.5t37.5 -125.5t62.5 -55z" />
    <glyph glyph-name="seven" unicode="7" horiz-adv-x="587" 
d="M138 0q0 81 16.5 144t63 125.5t81.5 98.5t117 112q20 19 30 28h-263q-61 0 -90 -24.5t-45 -86.5h-14l31 271h517v-14q-70 -90 -117.5 -170.5t-72 -137t-36.5 -125t-14 -108t-2 -113.5h-202z" />
    <glyph glyph-name="eight" unicode="8" horiz-adv-x="628" 
d="M400 405q37 -18 56 -28.5t49 -32t45.5 -42t27.5 -52.5t12 -70q0 -85 -67.5 -140t-205.5 -55q-279 0 -279 168q0 135 185 139q-36 18 -59.5 33.5t-48.5 39t-37.5 55t-12.5 70.5q0 82 63 137.5t182 55.5q116 0 184.5 -46.5t68.5 -111.5q0 -108 -163 -120zM310 655
q-29 0 -46.5 -25t-17.5 -67q0 -53 34 -84.5t102 -65.5q6 20 6 100q0 63 -22.5 102.5t-55.5 39.5zM319 13q34 0 57 30t23 78q0 30 -11.5 54.5t-38 44.5t-46.5 31.5t-60 30.5q-19 -28 -19 -119q0 -65 27 -107.5t68 -42.5z" />
    <glyph glyph-name="nine" unicode="9" horiz-adv-x="641" 
d="M310 683q142 0 218.5 -82.5t76.5 -248.5q0 -169 -84 -268t-223 -99q-107 0 -181.5 45.5t-82.5 113.5l191 50q-1 -80 26 -130.5t66 -50.5q88 0 92 282q-68 -57 -164 -57q-94 0 -154.5 60.5t-60.5 156.5q0 99 73 163.5t207 64.5zM221 492q0 -86 34.5 -135t91.5 -49
q36 0 62 23q-1 73 -12 143.5t-37.5 125.5t-62.5 55q-37 0 -56.5 -46.5t-19.5 -116.5z" />
    <glyph glyph-name="A" unicode="A" horiz-adv-x="822" 
d="M701 105q21 -41 48.5 -62.5t70.5 -28.5v-14h-383v14q46 8 56.5 28.5t-10.5 62.5l-51 100h-244l-48 -100q-19 -42 -6 -62.5t64 -28.5v-14h-196v14q38 8 62.5 29t44.5 62l279 578h14zM202 233h216l-111 218z" />
    <glyph glyph-name="B" unicode="B" horiz-adv-x="718" 
d="M24 0v14q46 8 65.5 22t19.5 39v518q0 25 -19.5 39t-65.5 22v14h358q121 0 194 -45t73 -120q0 -62 -46.5 -101.5t-124.5 -43.5q98 -7 156.5 -53t58.5 -116q0 -86 -70 -137.5t-186 -51.5h-413zM301 361h53q45 0 71 36.5t26 100.5q0 66 -29 104t-79 38h-42v-279zM355 28h35
q43 0 74 48.5t31 112.5q0 59 -36 101.5t-101 42.5h-57v-250q0 -25 15 -40t39 -15z" />
    <glyph glyph-name="C" unicode="C" horiz-adv-x="703" 
d="M378 -15q-152 0 -249 96.5t-99 237.5q-2 157 90 260.5t258 103.5q108 0 186.5 -43t105.5 -120l-167 -48q-9 83 -44.5 133t-87.5 50q-68 0 -108.5 -73.5t-39.5 -193.5q2 -120 70.5 -195t169.5 -75q71 0 124.5 37t76.5 100l14 -3q-16 -121 -97.5 -194t-202.5 -73z" />
    <glyph glyph-name="D" unicode="D" horiz-adv-x="777" 
d="M352 668q102 0 180.5 -26.5t124 -71.5t68 -99.5t22.5 -114.5q0 -159 -113.5 -257.5t-268.5 -98.5h-341v14q46 8 65.5 22t19.5 39v518q0 25 -19.5 39t-65.5 22v14h328zM365 28q81 0 132.5 83.5t51.5 222.5q0 117 -61.5 211.5t-152.5 94.5h-34v-571q0 -21 14 -31t50 -10z
" />
    <glyph glyph-name="E" unicode="E" horiz-adv-x="632" 
d="M591 196h14l-22 -196h-559v14q46 8 65.5 22t19.5 39v518q0 25 -19.5 39t-65.5 22v14h550l22 -196h-14q-20 76 -78 122t-156 46h-47v-283h44q102 0 108 103h14v-235h-14q-6 104 -108 104h-44v-254q0 -21 11 -34t29 -13h16q98 0 156 46t78 122z" />
    <glyph glyph-name="F" unicode="F" horiz-adv-x="606" 
d="M574 668l22 -196h-14q-20 76 -78 122t-156 46h-47v-283h44q102 0 108 103h14v-235h-14q-6 104 -108 104h-44v-244q0 -33 24 -48.5t91 -22.5v-14h-392v14q46 8 65.5 22t19.5 39v518q0 25 -19.5 39t-65.5 22v14h550z" />
    <glyph glyph-name="G" unicode="G" horiz-adv-x="791" 
d="M393 -15q-165 0 -263 95.5t-100 238.5q-2 163 98 263.5t274 100.5q108 0 185.5 -43t104.5 -120l-168 -48q-8 83 -45 133t-92 50q-75 0 -117.5 -85.5t-40.5 -223.5q3 -149 62.5 -240t148.5 -91q29 0 59 13v199q0 89 -92 97v14h376v-14q-93 -8 -93 -97v-97
q-45 -65 -127.5 -105t-169.5 -40z" />
    <glyph glyph-name="H" unicode="H" horiz-adv-x="854" 
d="M830 654q-46 -8 -65.5 -22t-19.5 -39v-518q0 -25 19.5 -39t65.5 -22v-14h-362v14q46 8 65.5 22t19.5 39v252h-252v-252q0 -25 19.5 -39t65.5 -22v-14h-362v14q46 8 65.5 22t19.5 39v518q0 25 -19.5 39t-65.5 22v14h362v-14q-46 -8 -65.5 -22t-19.5 -39v-238h252v238
q0 25 -19.5 39t-65.5 22v14h362v-14z" />
    <glyph glyph-name="I" unicode="I" horiz-adv-x="410" 
d="M24 0v14q46 8 65.5 22t19.5 39v518q0 25 -19.5 39t-65.5 22v14h362v-14q-46 -8 -65.5 -22t-19.5 -39v-518q0 -25 19.5 -39t65.5 -22v-14h-362z" />
    <glyph glyph-name="J" unicode="J" 
d="M613 668v-14q-51 -4 -68 -19t-17 -51v-393q0 -96 -69.5 -150.5t-195.5 -54.5q-106 0 -178 45t-80 114l196 50q-1 -83 18 -132t52 -49q30 0 48 36t18 95v439q0 36 -17 51t-68 19v14h361z" />
    <glyph glyph-name="K" unicode="K" horiz-adv-x="823" 
d="M688 115q26 -40 60.5 -68.5t69.5 -32.5v-14h-310q1 30 -35 88l-140 231l-32 -30v-214q0 -25 19.5 -39t65.5 -22v-14h-362v14q46 8 65.5 22t19.5 39v518q0 25 -19.5 39t-65.5 22v14h362v-14q-46 -8 -65.5 -22t-19.5 -39v-266l284 265q34 31 23 47t-66 15v14h216v-14
q-31 -2 -73 -24t-76 -54l-136 -127z" />
    <glyph glyph-name="L" unicode="L" horiz-adv-x="621" 
d="M601 196h14l-22 -196h-569v14q85 14 85 61v518q0 47 -85 61v14h362v-14q-85 -14 -85 -61v-518q0 -21 11 -34t29 -13h26q98 0 156 46t78 122z" />
    <glyph glyph-name="M" unicode="M" horiz-adv-x="978" 
d="M954 668v-14q-54 -4 -72 -18.5t-18 -51.5v-509q0 -46 90 -61v-14h-370v14q51 8 69.5 23t18.5 38v419l-239 -493h-42l-249 517v-443q0 -46 91 -61v-14h-208v14q89 14 89 61v509q0 37 -18 51.5t-72 18.5v14h259l220 -458l222 458h229z" />
    <glyph glyph-name="N" unicode="N" horiz-adv-x="759" 
d="M507 668h228v-14q-48 -8 -66.5 -26.5t-18.5 -64.5v-578h-44l-443 554l-6 7v-441q0 -46 25 -64.5t90 -26.5v-14h-228v14q48 8 66.5 26.5t18.5 64.5v473q-62 70 -105 76v14h281l317 -396v291q0 46 -25 64.5t-90 26.5v14z" />
    <glyph glyph-name="O" unicode="O" horiz-adv-x="808" 
d="M402 -15q-173 0 -272.5 99t-99.5 236q0 160 107.5 261.5t269.5 101.5q88 0 159.5 -28t117 -75.5t70 -106.5t24.5 -124q0 -159 -107.5 -261.5t-268.5 -102.5zM425 13q70 0 111.5 77t42.5 203q1 144 -53 252.5t-143 109.5q-70 1 -112 -76.5t-43 -204.5q-1 -142 54.5 -251
t142.5 -110z" />
    <glyph glyph-name="P" unicode="P" horiz-adv-x="680" 
d="M371 289h-69l-1 -214q0 -25 19.5 -39t65.5 -22v-14h-362v14q46 8 65.5 22t19.5 39v518q0 25 -19.5 39t-65.5 22v14h347q135 0 212 -51.5t77 -141.5q0 -87 -77 -136.5t-212 -49.5zM335 640h-31l-2 -323h33q59 0 93 43t34 115q0 75 -34 120t-93 45z" />
    <glyph glyph-name="Q" unicode="Q" horiz-adv-x="808" 
d="M432 -14q20 -54 78 -77t114 -19.5t96 19.5l-34 -148q-118 -2 -188 50t-88 174h-8q-173 0 -272.5 99t-99.5 236q0 160 107.5 261.5t269.5 101.5q88 0 159.5 -28t117 -75.5t70 -106.5t24.5 -124q0 -151 -98 -251.5t-248 -111.5zM228 374q-1 -142 54.5 -251t142.5 -110
q70 0 111.5 77t42.5 203q1 144 -53 252.5t-143 109.5q-70 1 -112 -76.5t-43 -204.5z" />
    <glyph glyph-name="R" unicode="R" horiz-adv-x="790" 
d="M661 98q19 -32 54 -55.5t70 -28.5v-14h-303q-1 21 -25 65l-123 224h-32l-1 -214q0 -25 19.5 -39t65.5 -22v-14h-362v14q46 8 65.5 22t19.5 39v518q0 25 -19.5 39t-65.5 22v14h347q135 0 212 -51.5t77 -141.5q0 -115 -128 -162zM304 640l-2 -323h33q59 0 93 43t34 115
q0 75 -34 120t-93 45h-31z" />
    <glyph glyph-name="S" unicode="S" horiz-adv-x="646" 
d="M327 -14q-110 0 -189.5 41t-107.5 121l158 41q16 -79 59.5 -127t97.5 -48q42 0 67.5 27.5t25.5 71.5q0 37 -21.5 64.5t-55.5 45t-75.5 32.5t-82.5 32t-75 39.5t-55.5 60t-21.5 87.5q0 95 73 152t200 57q105 0 184 -41.5t107 -121.5l-157 -42q-15 83 -55.5 130t-96.5 47
q-39 0 -63 -25t-24 -66q0 -35 22 -61.5t57 -43t77.5 -31.5t84.5 -33.5t77 -42t57 -62.5t22 -90q0 -101 -78.5 -157.5t-210.5 -56.5z" />
    <glyph glyph-name="T" unicode="T" horiz-adv-x="652" 
d="M622 668l22 -196h-14q-19 70 -70 115.5t-138 51.5v-564q0 -47 85 -61v-14h-362v14q85 14 85 61v564q-87 -6 -138 -51.5t-70 -115.5h-14l22 196h592z" />
    <glyph glyph-name="U" unicode="U" horiz-adv-x="749" 
d="M539 668h198v-14q-46 -8 -65.5 -22t-19.5 -39v-354q0 -113 -68 -183t-178 -70q-144 0 -226.5 67.5t-82.5 185.5v354q0 25 -19.5 39t-65.5 22v14h362v-14q-46 -8 -65.5 -22t-19.5 -39v-354q0 -85 44.5 -133t122.5 -48q76 0 122 50t46 131v354q0 25 -19.5 39t-65.5 22v14z
" />
    <glyph glyph-name="V" unicode="V" horiz-adv-x="822" 
d="M420 -15l-299 578q-21 41 -48.5 62.5t-70.5 28.5v14h383v-14q-46 -8 -56.5 -28.5t10.5 -62.5l176 -346l167 346q19 42 6 62.5t-64 28.5v14h196v-14q-38 -8 -62.5 -29t-44.5 -62l-279 -578h-14z" />
    <glyph glyph-name="W" unicode="W" horiz-adv-x="1070" 
d="M872 668h196v-14q-39 -10 -62 -30t-39 -61l-227 -578h-14l-186 453l-177 -453h-14l-235 578q-16 39 -39 61t-73 30v14h322v-14q-33 -9 -37.5 -32.5t11.5 -58.5l129 -337l98 250l-36 87q-15 39 -40 61.5t-70 29.5v14h322v-14q-34 -9 -38.5 -32.5t11.5 -58.5l131 -335
l132 335q10 24 10.5 40t-17 31t-58.5 20v14z" />
    <glyph glyph-name="X" unicode="X" horiz-adv-x="778" 
d="M662 105q49 -76 106 -91v-14h-360v14q41 7 48 28t-20 63l-105 163l-129 -163q-33 -42 -28.5 -63t48.5 -28v-14h-212v14q96 15 156 91l150 186l-174 272q-25 41 -49.5 62t-56.5 29v14h360v-14q-41 -7 -47.5 -28t19.5 -63l85 -133l106 133q33 42 28.5 63t-48.5 28v14h212
v-14q-96 -15 -156 -91l-126 -157z" />
    <glyph glyph-name="Y" unicode="Y" horiz-adv-x="711" 
d="M177 0v14q41 8 59 22t18 39v228l-153 260q-43 76 -99 91v14h346v-14q-38 -7 -44 -28t18 -63l120 -209l118 209q23 42 8.5 62.5t-71.5 28.5v14h212v-14q-76 -15 -117 -91l-148 -260v-228q0 -25 18 -39t59 -22v-14h-344z" />
    <glyph glyph-name="Z" unicode="Z" horiz-adv-x="654" 
d="M632 668v-14l-377 -626h125q98 0 156 46t78 122h14l-22 -196h-584v14l377 626h-93q-98 0 -156 -46t-78 -122h-14l22 196h552z" />
    <glyph glyph-name="a" unicode="a" horiz-adv-x="572" 
d="M574 68l10 -2v-14l-229 -67h-14l-10 115q-16 -54 -61 -84.5t-107 -30.5q-64 0 -103.5 35.5t-39.5 93.5q0 79 62.5 119.5t215.5 67.5l33 6v46q0 69 -19.5 108t-53.5 39q-33 0 -53.5 -25.5t-20.5 -58t13 -62.5l-152 -46q-26 64 -1.5 113t89 78t148.5 29q113 0 174.5 -50
t61.5 -135v-218q0 -45 57 -57zM331 135v143l-29 -6q-43 -9 -70.5 -37t-27.5 -71q0 -35 18 -57.5t46 -22.5q20 0 38.5 14.5t24.5 36.5z" />
    <glyph glyph-name="b" unicode="b" 
d="M385 528q105 0 162 -74t57 -180q0 -130 -70 -209.5t-179 -79.5q-85 0 -134 54l-138 -54h-14v595q0 46 -57 57l-10 2v14l239 67h14v-286q14 42 50 68t80 26zM327 31q36 0 60.5 59t24.5 147q0 87 -24.5 147.5t-72.5 60.5q-20 0 -36.5 -13t-23.5 -33v-203q0 -89 16.5 -127
t55.5 -38z" />
    <glyph glyph-name="c" unicode="c" horiz-adv-x="551" 
d="M293 -14q-125 0 -194.5 79t-69.5 197q0 109 70 187t199 78q98 0 154.5 -43.5t65.5 -91.5l-154 -40q-15 147 -79 147q-35 0 -57 -53t-22 -125q0 -105 47.5 -157.5t127.5 -52.5q38 0 77.5 19t59.5 55l12 -4q-11 -87 -75 -141t-162 -54z" />
    <glyph glyph-name="d" unicode="d" 
d="M248 -15q-105 0 -162 74t-57 180q0 129 66.5 209t162.5 80q87 0 120 -51v103q0 45 -57 57l-10 2v14l239 67h14v-595q0 -45 57 -57l10 -2v-14l-229 -67h-14l-8 96q-18 -45 -53.5 -70.5t-78.5 -25.5zM318 78q22 0 38.5 10t21.5 26v203q0 89 -16.5 127t-55.5 38
q-36 0 -60.5 -59t-24.5 -147q0 -85 24 -141.5t73 -56.5z" />
    <glyph glyph-name="e" unicode="e" horiz-adv-x="560" 
d="M384 111q42 0 78 20t56 54l12 -4q-12 -84 -71.5 -139.5t-163.5 -55.5q-127 0 -196.5 77t-69.5 182q0 128 74 205t197 77q228 0 230 -222h-324q-2 -95 46.5 -144.5t131.5 -49.5zM283 499q-66 0 -76 -166h144q-2 62 -18 114t-50 52z" />
    <glyph glyph-name="f" unicode="f" horiz-adv-x="430" 
d="M271 526v-13h140v-28h-140v-408q0 -30 13.5 -42t64.5 -21v-14h-322v14q37 9 47.5 21t10.5 42v408h-83v28h84q6 75 47.5 127t98 73.5t122.5 21.5q163 0 192 -99l-137 -67q-3 58 -23 98t-48 40q-67 0 -67 -181z" />
    <glyph glyph-name="g" unicode="g" horiz-adv-x="557" 
d="M383 103q79 -7 124.5 -43.5t45.5 -94.5q0 -75 -87 -126t-214 -51q-114 0 -184 31.5t-70 77.5q0 43 33 69t91 28q-70 36 -70 94q0 33 25 62t67 48q-109 47 -109 151q0 74 65 126t171 52q50 0 95 -14h173v-28h-113q79 -52 79 -136q0 -75 -64.5 -126t-169.5 -51
q-59 0 -112 20q-13 -13 -13 -30q0 -15 24 -28.5t52 -15.5zM260 499q-25 0 -41.5 -37t-16.5 -95q0 -72 22.5 -119.5t56.5 -47.5q25 0 40.5 36.5t15.5 94.5q0 72 -21 120t-56 48zM309 -184q54 0 93 21.5t39 53.5q0 41 -95 58l-119 15q-49 6 -85 21q-8 -19 -8 -35
q0 -64 50.5 -99t124.5 -35z" />
    <glyph glyph-name="h" unicode="h" horiz-adv-x="644" 
d="M586 77q0 -30 7.5 -42.5t35.5 -21.5v-13h-272v13q28 9 35.5 21.5t7.5 42.5v263q0 34 -16 54t-44 20q-39 0 -72 -26v-311q0 -30 7.5 -42.5t35.5 -21.5v-13h-272v13q28 9 35.5 21.5t7.5 42.5v503q0 46 -57 57l-10 2v14l239 67h14v-298q84 105 165 105q77 0 115 -47t38 -128
v-275z" />
    <glyph glyph-name="i" unicode="i" horiz-adv-x="339" 
d="M174 564q-49 0 -80.5 30.5t-31.5 76.5q0 44 32 74t80 30t80 -30t32 -74q0 -46 -31.5 -76.5t-80.5 -30.5zM271 77q0 -30 7.5 -42.5t35.5 -21.5v-13h-272v13q28 9 35.5 21.5t7.5 42.5v311q0 46 -57 57l-10 2v14l239 67h14v-451z" />
    <glyph glyph-name="j" unicode="j" horiz-adv-x="325" 
d="M166 564q-49 0 -80.5 30.5t-31.5 76.5q0 44 32 74t80 30t80 -30t32 -74q0 -46 -31.5 -76.5t-80.5 -30.5zM14 461l239 67h14v-456q0 -48 -11 -86t-40.5 -76t-87 -69t-143.5 -54l-5 13q27 15 38 23t29.5 30.5t26 60t7.5 93.5v381q0 46 -57 57l-10 2v14z" />
    <glyph glyph-name="k" unicode="k" horiz-adv-x="674" 
d="M590 71q7 -16 13 -24.5t24.5 -18.5t46.5 -14v-14h-266q0 24 -19 66l-88 197l-33 -28v-158q0 -30 7.5 -42.5t35.5 -21.5v-13h-272v13q28 9 35.5 21.5t7.5 42.5v503q0 46 -57 57l-10 2v14l239 67h14v-448l194 168q69 59 -27 59v14h205v-14q-41 0 -70 -14.5t-91 -67.5
l-38 -33z" />
    <glyph glyph-name="l" unicode="l" horiz-adv-x="327" 
d="M268 77q0 -30 7.5 -42.5t35.5 -21.5v-13h-272v13q28 9 35.5 21.5t7.5 42.5v503q0 46 -57 57l-10 2v14l239 67h14v-643z" />
    <glyph glyph-name="m" unicode="m" horiz-adv-x="964" 
d="M906 77q0 -30 7.5 -42.5t35.5 -21.5v-13h-272v13q28 9 35.5 21.5t7.5 42.5v263q0 34 -16 54t-44 20q-41 0 -76 -29q2 -22 2 -33v-275q0 -30 7.5 -42.5t35.5 -21.5v-13h-272v13q28 9 35.5 21.5t7.5 42.5v263q0 34 -16 54t-44 20q-38 0 -69 -24v-313q0 -30 7.5 -42.5
t35.5 -21.5v-13h-272v13q28 9 35.5 21.5t7.5 42.5v311q0 46 -57 57l-10 2v14l239 67h14v-102q84 101 162 101q121 0 147 -115q42 54 82.5 84.5t90.5 30.5q77 0 115 -47t38 -128v-275z" />
    <glyph glyph-name="n" unicode="n" horiz-adv-x="649" 
d="M591 77q0 -30 7.5 -42.5t35.5 -21.5v-13h-272v13q28 9 35.5 21.5t7.5 42.5v263q0 34 -16 54t-44 20q-40 0 -74 -28v-309q0 -30 7.5 -42.5t35.5 -21.5v-13h-272v13q28 9 35.5 21.5t7.5 42.5v311q0 46 -57 57l-10 2v14l239 67h14v-108q86 107 167 107q77 0 115 -47t38 -128
v-275z" />
    <glyph glyph-name="o" unicode="o" horiz-adv-x="618" 
d="M306 -15q-123 0 -200 72.5t-77 187.5q0 125 79 204t204 79q123 0 200 -72.5t77 -188.5q0 -125 -79 -203.5t-204 -78.5zM328 13q71 0 71 184q0 135 -32.5 219t-75.5 84q-72 0 -72 -185q0 -136 33 -219t76 -83z" />
    <glyph glyph-name="p" unicode="p" horiz-adv-x="649" 
d="M401 528q105 0 162 -74t57 -180q0 -129 -66.5 -209t-162.5 -80q-87 0 -120 51v-156q0 -30 13.5 -42t64.5 -21v-14h-322v14q37 9 47.5 21t10.5 42v508q0 46 -57 57l-10 2v14l239 67h14v-91q18 42 53 66.5t77 24.5zM343 31q36 0 60.5 59t24.5 147q0 85 -24 141.5t-73 56.5
q-22 0 -38.5 -10t-21.5 -26v-203q0 -89 16.5 -127t55.5 -38z" />
    <glyph glyph-name="q" unicode="q" horiz-adv-x="617" 
d="M564 -120q0 -30 10.5 -42t47.5 -21v-14h-322v14q51 9 64.5 21t13.5 42v199q-14 -42 -51 -68t-85 -26q-101 0 -157 74t-56 180q0 130 70 209.5t179 79.5q87 0 137 -52l135 52h14v-648zM318 78q22 0 38.5 10t21.5 26v243q0 67 -16.5 96t-55.5 29q-36 0 -60.5 -59
t-24.5 -147q0 -85 24 -141.5t73 -56.5z" />
    <glyph glyph-name="r" unicode="r" horiz-adv-x="479" 
d="M432 528q24 0 45 -9l-11 -164q-28 25 -80 25q-35 0 -67 -13.5t-48 -37.5v-252q0 -30 13.5 -42t64.5 -21v-14h-322v14q37 9 47.5 21t10.5 42v311q0 46 -57 57l-10 2v14l239 67h14v-163q23 75 65 119t96 44z" />
    <glyph glyph-name="s" unicode="s" horiz-adv-x="522" 
d="M269 -14q-88 0 -154.5 31.5t-94.5 79.5l121 67q17 -68 56 -109t87 -41q32 0 53 17t21 45q0 42 -32 66t-77.5 36t-90.5 26.5t-77 51t-32 97.5q0 76 63 125t165 49q76 0 133.5 -26.5t77.5 -76.5l-112 -58q-19 61 -52 97t-72 36q-27 0 -45 -17.5t-18 -44.5q0 -31 23 -51.5
t58 -30.5t75.5 -24t75.5 -30.5t58 -53t23 -88.5q0 -77 -67 -125t-166 -48z" />
    <glyph glyph-name="t" unicode="t" horiz-adv-x="415" 
d="M402 81l8 -10q-67 -86 -173 -86q-74 0 -118 43t-44 117v340h-55v14l227 169h14v-155h142v-28h-142v-333q0 -38 21.5 -65.5t57.5 -27.5q24 0 62 22z" />
    <glyph glyph-name="u" unicode="u" horiz-adv-x="650" 
d="M635 68l10 -2v-14l-229 -67h-14l-9 108q-87 -108 -168 -108q-77 0 -115 47t-38 128v228q0 46 -57 57l-10 2v14l239 67h14v-356q0 -34 16 -54t44 -20q40 0 74 28v262q0 46 -57 57l-10 2v14l239 67h14v-403q0 -45 57 -57z" />
    <glyph glyph-name="v" unicode="v" horiz-adv-x="588" 
d="M292 -15l-227 451q-18 34 -33.5 47t-41.5 16v14h337v-14q-83 -3 -54 -63l112 -226l112 226q28 57 -44 63v14h145v-14q-24 -3 -38 -16t-31 -47l-223 -451h-14z" />
    <glyph glyph-name="w" unicode="w" horiz-adv-x="877" 
d="M757 513h130v-14q-22 -3 -34 -15.5t-28 -47.5l-203 -451h-13l-167 362l-164 -362h-13l-209 451q-10 21 -16.5 32t-19 20t-30.5 11v14h318v-14q-73 -5 -47 -63l95 -211l71 156l-26 55q-15 32 -27.5 46t-39.5 17v14h320v-14q-74 -5 -48 -63l93 -211l95 211q25 57 -37 63v14
z" />
    <glyph glyph-name="x" unicode="x" horiz-adv-x="612" 
d="M275 14q47 13 17 63l-64 111l-88 -111q-39 -51 26 -63v-14h-163v14q34 8 55.5 21t45.5 42l109 136l-130 223q-16 28 -31 40t-48 23v14h328v-14q-45 -14 -17 -63l47 -80l64 80q39 51 -26 63v14h162v-14q-34 -8 -55.5 -21t-45.5 -42l-84 -105l150 -254q18 -31 33.5 -43
t47.5 -20l1 -14h-334v14z" />
    <glyph glyph-name="y" unicode="y" horiz-adv-x="579" 
d="M455 513h144v-14q-24 -1 -38.5 -14t-32.5 -49l-219 -445q-50 -102 -101 -152.5t-129 -50.5q-44 0 -89 20l52 174q72 -56 132 -56q72 0 104 65l6 12l-220 433q-18 35 -32.5 48.5t-36.5 14.5v14h332v-14q-40 -2 -54 -18.5t0 -44.5l112 -226l111 226q29 60 -41 63v14z" />
    <glyph glyph-name="z" unicode="z" horiz-adv-x="524" 
d="M512 513v-14l-288 -471h121q41 0 82 41.5t61 119.5h14l-12 -189h-478v14l288 471h-100q-42 0 -85 -36.5t-67 -109.5h-14l15 174h463z" />
    <glyph glyph-name="uni00A0" unicode="&#xa0;" horiz-adv-x="200" 
 />
    <glyph glyph-name="K.ss05" horiz-adv-x="823" 
d="M688 115q65 -93 130 -101v-14h-291l-226 342v-267q0 -25 19.5 -39t65.5 -22v-14h-362v14q46 8 65.5 22t19.5 39v518q0 25 -19.5 39t-65.5 22v14h362v-14q-46 -8 -65.5 -22t-19.5 -39v-239l280 238q30 23 19.5 43t-62.5 19v14h216v-14q-63 -4 -149 -78l-148 -126z" />
    <glyph glyph-name="M.ss11" horiz-adv-x="1011" 
d="M911 75q3 -23 21.5 -38t68.5 -23v-14h-370v14q52 8 71.5 23.5t16.5 37.5l-50 419l-239 -493h-54l-200 488l-49 -414q-2 -21 18.5 -37t72.5 -24v-14h-208v14q50 8 68 23t21 38l61 514q3 28 -15 42.5t-63 22.5l2 14h244l173 -456l221 456h204l2 -14q-42 -7 -61 -21t-16 -39
z" />
    <glyph glyph-name="R.ss12" horiz-adv-x="790" 
d="M661 98q22 -32 56 -56t68 -28v-14h-312q-1 30 -25 65l-146 223l-1 -213q0 -25 19.5 -39t65.5 -22v-14h-362v14q46 8 65.5 22t19.5 39v518q0 25 -19.5 39t-65.5 22v14h347q140 0 214.5 -50.5t74.5 -142.5q0 -129 -146 -169zM345 640h-41l-2 -323h43q55 0 86 42t31 116
q0 77 -31 121t-86 44z" />
    <glyph glyph-name="a.ss01" horiz-adv-x="636" 
d="M621 68l10 -2v-14l-229 -67h-14l-8 96q-17 -45 -54 -70.5t-78 -25.5q-105 0 -162 74t-57 180q0 130 70 209.5t179 79.5q87 0 137 -52l135 52h14v-403q0 -45 57 -57zM318 78q22 0 38.5 10t21.5 26v243q0 67 -16.5 96t-55.5 29q-36 0 -60.5 -59t-24.5 -147q0 -85 24 -141.5
t73 -56.5z" />
    <glyph glyph-name="g.ss02" horiz-adv-x="619" 
d="M550 528h14v-511q0 -103 -71.5 -166t-211.5 -63q-99 0 -160.5 31t-83.5 75l152 71q13 -67 43.5 -109t67.5 -42q34 0 56 34.5t22 105.5v125q-14 -42 -51 -68t-84 -26q-102 0 -158 74t-56 180q0 130 70 209.5t179 79.5q87 0 137 -52zM378 114v243q0 67 -16 96t-53 29
q-38 0 -63 -59t-25 -147q0 -85 24 -141.5t73 -56.5q22 0 38.5 10t21.5 26z" />
    <glyph glyph-name="g.ss03" horiz-adv-x="563" 
d="M559 513v-28h-113q79 -52 79 -136q0 -75 -64.5 -126t-169.5 -51q-90 0 -156 41v-113l248 1q76 0 123 -40t47 -96q0 -75 -87 -126t-214 -51q-114 0 -184 31.5t-70 77.5q0 40 29 65.5t80 30.5v241q-52 45 -52 115q0 74 65 126t171 52q50 0 95 -14h173zM300 197
q16 0 26.5 38t10.5 96q0 73 -15 120.5t-41 47.5q-17 0 -28 -37.5t-11 -94.5q0 -73 16 -121.5t42 -48.5zM441 -91q0 65 -85 65h-218q-4 -16 -4 -24q0 -64 50.5 -99t124.5 -35q59 0 95.5 25.5t36.5 67.5z" />
    <glyph glyph-name="g.ss04" horiz-adv-x="619" 
d="M550 528h14v-645q0 -35 -22.5 -57.5t-57.5 -22.5h-402v28h296v248q-14 -42 -50 -68t-80 -26q-105 0 -162 74t-57 180q0 130 70 209.5t179 79.5q87 0 137 -52zM318 78q22 0 38.5 10t21.5 26v243q0 67 -16.5 96t-55.5 29q-36 0 -60.5 -59t-24.5 -147q0 -85 24 -141.5
t73 -56.5z" />
    <glyph glyph-name="k.ss05" horiz-adv-x="685" 
d="M594 71q1 -1 4.5 -7.5t5 -8.5t5 -7.5t6 -7.5t7.5 -6.5t10 -6.5t12 -5t15.5 -5t18.5 -3v-14h-273q0 31 -19 66l-118 210v-199q0 -30 7.5 -42.5t35.5 -21.5v-13h-272v13q28 9 35.5 21.5t7.5 42.5v503q0 46 -57 57l-10 2v14l239 67h14v-431l194 151q36 28 29 43.5t-56 15.5
v14h205v-14q-40 0 -68 -14.5t-93 -67.5l-59 -48z" />
    <glyph glyph-name="r.ss06" horiz-adv-x="445" 
d="M264 77q0 -30 7.5 -42.5t35.5 -21.5v-13h-272v13q28 9 35.5 21.5t7.5 42.5v356q0 35 22.5 57.5t57.5 22.5h282v-28h-176v-408z" />
    <glyph glyph-name="t.ss07" horiz-adv-x="375" 
d="M155 0q-35 0 -57.5 22.5t-22.5 57.5v405h-55v14l227 169h14v-155h109v-28h-109v-457h109v-28h-215z" />
    <glyph glyph-name="y.ss08" horiz-adv-x="574" 
d="M449 513h145v-13q-25 -1 -39.5 -14.5t-31.5 -45.5l-226 -442l-70 -195h-181v13l236 205l-223 419q-17 33 -31.5 46t-37.5 14v13h333v-13q-40 -2 -54 -17.5t0 -42.5l113 -219l107 219q29 57 -40 60v13z" />
    <glyph glyph-name="y.ss09" 
d="M564 528h14v-511q0 -103 -71.5 -166t-211.5 -63q-99 0 -160.5 31t-83.5 75l152 71q13 -67 43.5 -109t67.5 -42q34 0 56 34.5t22 105.5v139q-86 -107 -167 -107q-77 0 -115 47t-38 128v227q0 46 -57 57l-10 2v14l239 67h14v-355q0 -34 16 -54t44 -20q40 0 74 28v261
q0 46 -57 57l-10 2v14z" />
    <glyph glyph-name="y.ss10" 
d="M564 528h14v-646q0 -35 -22.5 -57.5t-57.5 -22.5h-402v28h296v263q-86 -107 -167 -107q-77 0 -115 47t-38 128v227q0 46 -57 57l-10 2v14l239 67h14v-355q0 -34 16 -54t44 -20q40 0 74 28v261q0 46 -57 57l-10 2v14z" />
    </font>
</defs>
</svg>
