<?xml version="1.0" standalone="no"?>
<!DOCTYPE svg PUBLIC "-//W3C//DTD SVG 1.1//EN" "http://www.w3.org/Graphics/SVG/1.1/DTD/svg11.dtd" >
<svg xmlns="http://www.w3.org/2000/svg" xmlns:xlink="http://www.w3.org/1999/xlink" version="1.1">
<metadata>
Created by FontForge 20170731 at Fri Jun  7 02:30:09 2019
 By Aleksey,,,
Copyright (c) 2018 by Martin Va'cha. All rights reserved.
</metadata>
<defs>
<font id="RecklessNeueTRIAL-Thin" horiz-adv-x="546" >
  <font-face 
    font-family="Reckless Neue TRIAL Thin"
    font-weight="100"
    font-stretch="normal"
    units-per-em="1000"
    panose-1="0 0 2 0 0 0 0 0 0 0"
    ascent="800"
    descent="-200"
    x-height="496"
    cap-height="668"
    bbox="5 -212 1050 810"
    underline-thickness="50"
    underline-position="-200"
    unicode-range="U+000D-00A0"
  />
<missing-glyph horiz-adv-x="1090" 
d="M50 309q0 201 141 347t341 154v-1000q-99 3 -188 44t-153.5 107.5t-102.5 157.5t-38 190zM568 806q62 -21 105.5 -165t43.5 -332t-43.5 -331t-105.5 -165v993zM892 309q0 -168 -69.5 -301.5t-178.5 -178.5q51 66 80.5 194.5t29.5 285.5t-29.5 286t-80.5 196
q109 -46 178.5 -180.5t69.5 -301.5zM1050 309q0 -151 -83.5 -276.5t-220.5 -182.5q84 73 133.5 195t49.5 264q0 141 -49.5 264t-133.5 196q137 -58 220.5 -183.5t83.5 -276.5z" />
    <glyph glyph-name=".notdef" horiz-adv-x="1090" 
d="M50 309q0 201 141 347t341 154v-1000q-99 3 -188 44t-153.5 107.5t-102.5 157.5t-38 190zM568 806q62 -21 105.5 -165t43.5 -332t-43.5 -331t-105.5 -165v993zM892 309q0 -168 -69.5 -301.5t-178.5 -178.5q51 66 80.5 194.5t29.5 285.5t-29.5 286t-80.5 196
q109 -46 178.5 -180.5t69.5 -301.5zM1050 309q0 -151 -83.5 -276.5t-220.5 -182.5q84 73 133.5 195t49.5 264q0 141 -49.5 264t-133.5 196q137 -58 220.5 -183.5t83.5 -276.5z" />
    <glyph glyph-name=".null" horiz-adv-x="0" 
 />
    <glyph glyph-name="nonmarkingreturn" horiz-adv-x="333" 
 />
    <glyph glyph-name="CR" unicode="&#xd;" horiz-adv-x="600" 
 />
    <glyph glyph-name="space" unicode=" " horiz-adv-x="241" 
 />
    <glyph glyph-name="comma" unicode="," horiz-adv-x="226" 
d="M60 -110v14q35 7 58 34.5t23 68.5q-14 -17 -35 -17t-33.5 12.5t-12.5 33.5q0 19 14.5 32.5t35.5 13.5q25 0 40.5 -17t15.5 -46q0 -54 -28 -89t-78 -40z" />
    <glyph glyph-name="hyphen" unicode="-" horiz-adv-x="310" 
d="M30 265v36h250v-36h-250z" />
    <glyph glyph-name="period" unicode="." horiz-adv-x="211" 
d="M106 -10q-19 0 -32.5 13.5t-13.5 32.5t13.5 32.5t32.5 13.5q20 0 32.5 -13.5t12.5 -32.5t-13 -32.5t-32 -13.5z" />
    <glyph glyph-name="zero" unicode="0" horiz-adv-x="583" 
d="M291 -15q-110 0 -173.5 98.5t-63.5 250.5t63.5 250.5t173.5 98.5t174 -98.5t64 -250.5q0 -151 -64 -250t-174 -99zM307 13q75 0 124.5 79t49.5 209q0 33 -5.5 74t-20 91.5t-36.5 91.5t-59 69t-84 28q-77 0 -125 -78t-48 -210q0 -50 9 -104t29.5 -114t63.5 -98t102 -38z
" />
    <glyph glyph-name="one" unicode="1" horiz-adv-x="370" 
d="M71 0v14q64 1 88 15.5t24 65.5v486h-112v14q100 23 143 73h13v-573q0 -50 21 -65t71 -16v-14h-248z" />
    <glyph glyph-name="two" unicode="2" horiz-adv-x="514" 
d="M35 0v14l150 157q38 40 55.5 59t50 59.5t48.5 69.5t29.5 67.5t13.5 74.5q0 61 -37.5 98.5t-99.5 37.5q-59 0 -107 -34t-69 -94l-11 5q18 78 73.5 123t130.5 45q79 0 126 -47t47 -126q0 -41 -14.5 -82t-34.5 -74.5t-63.5 -83t-79 -85t-103.5 -101.5q-22 -22 -34 -33h217
q68 0 89.5 16t40.5 79h14l-27 -145h-405z" />
    <glyph glyph-name="three" unicode="3" horiz-adv-x="520" 
d="M281 357q98 -7 143.5 -56.5t45.5 -122.5q0 -88 -57.5 -140t-157.5 -52q-80 0 -140 37.5t-75 124.5l51 16q7 -67 54.5 -108.5t117.5 -41.5q71 0 113 45.5t42 113.5q0 79 -59 124.5t-168 43.5v16q90 6 143.5 52.5t53.5 106.5q0 51 -38 86t-95 35q-59 0 -109 -32.5
t-71 -85.5l-11 5q18 71 75 114.5t131 43.5q76 0 123 -43.5t47 -110.5q0 -60 -41 -105.5t-118 -65.5z" />
    <glyph glyph-name="four" unicode="4" horiz-adv-x="555" 
d="M232 0v14q72 1 97 15.5t25 65.5v93h-324v16l342 464h26v-450h122v-30h-122v-93q0 -50 21 -65t71 -16v-14h-258zM78 218h276v375z" />
    <glyph glyph-name="five" unicode="5" horiz-adv-x="530" 
d="M248 -14q-50 0 -92.5 13.5t-78.5 51.5t-46 97l52 16q4 -69 56 -109.5t123 -40.5q80 0 123.5 50.5t43.5 129.5q0 86 -50.5 139t-132.5 53q-85 0 -153 -56l-9 4l54 334h313v-44h-292l-42 -256q57 62 148 62q93 0 154.5 -62.5t61.5 -156.5q0 -95 -61.5 -160t-171.5 -65z" />
    <glyph glyph-name="six" unicode="6" 
d="M296 429q87 0 145 -58.5t58 -157.5q0 -102 -60 -165t-153 -63q-111 0 -171.5 92t-60.5 251q0 86 18.5 152t45.5 103t63.5 61t66.5 31.5t59 7.5q52 0 103 -25t77 -80l-52 -28q-15 47 -56 76t-88 29q-75 0 -129 -77t-54 -242v-14q34 53 85.5 80t102.5 27zM294 13
q71 0 112 54t41 133q0 87 -49.5 136.5t-120.5 49.5q-42 0 -89 -22t-79 -67q6 -131 53.5 -207.5t131.5 -76.5z" />
    <glyph glyph-name="seven" unicode="7" horiz-adv-x="491" 
d="M179 0q-3 77 13 156.5t40.5 141.5t62.5 129t67 108t66 89h-242q-49 0 -77 -29.5t-45 -98.5h-14l28 172h403v-14q-30 -39 -39.5 -51.5t-44 -63t-51 -82t-43.5 -91t-40 -110.5t-22.5 -119.5t-7.5 -136.5h-54z" />
    <glyph glyph-name="eight" unicode="8" horiz-adv-x="538" 
d="M324 360q75 -34 116 -74.5t41 -110.5q0 -82 -60 -136t-151 -54q-92 0 -152.5 50.5t-60.5 126.5q0 116 148 190q-58 28 -90 64t-32 93q0 75 53.5 124.5t133.5 49.5t132.5 -45t52.5 -113q0 -110 -131 -165zM128 535q0 -31 12 -55.5t41 -45t49 -30.5t63 -30q63 31 85.5 65
t22.5 86q0 56 -37.5 93t-93.5 37q-61 0 -101.5 -34t-40.5 -86zM270 13q70 0 116.5 40.5t46.5 102.5q0 16 -3.5 30t-8 25.5t-14 23t-16.5 19t-21.5 17.5t-23 15t-27 14t-26.5 12.5t-29 12.5l-28 12q-42 -22 -68.5 -44t-38 -45.5t-15 -41.5t-3.5 -44q0 -64 45.5 -106.5
t113.5 -42.5z" />
    <glyph glyph-name="nine" unicode="9" 
d="M260 683q111 0 171.5 -92t60.5 -251q0 -86 -18.5 -152t-45.5 -103t-63.5 -61t-66.5 -31.5t-59 -7.5q-52 0 -103 25t-77 80l52 28q15 -47 56 -76t88 -29q75 0 129 77t54 242v14q-34 -53 -85.5 -80t-102.5 -27q-87 0 -145 58.5t-58 157.5q0 102 60 165t153 63zM269 282
q42 0 89 22t79 67q-6 131 -53.5 207.5t-131.5 76.5q-71 0 -112 -54t-41 -133q0 -87 49.5 -136.5t120.5 -49.5z" />
    <glyph glyph-name="A" unicode="A" horiz-adv-x="708" 
d="M599 94q20 -47 38.5 -63t58.5 -17v-14h-200v14q54 1 65 17t-9 63l-54 133h-306l-53 -133q-20 -47 -9.5 -63t62.5 -17v-14h-180v14q40 1 58.5 17t38.5 63l237 589h16zM204 255h283l-142 352z" />
    <glyph glyph-name="B" unicode="B" horiz-adv-x="634" 
d="M45 0v14q50 1 71 16t21 65v479q0 48 -21 63.5t-71 16.5v14h253q107 0 167 -41t60 -115q0 -62 -41.5 -105t-114.5 -58q95 -11 149 -57.5t54 -114.5q0 -83 -61 -130t-170 -47h-296zM181 361h128q77 0 120.5 40t43.5 111q0 60 -50 94t-138 34h-104v-279zM279 28h58
q86 0 134.5 39.5t48.5 109.5q0 74 -55.5 115t-155.5 41h-128v-238q0 -34 22 -50.5t76 -16.5z" />
    <glyph glyph-name="C" unicode="C" horiz-adv-x="648" 
d="M349 -15q-130 0 -215 95t-84 238q1 162 88.5 263.5t227.5 101.5q85 0 144 -37.5t76 -102.5l-52 -18q-19 61 -68 96t-114 35q-110 0 -179.5 -86.5t-70.5 -223.5q-1 -140 72 -226.5t193 -86.5q82 0 142 41.5t84 111.5l12 -3q-29 -93 -97 -145.5t-159 -52.5z" />
    <glyph glyph-name="D" unicode="D" horiz-adv-x="693" 
d="M312 668q171 0 256 -86.5t85 -224.5q0 -84 -28 -153.5t-75 -113t-104 -67t-118 -23.5h-283v14q50 1 71 16t21 65v479q0 48 -21 63.5t-71 16.5v14h267zM328 28q128 0 200.5 80.5t72.5 225.5q0 59 -19 112.5t-55.5 97.5t-96.5 70t-135 26h-114v-545q0 -41 31 -54t116 -13z
" />
    <glyph glyph-name="E" unicode="E" horiz-adv-x="653" 
d="M571 172h14l-28 -172h-512v14q50 1 71 16t21 65v479q0 48 -21 63.5t-71 16.5v14h499l28 -172h-14q-16 75 -48 109.5t-83 34.5h-246v-283h166q50 0 63.5 19t15.5 72h14v-211h-14q-2 53 -15.5 72.5t-63.5 19.5h-166v-234q0 -37 13 -52t44 -15h202q51 0 83 34.5t48 109.5z
" />
    <glyph glyph-name="F" unicode="F" horiz-adv-x="611" 
d="M543 668l28 -172h-14q-16 75 -48 109.5t-83 34.5h-245v-283h165q50 0 63.5 19t15.5 72h14v-211h-14q-2 53 -15.5 72.5t-63.5 19.5h-165v-234q0 -51 25 -65.5t97 -15.5v-14h-258v14q50 1 71 16t21 65v479q0 48 -21 63.5t-71 16.5v14h498z" />
    <glyph glyph-name="G" unicode="G" horiz-adv-x="722" 
d="M359 -15q-132 0 -221 96t-88 237q1 162 90 263.5t234 101.5q89 0 155.5 -39t84.5 -101l-52 -18q-20 58 -76 94.5t-126 36.5q-111 0 -184.5 -87t-73.5 -223q0 -133 81 -232t202 -99q116 0 178 66v162q0 43 -21 60.5t-76 18.5v14h231v-14q-46 -1 -67.5 -20.5t-21.5 -58.5
v-149q-35 -46 -98.5 -77.5t-150.5 -31.5z" />
    <glyph glyph-name="H" unicode="H" horiz-adv-x="754" 
d="M709 654q-50 -2 -71 -17t-21 -63v-479q0 -50 21 -64.5t71 -16.5v-14h-228v14q50 2 71 16.5t21 64.5v234h-392v-234q0 -50 21 -64.5t71 -16.5v-14h-228v14q50 2 71 16.5t21 64.5v479q0 48 -21 63t-71 17v14h228v-14q-50 -2 -71 -17t-21 -63v-217h392v217q0 48 -21 63
t-71 17v14h228v-14z" />
    <glyph glyph-name="I" unicode="I" horiz-adv-x="318" 
d="M45 0v14q50 2 71 16.5t21 64.5v479q0 48 -21 63t-71 17v14h228v-14q-50 -2 -71 -17t-21 -63v-479q0 -50 21 -64.5t71 -16.5v-14h-228z" />
    <glyph glyph-name="J" unicode="J" horiz-adv-x="476" 
d="M444 668v-14q-47 -2 -68.5 -18.5t-21.5 -61.5v-390q0 -100 -44.5 -149.5t-125.5 -49.5q-138 0 -169 148l53 16q7 -63 41 -99.5t84 -36.5q54 0 86 38.5t32 118.5v404q0 45 -22 61.5t-71 18.5v14h226z" />
    <glyph glyph-name="K" unicode="K" horiz-adv-x="706" 
d="M588 66q17 -23 45.5 -37.5t57.5 -14.5v-14h-118q-5 16 -31 53l-239 325l-122 -115v-168q0 -50 21 -64.5t71 -16.5v-14h-228v14q50 2 71 16.5t21 64.5v479q0 48 -21 63t-71 17v14h228v-14q-50 -2 -71 -17t-21 -63v-272l314 295q31 29 19 42.5t-70 14.5v14h208v-14
q-59 -3 -112 -53l-206 -193z" />
    <glyph glyph-name="L" unicode="L" horiz-adv-x="570" 
d="M516 172h14l-28 -172h-457v14q50 1 71 16t21 65v479q0 48 -21 63.5t-71 16.5v14h228v-14q-50 -1 -71 -16.5t-21 -63.5v-479q0 -37 13 -52t44 -15h147q51 0 83 34.5t48 109.5z" />
    <glyph glyph-name="M" unicode="M" horiz-adv-x="903" 
d="M858 668v-14q-49 -2 -69.5 -21t-20.5 -67v-481q0 -40 20.5 -54t69.5 -17v-14h-224v14q48 3 69 17.5t21 53.5v498l-282 -583h-14l-265 583v-498q0 -40 20.5 -54t69.5 -17v-14h-208v14q49 3 69.5 17.5t20.5 53.5v481q0 48 -20.5 67t-69.5 21v14h127l273 -598l289 598h124z
" />
    <glyph glyph-name="N" unicode="N" horiz-adv-x="740" 
d="M475 668h220v-14q-54 -1 -73 -18t-19 -62v-589h-14l-423 594v-485q0 -45 21 -62t79 -18v-14h-220v14q54 1 73 18t19 62v523q-16 19 -36.5 27.5t-56.5 9.5v14h112l418 -588v494q0 45 -21 62t-79 18v14z" />
    <glyph glyph-name="O" unicode="O" horiz-adv-x="724" 
d="M365 -15q-140 0 -227.5 93.5t-87.5 241.5q0 161 89 262t231 101q139 0 226.5 -93t87.5 -242q0 -161 -88.5 -262t-230.5 -101zM382 13q113 0 182 90t69 231q0 142 -79.5 231.5t-200.5 89.5q-114 0 -182.5 -89.5t-68.5 -231.5q0 -143 79.5 -232t200.5 -89z" />
    <glyph glyph-name="P" unicode="P" horiz-adv-x="580" 
d="M297 668q114 0 181 -45t67 -139t-67.5 -140.5t-180.5 -46.5h-116v-202q0 -50 21 -65t71 -16v-14h-228v14q50 1 71 16t21 65v479q0 48 -21 63.5t-71 16.5v14h252zM297 325q95 0 145.5 43.5t50.5 115.5q0 70 -51 113t-145 43h-116v-315h116z" />
    <glyph glyph-name="Q" unicode="Q" horiz-adv-x="724" 
d="M381 -15q57 -163 274 -139l-9 -56q-33 -2 -68.5 4.5t-79 25t-80.5 61t-56 104.5q-138 2 -225 95t-87 240q0 161 89 262t231 101q139 0 226.5 -93t87.5 -242q0 -156 -84 -256t-219 -107zM102 334q0 -143 79.5 -232t200.5 -89q113 0 182 90t69 231q0 142 -79.5 231.5
t-200.5 89.5q-114 0 -182.5 -89.5t-68.5 -231.5z" />
    <glyph glyph-name="R" unicode="R" horiz-adv-x="638" 
d="M540 55q34 -41 88 -41v-14h-107q-7 16 -30 44l-203 253h-107v-202q0 -50 21 -65t71 -16v-14h-228v14q50 1 71 16t21 65v479q0 48 -21 63.5t-71 16.5v14h252q114 0 181 -45t67 -139q0 -84 -54.5 -130t-148.5 -55zM181 640v-315h116q95 0 145.5 43.5t50.5 115.5
q0 70 -51 113t-145 43h-116z" />
    <glyph glyph-name="S" unicode="S" horiz-adv-x="549" 
d="M282 -14q-86 0 -149 43.5t-79 113.5l52 18q13 -65 65 -106t120 -41q71 0 115.5 38t44.5 99q0 43 -20.5 75t-53 51t-72 34.5t-79.5 32t-72.5 37t-53 55t-20.5 80.5q0 73 55.5 119.5t143.5 46.5q72 0 131.5 -37.5t77.5 -97.5l-52 -18q-17 55 -65 90t-102 35
q-67 0 -109.5 -34t-42.5 -89q0 -38 21 -67t54 -47t73.5 -33.5t81 -33t73.5 -39.5t54 -58t21 -83q0 -83 -57.5 -133.5t-155.5 -50.5z" />
    <glyph glyph-name="T" unicode="T" horiz-adv-x="672" 
d="M604 668l28 -172h-14q-16 75 -48 109.5t-83 34.5h-129v-545q0 -50 21 -65t71 -16v-14h-228v14q50 1 71 16t21 65v545h-129q-51 0 -83 -34.5t-48 -109.5h-14l28 172h536z" />
    <glyph glyph-name="U" unicode="U" horiz-adv-x="733" 
d="M489 668h212v-14q-50 -1 -71 -16.5t-21 -63.5v-336q0 -117 -64.5 -184.5t-174.5 -67.5q-114 0 -180 67.5t-66 184.5v336q0 48 -21 63.5t-71 16.5v14h228v-14q-50 -1 -71 -16.5t-21 -63.5v-336q0 -102 60.5 -161.5t163.5 -59.5q88 0 138.5 59.5t50.5 161.5v336
q0 48 -21 63.5t-71 16.5v14z" />
    <glyph glyph-name="V" unicode="V" horiz-adv-x="704" 
d="M344 -15l-237 589q-20 47 -38.5 63t-58.5 17v14h200v-14q-54 -1 -65 -17t9 -63l207 -513l206 513q20 47 9.5 63t-62.5 17v14h180v-14q-40 -1 -58.5 -17t-38.5 -63l-237 -589h-16z" />
    <glyph glyph-name="W" unicode="W" horiz-adv-x="986" 
d="M812 668h161v-14q-37 -5 -52.5 -18t-32.5 -62l-207 -589h-15l-175 498l-172 -498h-14l-208 589q-15 43 -30.5 61t-53.5 19v14h181v-14q-50 -2 -59 -19.5t9 -60.5l176 -500l156 451l-17 49q-8 23 -13 34t-14.5 23.5t-23.5 17t-34 5.5v14h181v-14q-48 -2 -57 -19.5t8 -60.5
l176 -504l176 504q7 19 9 27.5t3 20.5t-5 17.5t-19 9.5t-34 5v14z" />
    <glyph glyph-name="X" unicode="X" horiz-adv-x="664" 
d="M535 94q34 -48 56 -63t58 -17v-14h-201v14q54 2 60.5 17t-27.5 63l-159 222l-158 -222q-34 -47 -28 -63t59 -17v-14h-180v14q36 2 58.5 17t56.5 63l176 245l-168 235q-34 48 -56 63t-58 17v14h201v-14q-54 -2 -60.5 -17t27.5 -63l142 -199l142 199q34 48 28 63.5
t-59 16.5v14h180v-14q-36 -2 -58.5 -17t-56.5 -63l-159 -222z" />
    <glyph glyph-name="Y" unicode="Y" horiz-adv-x="606" 
d="M189 0v14q50 1 71 16t21 65v218l-171 261q-31 48 -51.5 63t-53.5 17v14h200v-14q-59 -2 -67 -17t23 -63l152 -231l151 231q31 48 23 63t-66 17v14h180v-14q-32 -1 -51.5 -16.5t-51.5 -63.5l-173 -261v-218q0 -50 21 -65t71 -16v-14h-228z" />
    <glyph glyph-name="Z" unicode="Z" horiz-adv-x="573" 
d="M521 172h14l-28 -172h-469v14l427 626h-261q-51 0 -83 -34.5t-48 -109.5h-14l28 172h441v-14l-427 -626h289q51 0 83 34.5t48 109.5z" />
    <glyph glyph-name="a" unicode="a" horiz-adv-x="495" 
d="M448 28h30v-14l-102 -29h-14v136q-24 -63 -69.5 -99.5t-100.5 -36.5q-56 0 -91.5 36t-35.5 94q0 70 45.5 108.5t152.5 59.5l99 20v28q0 71 -36.5 111.5t-100.5 40.5q-63 0 -93 -48t-4 -106l-44 -18q-38 71 12 135.5t144 64.5q71 0 114.5 -48t43.5 -130v-255
q0 -27 11.5 -38.5t38.5 -11.5zM362 145v129l-96 -19q-86 -17 -122.5 -46.5t-36.5 -81.5q0 -45 28 -74.5t72 -29.5q46 0 87.5 33.5t67.5 88.5z" />
    <glyph glyph-name="b" unicode="b" horiz-adv-x="556" 
d="M313 511q83 0 138 -71t55 -176q0 -135 -66 -207t-162 -72q-41 0 -79 20.5t-63 55.5l-19 -76h-14v622q0 27 -11.5 38.5t-38.5 11.5h-30v14l102 29h14v-325q24 58 69.5 97t104.5 39zM303 13q70 0 116 62.5t46 150.5q0 59 -16.5 112t-56.5 92t-96 39q-46 0 -92.5 -38.5
t-64.5 -87.5v-180q0 -49 44.5 -99.5t119.5 -50.5z" />
    <glyph glyph-name="c" unicode="c" horiz-adv-x="479" 
d="M262 -14q-91 0 -151.5 71.5t-60.5 179.5q0 121 62.5 197.5t162.5 76.5q59 0 103 -34.5t53 -79.5l-45 -19q-10 41 -41 73t-84 32q-75 0 -122 -58.5t-47 -151.5q0 -102 49.5 -170.5t133.5 -68.5q99 0 159 105l12 -3q-25 -71 -72 -110.5t-112 -39.5z" />
    <glyph glyph-name="d" unicode="d" horiz-adv-x="535" 
d="M243 -15q-83 0 -138 71t-55 176q0 135 66 207t162 72q39 0 77.5 -20t61.5 -52v168q0 27 -11.5 38.5t-38.5 11.5h-30v14l102 29h14v-622q0 -27 11.5 -38.5t38.5 -11.5h30v-14l-102 -29h-14v136q-22 -62 -69.5 -99t-104.5 -37zM260 27q51 0 94 34.5t63 91.5v180
q0 49 -44.5 99.5t-119.5 50.5q-70 0 -116 -62.5t-46 -150.5q0 -59 16.5 -112t56.5 -92t96 -39z" />
    <glyph glyph-name="e" unicode="e" horiz-adv-x="496" 
d="M435 122l11 -5q-20 -58 -71.5 -94.5t-113.5 -36.5q-94 0 -152.5 70t-58.5 181q0 121 62 197.5t160 76.5q76 0 124.5 -62t48.5 -156h-351q-2 -20 -2 -30q-3 -103 50 -167t141 -64q93 0 152 90zM258 483q-59 0 -102 -44t-58 -118h297q-2 70 -39.5 116t-97.5 46z" />
    <glyph glyph-name="f" unicode="f" horiz-adv-x="313" 
d="M267 715q51 0 86 -25l-34 -46q-8 19 -25 31t-38 12q-91 0 -91 -113v-78h138v-28h-138v-394q0 -32 25.5 -44t81.5 -16v-14h-221v14q23 3 37 7t27.5 17.5t13.5 35.5v394h-85v28h85v56q0 79 36 121t102 42z" />
    <glyph glyph-name="g" unicode="g" horiz-adv-x="519" 
d="M486 496v-28h-101q58 -47 58 -129q0 -75 -52.5 -122.5t-135.5 -47.5q-61 0 -105 26q-39 -33 -39 -70q0 -21 16 -39.5t53 -20.5l157 -9q149 -9 149 -118q0 -71 -67.5 -110.5t-181.5 -39.5q-89 0 -143.5 34t-54.5 89q0 79 88 128q-45 18 -45 67q0 61 56 96q-70 48 -70 137
q0 77 52 124.5t135 47.5q45 0 83 -15h148zM400 325q0 70 -42 113.5t-110 43.5q-61 0 -99 -35.5t-38 -92.5q0 -70 42 -113t109 -43q61 0 99.5 35.5t38.5 91.5zM337 20l-162 9q-23 2 -33 5q-17 -14 -27 -23t-22 -31t-12 -47q0 -53 48 -86.5t125 -33.5q86 0 143.5 31t57.5 81
q0 89 -118 95z" />
    <glyph glyph-name="h" unicode="h" horiz-adv-x="556" 
d="M465 72q0 -22 13.5 -35t26.5 -16.5t37 -6.5v-14h-190v14q24 3 37 6.5t26.5 16.5t13.5 35v294q0 52 -28 82t-78 30q-45 0 -85 -24.5t-87 -81.5v-300q0 -22 13.5 -35t26.5 -16.5t37 -6.5v-14h-190v14q24 3 37 6.5t26.5 16.5t13.5 35v535q0 27 -11.5 38.5t-38.5 11.5h-30v14
l102 29h14v-306q45 62 87 89.5t94 27.5q62 0 97.5 -37t35.5 -106v-296z" />
    <glyph glyph-name="i" unicode="i" horiz-adv-x="263" 
d="M134 593q-17 0 -29 11.5t-12 27.5q0 17 12 28.5t29 11.5q16 0 27 -11.5t11 -28.5q0 -16 -11 -27.5t-27 -11.5zM160 72q0 -22 13.5 -35t26.5 -16.5t37 -6.5v-14h-190v14q24 3 37 6.5t26.5 16.5t13.5 35v347q0 27 -11.5 38.5t-38.5 11.5h-30v14l102 29h14v-440z" />
    <glyph glyph-name="j" unicode="j" horiz-adv-x="239" 
d="M133 673q16 0 27 -11.5t11 -28.5q0 -16 -11 -27.5t-27 -11.5q-17 0 -29 11.5t-12 27.5q0 17 12 28.5t29 11.5zM38 483l102 29h14v-436q0 -113 -30 -179.5t-100 -108.5l-7 10q55 46 78 106.5t23 156.5v358q0 27 -11.5 38.5t-38.5 11.5h-30v14z" />
    <glyph glyph-name="k" unicode="k" 
d="M428 63q34 -49 103 -49v-14h-110q-3 12 -26 47l-161 236l-83 -80v-131q0 -22 13.5 -35t26.5 -16.5t37 -6.5v-14h-190v14q24 3 37 6.5t26.5 16.5t13.5 35v535q0 27 -11.5 38.5t-38.5 11.5h-30v14l102 29h14v-457l201 192q22 20 14 33.5t-45 13.5v14h169v-14
q-27 0 -51.5 -13.5t-60.5 -47.5l-117 -113z" />
    <glyph glyph-name="l" unicode="l" horiz-adv-x="263" 
d="M151 72q0 -22 13.5 -35t26.5 -16.5t37 -6.5v-14h-190v14q24 3 37 6.5t26.5 16.5t13.5 35v535q0 27 -11.5 38.5t-38.5 11.5h-30v14l102 29h14v-628z" />
    <glyph glyph-name="m" unicode="m" horiz-adv-x="873" 
d="M782 72q0 -22 13.5 -35t26.5 -16.5t37 -6.5v-14h-190v14q24 3 37 6.5t26.5 16.5t13.5 35v294q0 52 -28 82t-78 30q-46 0 -86 -25.5t-89 -84.5v-296q0 -22 13.5 -35t26.5 -16.5t37 -6.5v-14h-190v14q24 3 37 6.5t26.5 16.5t13.5 35v294q0 52 -28 82t-78 30q-81 0 -163 -95
v-311q0 -22 13.5 -35t26.5 -16.5t37 -6.5v-14h-190v14q24 3 37 6.5t26.5 16.5t13.5 35v347q0 27 -11.5 38.5t-38.5 11.5h-30v14l102 29h14v-105q42 55 82.5 79.5t89.5 24.5q57 0 92 -31.5t40 -90.5q46 65 89 93.5t96 28.5q62 0 97.5 -37t35.5 -106v-296z" />
    <glyph glyph-name="n" unicode="n" horiz-adv-x="568" 
d="M477 72q0 -22 13.5 -35t26.5 -16.5t37 -6.5v-14h-190v14q24 3 37 6.5t26.5 16.5t13.5 35v294q0 52 -28 82t-78 30q-46 0 -86 -25.5t-89 -84.5v-296q0 -22 13.5 -35t26.5 -16.5t37 -6.5v-14h-190v14q24 3 37 6.5t26.5 16.5t13.5 35v346q0 27 -11.5 38.5t-38.5 11.5h-30v14
l102 29h14v-121q46 65 89 93t95 28q62 0 97.5 -37t35.5 -106v-296z" />
    <glyph glyph-name="o" unicode="o" horiz-adv-x="527" 
d="M258 -14q-92 0 -150 70t-58 182q0 121 61 197t158 76q92 0 150 -70.5t58 -182.5q0 -121 -61 -196.5t-158 -75.5zM272 14q73 0 118.5 62.5t45.5 159.5q0 32 -9 71t-28 80t-56.5 68.5t-87.5 27.5q-72 0 -117.5 -61.5t-45.5 -157.5q0 -33 8.5 -72t27.5 -81t56.5 -69.5
t87.5 -27.5z" />
    <glyph glyph-name="p" unicode="p" horiz-adv-x="577" 
d="M334 511q83 0 138 -71t55 -176q0 -135 -66 -207t-162 -72q-39 0 -77.5 20t-61.5 52v-180q0 -32 25.5 -44t81.5 -16v-14h-221v14q23 3 37 7t27.5 17.5t13.5 35.5v541q0 27 -11.5 38.5t-38.5 11.5h-30v14l102 29h14v-136q22 62 69.5 99t104.5 37zM324 13q70 0 116 62.5
t46 150.5q0 59 -16.5 112t-56.5 92t-96 39q-51 0 -94 -34.5t-63 -91.5v-180q0 -49 44.5 -99.5t119.5 -50.5z" />
    <glyph glyph-name="q" unicode="q" horiz-adv-x="551" 
d="M453 -124q0 -22 13.5 -35.5t27.5 -17.5t37 -7v-14h-221v14q56 4 81.5 16t25.5 44v244q-24 -58 -69.5 -97t-104.5 -39q-83 0 -138 71t-55 176q0 135 66 207t162 72q86 0 141 -77l20 78h14v-635zM260 26q46 0 92.5 38.5t64.5 87.5v180q0 49 -44.5 99.5t-119.5 50.5
q-70 0 -116 -62.5t-46 -150.5q0 -59 16.5 -112t56.5 -92t96 -39z" />
    <glyph glyph-name="r" unicode="r" horiz-adv-x="358" 
d="M296 511q20 0 39 -9l-3 -43q-17 8 -40 8q-38 0 -72.5 -28.5t-59.5 -82.5v-282q0 -32 25.5 -44t81.5 -16v-14h-221v14q23 3 37 7t27.5 17.5t13.5 35.5v344q0 27 -11.5 38.5t-38.5 11.5h-30v14l102 29h14v-129q54 129 136 129z" />
    <glyph glyph-name="s" unicode="s" horiz-adv-x="436" 
d="M228 -14q-59 0 -109 32.5t-69 84.5l51 20q9 -49 45 -79t82 -30q55 0 89 29t33 75q-1 41 -30.5 68t-71.5 42.5t-84 31.5t-72 45.5t-31 73.5q-1 60 40.5 96t110.5 36q58 0 103.5 -27t61.5 -70l-47 -21q-13 40 -45.5 65t-72.5 25q-52 0 -83.5 -25.5t-31.5 -66.5
q0 -36 29 -60.5t71 -39.5t84.5 -31t72.5 -47.5t32 -77.5q2 -66 -41.5 -107.5t-116.5 -41.5z" />
    <glyph glyph-name="t" unicode="t" horiz-adv-x="304" 
d="M277 468h-152v-359q0 -90 78 -90q41 0 66 30l7 -3q-6 -22 -28.5 -41.5t-59.5 -19.5q-47 0 -73 32t-26 91v360h-54v14l76 105h14v-91h152v-28z" />
    <glyph glyph-name="u" unicode="u" horiz-adv-x="549" 
d="M502 28h30v-14l-102 -29h-14v119q-45 -63 -88 -91t-95 -28q-62 0 -97.5 37t-35.5 106v291q0 27 -11.5 38.5t-38.5 11.5h-30v14l102 29h14v-382q0 -52 28 -82t78 -30q45 0 85.5 25t88.5 84v292q0 27 -11.5 38.5t-38.5 11.5h-30v14l102 29h14v-434q0 -27 11.5 -38.5
t38.5 -11.5z" />
    <glyph glyph-name="v" unicode="v" horiz-adv-x="510" 
d="M249 -15l-169 445q-11 26 -26 38.5t-40 13.5v14h158v-14q-32 -1 -47 -15.5t-7 -36.5l143 -376l140 376q8 22 -6 36.5t-45 15.5v14h146v-14q-46 -3 -64 -52l-169 -445h-14z" />
    <glyph glyph-name="w" unicode="w" horiz-adv-x="779" 
d="M619 496h146v-14q-46 -3 -64 -52l-169 -445h-14l-127 336l-128 -336h-14l-169 445q-11 26 -26 38.5t-40 13.5v14h158v-14q-32 -1 -47 -15.5t-7 -36.5l143 -376l114 307l-26 69q-18 49 -66 52v14h158v-14q-32 -1 -47 -15.5t-7 -36.5l143 -376l140 376q8 22 -6 36.5
t-45 15.5v14z" />
    <glyph glyph-name="x" unicode="x" horiz-adv-x="520" 
d="M427 66q39 -51 76 -52v-14h-158v14q35 1 45 14t-8 38l-128 167l-130 -167q-19 -24 -7.5 -37.5t46.5 -14.5v-14h-146v14q32 1 72 52l148 190l-134 174q-39 51 -76 52v14h158v-14q-35 -1 -45 -14t8 -38l113 -148l116 148q18 25 7 38t-46 14v14h146v-14q-32 -1 -72 -52
l-133 -171z" />
    <glyph glyph-name="y" unicode="y" horiz-adv-x="508" 
d="M358 496h146v-14q-25 -2 -40 -13.5t-25 -38.5l-187 -490q-58 -152 -168 -152q-40 0 -70 11l19 49q30 -20 67 -20q81 0 127 120l22 58l-161 424q-10 27 -25.5 38.5t-40.5 13.5v14h158v-14q-34 -2 -48.5 -15t-5.5 -36l142 -375l142 374q9 23 -5.5 36.5t-46.5 15.5v14z" />
    <glyph glyph-name="z" unicode="z" horiz-adv-x="455" 
d="M410 496v-14l-317 -454h202q45 0 68 29t39 99h14l-26 -156h-351v14l317 454h-194q-42 0 -62 -23.5t-38 -87.5h-14l12 139h350z" />
    <glyph glyph-name="uni00A0" unicode="&#xa0;" horiz-adv-x="200" 
 />
    <glyph glyph-name="K.ss05" horiz-adv-x="682" 
d="M564 66q1 -1 9 -7.5t10.5 -8.5t10 -7.5t11 -7.5t10.5 -6.5t12 -6.5t12 -4t14 -3t14 -1v-14h-93l-393 321v-226q0 -50 21 -64.5t71 -16.5v-14h-228v14q50 2 71 16.5t21 64.5v479q0 48 -21 63t-71 17v14h228v-14q-50 -2 -71 -17t-21 -63v-226l290 249q53 46 -16 55
q-14 1 -35 2v14h208v-14q-53 -2 -112 -53l-298 -256z" />
    <glyph glyph-name="M.ss11" horiz-adv-x="872" 
d="M760 85q4 -40 23 -54t67 -17v-14h-223v14q49 3 71 17.5t19 53.5l-40 498l-250 -583h-20l-221 577l-46 -492q-3 -40 18.5 -54t71.5 -17v-14h-208v14q48 3 67 17t23 54l47 502q3 40 -18 53t-68 14l1 14h124l229 -596l256 596h122l1 -14q-49 -1 -69 -16t-16 -64z" />
    <glyph glyph-name="R.ss12" horiz-adv-x="638" 
d="M540 55q51 -41 88 -41v-14h-102q-7 16 -40 44l-305 253v-202q0 -50 21 -65t71 -16v-14h-228v14q50 1 71 16t21 65v479q0 48 -21 63.5t-71 16.5v14h252q114 0 181 -45t67 -139t-67.5 -140.5t-180.5 -46.5h-53zM297 640h-116v-315h116q95 0 145.5 43.5t50.5 115.5
q0 70 -51 113t-145 43z" />
    <glyph glyph-name="a.ss01" horiz-adv-x="550" 
d="M503 27h30v-14l-102 -29h-14v136q-24 -58 -69.5 -97t-104.5 -39q-83 0 -138 71t-55 176q0 135 66 207t162 72q86 0 141 -77l20 78h14v-434q0 -27 11.5 -38.5t38.5 -11.5zM260 26q46 0 92.5 38.5t64.5 87.5v180q0 49 -44.5 99.5t-119.5 50.5q-70 0 -116 -62.5t-46 -150.5
q0 -59 16.5 -112t56.5 -92t96 -39z" />
    <glyph glyph-name="g.ss02" horiz-adv-x="518" 
d="M439 511h14v-522q-1 -100 -51.5 -150.5t-145.5 -50.5q-119 0 -184 77l52 35q18 -35 56.5 -60t90.5 -25q146 0 146 155v150q-24 -58 -69.5 -97t-104.5 -39q-83 0 -138 71t-55 176q0 135 66 207t162 72q86 0 141 -77zM260 26q46 0 92.5 38.5t64.5 87.5v180q0 49 -44.5 99.5
t-119.5 50.5q-70 0 -116 -62.5t-46 -150.5q0 -59 16.5 -112t56.5 -92t96 -39z" />
    <glyph glyph-name="g.ss03" horiz-adv-x="529" 
d="M279 88q48 0 82 -5t67 -18.5t50.5 -41.5t17.5 -71q0 -80 -71.5 -122t-187.5 -42q-198 0 -198 131q0 82 83 141v155q-53 48 -53 124q0 77 52 124.5t135 47.5q45 0 83 -15h148v-28h-101q58 -47 58 -129q0 -75 -52.5 -122.5t-135.5 -47.5q-62 0 -106 26v-106zM112 354
q0 -70 42 -113t109 -43q61 0 99.5 35.5t38.5 91.5q0 70 -42 113.5t-110 43.5q-61 0 -99 -35.5t-38 -92.5zM256 -187q87 0 148 33.5t61 90.5q0 58 -44.5 82t-136.5 25l-151 1q-51 -56 -51 -112t50 -88t124 -32z" />
    <glyph glyph-name="g.ss04" horiz-adv-x="518" 
d="M439 511h14v-668q0 -18 -11 -29t-29 -11h-309v28h313v289q-24 -58 -69.5 -97t-104.5 -39q-83 0 -138 71t-55 176q0 135 66 207t162 72q86 0 141 -77zM260 26q46 0 92.5 38.5t64.5 87.5v180q0 49 -44.5 99.5t-119.5 50.5q-70 0 -116 -62.5t-46 -150.5q0 -59 16.5 -112
t56.5 -92t96 -39z" />
    <glyph glyph-name="k.ss05" horiz-adv-x="536" 
d="M418 63q26 -26 47.5 -37.5t55.5 -11.5v-14h-107q-8 24 -31 47l-232 232v-207q0 -22 13.5 -35t26.5 -16.5t37 -6.5v-14h-190v14q24 3 37 6.5t26.5 16.5t13.5 35v535q0 27 -11.5 38.5t-38.5 11.5h-30v14l102 29h14v-414l201 149q25 18 15.5 32.5t-46.5 14.5v14h171v-14
q-12 0 -24 -3.5t-26 -12t-22 -14t-25 -18.5t-21 -16l-178 -133z" />
    <glyph glyph-name="r.ss06" horiz-adv-x="352" 
d="M157 72q0 -22 13.5 -35t26.5 -16.5t37 -6.5v-14h-190v14q24 3 37 6.5t26.5 16.5t13.5 35v384q0 18 11 29t29 11h180v-28h-184v-396z" />
    <glyph glyph-name="t.ss07" horiz-adv-x="267" 
d="M129 0q-18 0 -29 11t-11 29v428h-54v14l76 105h14v-91h115v-28h-115v-440h115v-28h-111z" />
    <glyph glyph-name="y.ss08" horiz-adv-x="500" 
d="M350 496h146v-14q-25 -2 -40 -13t-25 -38l-164 -426l-85 -202h-47v14l109 186l-164 428q-10 27 -25 38t-41 13v14h158v-14q-33 -2 -48 -15t-6 -35l142 -370l142 369q9 23 -5.5 36t-46.5 15v14z" />
    <glyph glyph-name="y.ss09" horiz-adv-x="517" 
d="M438 511h14v-517q0 -102 -50.5 -154t-146.5 -52q-119 0 -184 77l52 35q18 -35 56.5 -60t90.5 -25q146 0 146 155v134q-45 -63 -88 -91t-95 -28q-62 0 -97.5 37t-35.5 106v290q0 27 -11.5 38.5t-38.5 11.5h-30v14l102 29h14v-381q0 -52 28 -82t78 -30q45 0 85.5 25
t88.5 84v291q0 27 -11.5 38.5t-38.5 11.5h-30v14z" />
    <glyph glyph-name="y.ss10" horiz-adv-x="517" 
d="M438 511h14v-669q0 -18 -11 -29t-29 -11h-309v28h313v274q-45 -63 -88 -91t-95 -28q-62 0 -97.5 37t-35.5 106v290q0 27 -11.5 38.5t-38.5 11.5h-30v14l102 29h14v-381q0 -52 28 -82t78 -30q45 0 85.5 25t88.5 84v291q0 27 -11.5 38.5t-38.5 11.5h-30v14z" />
    </font>
</defs>
</svg>
