<?xml version="1.0" standalone="no"?>
<!DOCTYPE svg PUBLIC "-//W3C//DTD SVG 1.1//EN" "http://www.w3.org/Graphics/SVG/1.1/DTD/svg11.dtd" >
<svg xmlns="http://www.w3.org/2000/svg" xmlns:xlink="http://www.w3.org/1999/xlink" version="1.1">
<metadata>
Created by FontForge 20170731 at Fri Jun  7 02:30:07 2019
 By Aleksey,,,
Copyright (c) 2018 by Martin Va'cha. All rights reserved.
</metadata>
<defs>
<font id="RecklessNeueTRIAL-BoldItalic" horiz-adv-x="600" >
  <font-face 
    font-family="Reckless Neue TRIAL Bold"
    font-weight="700"
    font-style="italic"
    font-stretch="normal"
    units-per-em="1000"
    panose-1="0 0 8 0 0 0 0 0 0 0"
    ascent="800"
    descent="-200"
    x-height="509"
    cap-height="668"
    bbox="-110 -232.071 1109 810"
    underline-thickness="50"
    underline-position="-200"
    slope="-9"
    unicode-range="U+000D-00A0"
  />
<missing-glyph horiz-adv-x="1089" 
d="M53 309q0 201 141 347t341 154v-1000q-99 3 -188 44t-153.5 107.5t-102.5 157.5t-38 190zM571 806q62 -21 105.5 -165t43.5 -332t-43.5 -331t-105.5 -165v993zM895 309q0 -168 -69.5 -301.5t-178.5 -178.5q51 66 80.5 194.5t29.5 285.5t-29.5 286t-80.5 196
q109 -46 178.5 -180.5t69.5 -301.5zM1053 309q0 -151 -83.5 -276.5t-220.5 -182.5q84 73 133.5 195t49.5 264q0 141 -49.5 264t-133.5 196q137 -58 220.5 -183.5t83.5 -276.5z" />
    <glyph glyph-name=".notdef" horiz-adv-x="1089" 
d="M53 309q0 201 141 347t341 154v-1000q-99 3 -188 44t-153.5 107.5t-102.5 157.5t-38 190zM571 806q62 -21 105.5 -165t43.5 -332t-43.5 -331t-105.5 -165v993zM895 309q0 -168 -69.5 -301.5t-178.5 -178.5q51 66 80.5 194.5t29.5 285.5t-29.5 286t-80.5 196
q109 -46 178.5 -180.5t69.5 -301.5zM1053 309q0 -151 -83.5 -276.5t-220.5 -182.5q84 73 133.5 195t49.5 264q0 141 -49.5 264t-133.5 196q137 -58 220.5 -183.5t83.5 -276.5z" />
    <glyph glyph-name=".null" horiz-adv-x="0" 
 />
    <glyph glyph-name="nonmarkingreturn" horiz-adv-x="333" 
 />
    <glyph glyph-name="CR" unicode="&#xd;" 
 />
    <glyph glyph-name="space" unicode=" " horiz-adv-x="225" 
 />
    <glyph glyph-name="comma" unicode="," horiz-adv-x="248" 
d="M-1 -124v14q43 9 75.5 35t38.5 68q-14 -7 -29 -7q-32 0 -54 22t-22 54q0 36 25 61.5t62 25.5q36 0 59.5 -24.5t22.5 -67.5q0 -71 -50 -123t-128 -58z" />
    <glyph glyph-name="hyphen" unicode="-" horiz-adv-x="296" 
d="M25 265l7 51h250l-7 -51h-250z" />
    <glyph glyph-name="period" unicode="." horiz-adv-x="239" 
d="M83 -14q-31 0 -53 22t-22 54q0 36 26.5 61.5t62.5 25.5q34 0 54.5 -21.5t20.5 -52.5q0 -37 -26 -63t-63 -26z" />
    <glyph glyph-name="zero" unicode="0" horiz-adv-x="659" 
d="M281 -14q-117 0 -176.5 73.5t-59.5 201.5q0 179 102 300t257 121q117 0 176.5 -73t59.5 -202q0 -178 -101.5 -299.5t-257.5 -121.5zM301 13q49 0 91.5 72t64.5 172t22 194q0 89 -23.5 146.5t-72.5 57.5q-50 0 -92 -72t-63.5 -172t-21.5 -194q0 -91 23.5 -147.5
t71.5 -56.5z" />
    <glyph glyph-name="one" unicode="1" horiz-adv-x="426" 
d="M2 0l3 14q63 4 87 17t30 49l74 470h-105l2 14q84 15 143 42.5t122 72.5h13l-94 -599q-6 -36 11 -49t65 -17l-2 -14h-349z" />
    <glyph glyph-name="two" unicode="2" horiz-adv-x="522" 
d="M-46 0l3 14l231 226q70 68 111.5 129t41.5 124q0 50 -26.5 77.5t-72.5 27.5q-48 0 -94.5 -28.5t-73.5 -81.5l-11 4q23 74 88.5 132t167.5 58q86 0 134.5 -45t48.5 -126q0 -26 -7 -51.5t-15.5 -46.5t-28 -44.5t-33.5 -40t-44 -39.5t-46 -35.5t-53.5 -35.5t-54 -32.5
t-59 -34.5t-56.5 -33h221q60 0 89 21.5t56 85.5h14l-65 -225h-466z" />
    <glyph glyph-name="three" unicode="3" horiz-adv-x="526" 
d="M276 348q225 -6 225 -145q0 -99 -82 -158t-213 -59q-102 0 -163.5 45t-59.5 115l156 41q-5 -69 17.5 -121t71.5 -52q50 0 83 61t33 121q0 63 -43.5 100t-125.5 36l3 15q90 15 136.5 57.5t46.5 99.5q0 42 -28 68t-76 26q-47 0 -93 -28.5t-72 -81.5l-11 4q20 72 86.5 131
t172.5 59q89 0 136 -39t47 -100q0 -164 -247 -195z" />
    <glyph glyph-name="four" unicode="4" horiz-adv-x="576" 
d="M169 0l3 14q57 7 77.5 19t26.5 47l17 107h-297l3 22l396 459h129l-71 -451h104l-5 -30h-104l-17 -107q-6 -36 10.5 -47.5t66.5 -18.5l-3 -14h-336zM44 217h254l57 362z" />
    <glyph glyph-name="five" unicode="5" horiz-adv-x="533" 
d="M213 -14q-101 0 -165.5 44.5t-65.5 115.5l157 41q-6 -69 19 -121t75 -52q51 0 84 59.5t33 136.5q0 68 -32.5 105.5t-94.5 37.5q-72 0 -154 -45l-7 5l117 355h361l-20 -131h-355l-64 -189q91 82 211 82q93 0 146.5 -52t53.5 -141q0 -112 -83.5 -181.5t-215.5 -69.5z" />
    <glyph glyph-name="six" unicode="6" horiz-adv-x="611" 
d="M395 430q86 0 135 -52t49 -136q0 -114 -86 -185.5t-209 -71.5q-117 0 -178.5 69.5t-61.5 200.5q0 112 42 208.5t126 158t193 61.5q90 0 151 -40.5t63 -104.5l-161 -45q7 63 -13 112.5t-63 49.5q-40 0 -75 -46.5t-56.5 -112.5t-33.5 -145q74 79 178 79zM296 13
q52 0 87.5 67.5t35.5 142.5q0 65 -30 104.5t-80 39.5q-55 0 -96 -38q-8 -67 -8 -117q0 -89 23.5 -144t67.5 -55z" />
    <glyph glyph-name="seven" unicode="7" horiz-adv-x="562" 
d="M107 0q9 60 26.5 112.5t47.5 101t57 85.5t75 83.5t80.5 75t92.5 79.5h-265q-58 0 -87.5 -25t-55.5 -90h-14l69 246h488l-2 -14q-173 -185 -246.5 -329.5t-100.5 -324.5h-165z" />
    <glyph glyph-name="eight" unicode="8" horiz-adv-x="577" 
d="M387 390q30 -17 45 -26.5t39.5 -29t36.5 -37.5t21.5 -46t9.5 -61q0 -95 -81 -150t-209 -55q-112 0 -175 41.5t-63 115.5q0 72 59.5 115.5t158.5 53.5q-30 17 -48.5 31t-39 35t-30.5 48.5t-10 61.5q0 86 75 141t189 55q94 0 151 -38.5t57 -103.5q0 -116 -186 -151z
M353 655q-41 0 -68.5 -34.5t-27.5 -81.5t28 -77.5t81 -60.5q28 24 46 65t18 90q0 45 -20.5 72t-56.5 27zM257 13q51 0 85 39.5t34 93.5q0 29 -9.5 52t-31.5 42.5t-38.5 30.5t-49.5 30q-83 -52 -83 -165q0 -60 24.5 -91.5t68.5 -31.5z" />
    <glyph glyph-name="nine" unicode="9" horiz-adv-x="615" 
d="M356 683q117 0 178.5 -69.5t61.5 -200.5q0 -112 -42.5 -208.5t-126.5 -158t-192 -61.5q-91 0 -151.5 40.5t-62.5 105.5l161 44q-7 -63 13 -112.5t62 -49.5q41 0 76 46.5t56.5 112.5t33.5 146q-73 -80 -178 -80q-86 0 -135.5 52t-49.5 136q0 113 86.5 185t209.5 72z
M331 302q55 0 95 37q9 63 9 118q0 88 -23.5 143t-67.5 55q-52 0 -88 -67t-36 -142q0 -65 30.5 -104.5t80.5 -39.5z" />
    <glyph glyph-name="A" unicode="A" horiz-adv-x="791" 
d="M650 102q14 -43 36.5 -62.5t63.5 -25.5l-2 -14h-338l3 14q49 6 62.5 25.5t-0.5 62.5l-34 109h-260l-67 -109q-26 -43 -16.5 -62.5t59.5 -25.5l-2 -14h-192l2 14q40 7 66 26t52 62l361 581h15zM198 239h234l-79 251z" />
    <glyph glyph-name="B" unicode="B" horiz-adv-x="665" 
d="M-12 0l2 14q88 6 97 66l81 508q9 61 -76 66l2 14h309q108 0 169 -41t61 -116q0 -66 -50.5 -109t-137.5 -49q88 -5 136.5 -43.5t48.5 -112.5q0 -90 -77 -143.5t-204 -53.5h-361zM287 361h61q55 0 90.5 47.5t35.5 109.5q0 122 -100 122h-43zM298 28h27q63 0 103.5 49.5
t40.5 120.5q0 61 -32.5 98t-89.5 37h-65l-40 -257q-3 -23 12.5 -35.5t43.5 -12.5z" />
    <glyph glyph-name="C" unicode="C" horiz-adv-x="689" 
d="M330 -15q-123 0 -202 85.5t-79 216.5q0 167 114 281.5t280 114.5q104 0 171 -41.5t80 -115.5l-145 -41q1 78 -30.5 124t-89.5 46q-61 0 -112 -49t-78 -123t-27 -151q0 -107 56.5 -171t147.5 -64q77 0 139 37t91 104l13 -3q-33 -116 -123 -183t-206 -67z" />
    <glyph glyph-name="D" unicode="D" horiz-adv-x="761" 
d="M406 668q167 0 250.5 -75.5t83.5 -199.5q0 -171 -119.5 -282t-299.5 -111h-334l3 14q48 6 70 20.5t27 45.5l80 508q4 32 -14.5 46.5t-61.5 19.5l2 14h313zM318 28q74 0 135.5 56.5t93 139.5t31.5 169q0 104 -51 175.5t-142 71.5h-54l-90 -564q-4 -28 14.5 -38t62.5 -10z
" />
    <glyph glyph-name="E" unicode="E" horiz-adv-x="628" 
d="M414 640h-83l-45 -283h97q72 0 94 100h14l-37 -229h-14q12 101 -61 101h-97l-39 -249q-8 -52 34 -52h77q79 0 133 37t87 123h14l-52 -188h-548l2 14q88 6 97 66l81 508q5 30 -14.5 47t-61.5 19l2 14h522l16 -190h-14q-35 162 -204 162z" />
    <glyph glyph-name="F" unicode="F" horiz-adv-x="608" 
d="M616 668l16 -190h-14q-35 162 -205 162h-82l-45 -283h96q73 0 95 100h14l-37 -229h-14q11 101 -62 101h-96l-40 -249q-9 -62 84 -66l-2 -14h-336l2 14q88 6 97 66l81 508q5 30 -14 47t-62 19l2 14h522z" />
    <glyph glyph-name="G" unicode="G" horiz-adv-x="777" 
d="M347 -14q-140 0 -218.5 80.5t-78.5 222.5q0 173 113 283.5t289 110.5q108 0 176 -41.5t81 -115.5l-145 -41q2 77 -32 123.5t-92 46.5q-93 0 -159.5 -111t-66.5 -256q0 -124 50.5 -198t133.5 -74q54 0 93 27l28 188q6 46 -10 67.5t-67 25.5l2 14h340l-2 -14
q-56 -4 -79 -28.5t-29 -64.5l-16 -110q-54 -62 -137.5 -98.5t-173.5 -36.5z" />
    <glyph glyph-name="H" unicode="H" horiz-adv-x="827" 
d="M536 668h328l-2 -14q-44 -2 -67.5 -16t-28.5 -46l-82 -512q-9 -61 76 -66l-2 -14h-328l2 14q87 6 97 66l40 248h-287l-40 -248q-9 -61 76 -66l-2 -14h-328l2 14q87 6 97 66l81 508q5 30 -14 47t-62 19l2 14h328l-2 -14q-44 -2 -67.5 -16t-28.5 -46l-38 -236h287l37 232
q5 30 -14 47t-62 19z" />
    <glyph glyph-name="I" unicode="I" horiz-adv-x="385" 
d="M-12 0l2 14q87 6 97 66l81 508q5 30 -14 47t-62 19l2 14h328l-2 -14q-44 -2 -67.5 -16t-28.5 -46l-82 -512q-9 -61 76 -66l-2 -14h-328z" />
    <glyph glyph-name="J" unicode="J" horiz-adv-x="586" 
d="M213 -14q-102 0 -161 42t-65 114l156 42q-5 -77 15 -123.5t57 -46.5q69 0 91 137l70 437q4 29 -14 46.5t-62 19.5l2 14h328l-2 -14q-45 -3 -68 -17t-28 -45l-64 -398q-4 -27 -9.5 -47t-16 -46.5t-29 -45t-44.5 -35.5t-66 -25.5t-90 -8.5z" />
    <glyph glyph-name="K" unicode="K" horiz-adv-x="777" 
d="M790 654q-40 -2 -67.5 -14t-59.5 -39l-200 -162l177 -348q21 -42 41.5 -57.5t61.5 -19.5l-3 -14h-242q-1 25 -27 79l-131 260l-65 -53l-33 -206q-9 -61 76 -66l-2 -14h-328l2 14q87 6 97 66l81 508q5 30 -14 47t-62 19l2 14h328l-2 -14q-44 -2 -67.5 -16t-28.5 -46
l-42 -264l328 265q74 61 -35 61l2 14h216z" />
    <glyph glyph-name="L" unicode="L" 
d="M568 190h14l-54 -190h-541l3 14q50 6 71 22t26 44l80 508q5 28 -11.5 44t-64.5 22l2 14h329l-3 -14q-50 -6 -71 -22t-26 -44l-80 -508q-8 -52 36 -52h56q167 0 234 162z" />
    <glyph glyph-name="M" unicode="M" horiz-adv-x="956" 
d="M994 668l-3 -14q-53 -4 -74 -18t-26 -51l-81 -507q-4 -27 13.5 -42t66.5 -22l-2 -14h-334l3 14q51 6 72.5 21.5t25.5 42.5l70 438l-331 -515h-35l-169 533l-73 -456q-4 -26 14 -41.5t68 -22.5l-3 -14h-208l2 14q51 6 73 21.5t26 42.5l81 507q5 37 -11 51t-68 18l2 14h226
l156 -493l316 493h203z" />
    <glyph glyph-name="N" unicode="N" horiz-adv-x="751" 
d="M563 668h226l-2 -14q-51 -6 -72.5 -24t-28.5 -64l-92 -581h-37l-350 568l-2 3l-71 -454q-7 -46 14 -64t83 -24l-3 -14h-226l3 14q50 6 72 24.5t29 63.5l76 486q-24 32 -44 47.5t-47 18.5l2 14h239l271 -444l55 342q7 46 -14 64t-83 24z" />
    <glyph glyph-name="O" unicode="O" horiz-adv-x="797" 
d="M362 -14q-147 0 -230 83t-83 220q0 171 117.5 282t294.5 111q147 0 230 -82.5t83 -220.5q0 -170 -118 -281.5t-294 -111.5zM375 14q70 0 125 57t83 142.5t28 178.5q0 113 -43 187.5t-119 74.5q-71 0 -126.5 -57.5t-83 -142t-27.5 -176.5q0 -114 43.5 -189t119.5 -75z" />
    <glyph glyph-name="P" unicode="P" horiz-adv-x="645" 
d="M422 668q111 0 173 -45.5t62 -129.5q0 -93 -83 -150t-227 -57h-71l-34 -206q-6 -30 14.5 -47t61.5 -19l-2 -14h-328l2 14q88 6 97 66l81 508q4 30 -16 47t-60 19l2 14h328zM322 314q82 0 128.5 54.5t46.5 125.5q0 146 -127 146h-37l-53 -326h42z" />
    <glyph glyph-name="Q" unicode="Q" horiz-adv-x="764" 
d="M757 379q0 -166 -112 -276.5t-282 -116.5q8 -44 41 -70.5t75.5 -32t82 -3t70.5 12.5l-47 -125q-238 -4 -244 218q-144 1 -226.5 84t-82.5 219q0 171 118 282t295 111q146 0 229 -82.5t83 -220.5zM358 14q70 0 125.5 57t83 142.5t27.5 178.5q0 113 -42.5 187.5
t-119.5 74.5q-71 0 -126.5 -57.5t-83 -142t-27.5 -176.5q0 -114 43.5 -189t119.5 -75z" />
    <glyph glyph-name="R" unicode="R" horiz-adv-x="735" 
d="M603 87q14 -28 43 -48.5t61 -24.5l-3 -14h-245q1 24 -17 60l-105 226h-61l-34 -206q-6 -30 14.5 -47t61.5 -19l-2 -14h-328l2 14q88 6 97 66l81 508q4 30 -16 47t-60 19l2 14h328q111 0 173 -45.5t62 -129.5q0 -66 -42.5 -114.5t-120.5 -72.5zM280 314h42
q82 0 128.5 54.5t46.5 125.5q0 146 -127 146h-37z" />
    <glyph glyph-name="S" unicode="S" horiz-adv-x="575" 
d="M254 -14q-106 0 -175.5 41t-81.5 120l146 40q-3 -79 34 -126t93 -47q51 0 85.5 34t34.5 86q0 46 -33 80t-80 56t-94 46.5t-80 65.5t-33 98q0 91 74 146.5t199 55.5q94 0 160 -40t80 -115l-139 -41q4 65 -28.5 116.5t-84.5 51.5q-50 0 -82.5 -31t-32.5 -77q0 -43 34 -74
t83 -53t98 -46.5t83 -67.5t34 -102q0 -99 -81 -158t-213 -59z" />
    <glyph glyph-name="T" unicode="T" horiz-adv-x="645" 
d="M677 668l-7 -190h-14q-15 162 -185 162h-10l-89 -560q-9 -61 76 -66l-2 -14h-328l2 14q87 6 97 66l89 560h-10q-171 0 -237 -162h-14l54 190h578z" />
    <glyph glyph-name="U" unicode="U" horiz-adv-x="740" 
d="M590 668h201l-2 -14q-48 -6 -70 -20.5t-27 -45.5l-56 -349q-18 -118 -93.5 -185.5t-180.5 -67.5q-129 0 -198.5 54t-69.5 152q0 19 5 47l55 349q4 32 -14.5 46.5t-61.5 19.5l2 14h329l-3 -14q-48 -6 -70 -20.5t-27 -45.5l-55 -349q-4 -20 -4 -42q0 -71 40.5 -110
t114.5 -39q80 0 134 50t69 141l56 349q4 32 -15 46.5t-62 19.5z" />
    <glyph glyph-name="V" unicode="V" horiz-adv-x="793" 
d="M358 -15l-191 581q-14 43 -36 62.5t-64 25.5l3 14h337l-2 -14q-49 -6 -62.5 -25.5t0.5 -62.5l122 -388l238 388q26 44 16.5 63t-59.5 25l2 14h192l-2 -14q-39 -7 -65.5 -26.5t-52.5 -61.5l-361 -581h-15z" />
    <glyph glyph-name="W" unicode="W" horiz-adv-x="1048" 
d="M921 668h188l-2 -14q-39 -8 -63.5 -27t-47.5 -61l-314 -581h-14l-109 463l-250 -463h-14l-136 581q-7 27 -14.5 41.5t-26.5 28.5t-51 18l3 14h286l-2 -14q-39 -6 -48 -28.5t2 -59.5l81 -378l160 300l-18 78q-11 42 -30.5 62t-60.5 26l3 14h286l-2 -14q-38 -6 -47.5 -27.5
t1.5 -60.5l82 -377l203 377q24 38 15 60t-62 28z" />
    <glyph glyph-name="X" unicode="X" horiz-adv-x="730" 
d="M778 654q-49 -7 -84.5 -26.5t-74.5 -61.5l-163 -173l146 -291q21 -43 41.5 -62t52.5 -26l-3 -14h-320l3 14q45 5 55 24.5t-12 63.5l-90 180l-165 -180q-27 -29 -35 -47t2.5 -27.5t41.5 -13.5l-3 -14h-204l3 14q49 7 84.5 26.5t74.5 61.5l190 202l-132 262
q-21 43 -41.5 62t-52.5 26l2 14h320l-2 -14q-45 -5 -55 -24.5t12 -63.5l75 -150l139 150q27 30 35 47.5t-2.5 27t-41.5 13.5l2 14h204z" />
    <glyph glyph-name="Y" unicode="Y" horiz-adv-x="685" 
d="M140 0l2 14q45 7 66 21.5t25 44.5l36 226l-116 260q-19 42 -38 61.5t-49 26.5l2 14h310l-2 -14q-45 -6 -54.5 -25.5t10.5 -62.5l93 -215l161 215q31 44 21 63t-66 25l3 14h204l-3 -14q-39 -7 -67.5 -26.5t-59.5 -61.5l-196 -260l-35 -226q-5 -31 11 -45t59 -21l-2 -14
h-315z" />
    <glyph glyph-name="Z" unicode="Z" horiz-adv-x="612" 
d="M583 245l-25 -85q-22 -78 -52 -118.5t-62.5 -49.5t-82 -5.5t-99.5 13.5t-126.5 9t-152.5 -20l-9 12l523 538h-252q-57 0 -109 -30t-77 -97h-14l70 256h539l3 -12l-523 -538q47 19 98 21t88.5 -7t76 -13t67.5 1t57 36.5t49 91.5z" />
    <glyph glyph-name="a" unicode="a" horiz-adv-x="555" 
d="M515 58l15 -1l-2 -14l-200 -58h-14l5 117q-28 -55 -75 -86t-102 -31q-56 0 -91 33.5t-35 85.5q0 79 65.5 122.5t212.5 69.5l56 10l7 42q9 65 -6.5 106.5t-59.5 41.5q-53 0 -82 -50t-11 -98l-131 -39q-26 91 51 153t188 62q105 0 159.5 -48.5t38.5 -134.5l-36 -228
q-9 -47 47 -55zM323 138l23 139l-53 -10q-127 -25 -127 -128q0 -31 17 -50.5t46 -19.5q60 0 94 69z" />
    <glyph glyph-name="b" unicode="b" horiz-adv-x="576" 
d="M274 -15q-96 0 -136 65l-116 -65h-14l97 602q4 25 -6 37.5t-40 17.5l-15 2l2 14l215 57h14l-48 -294q24 47 66.5 75t95.5 28q78 0 123 -58t45 -159q0 -138 -79.5 -230t-203.5 -92zM256 27q42 0 76 44t51 107t17 127q0 65 -21.5 105.5t-62.5 40.5q-29 0 -54.5 -17.5
t-40.5 -47.5l-36 -227q-9 -53 9.5 -92.5t61.5 -39.5z" />
    <glyph glyph-name="c" unicode="c" horiz-adv-x="518" 
d="M240 -14q-99 0 -159.5 63t-60.5 167q0 138 85.5 222.5t214.5 84.5q90 0 139.5 -40.5t53.5 -89.5l-131 -34q1 29 -3 57t-22 53.5t-47 25.5q-57 0 -96.5 -72t-39.5 -159q0 -77 39.5 -124.5t104.5 -47.5q49 0 93 20.5t71 62.5l11 -4q-30 -90 -95.5 -137.5t-157.5 -47.5z" />
    <glyph glyph-name="d" unicode="d" horiz-adv-x="592" 
d="M203 -15q-79 0 -131.5 59t-52.5 159q0 142 78 231.5t198 89.5q87 0 119 -55l19 118q4 27 -7 38.5t-39 16.5l-15 2l2 14l215 57h14l-98 -602q-4 -25 7 -37.5t40 -17.5l15 -1l-2 -14l-203 -58h-13l5 102q-53 -102 -151 -102zM276 65q53 0 82 56l37 234q8 51 -9.5 89
t-61.5 38q-65 0 -105.5 -82t-40.5 -185q0 -71 27.5 -110.5t70.5 -39.5z" />
    <glyph glyph-name="e" unicode="e" horiz-adv-x="527" 
d="M312 91q108 0 162 78l11 -4q-62 -179 -246 -179q-99 0 -159 63t-60 166q0 138 85 223t216 85q91 0 139.5 -30t48.5 -77q0 -70 -67.5 -103.5t-218.5 -60.5l-49 -10q3 -69 40 -110t98 -41zM305 495q-53 0 -90 -71t-41 -154l47 10q63 14 103.5 50t40.5 91q0 27 -15 50.5
t-45 23.5z" />
    <glyph glyph-name="f" unicode="f" horiz-adv-x="369" 
d="M23 0l77 481h-83l4 28h83l5 26q14 92 86 143.5t174 51.5q69 0 108.5 -18.5t53.5 -63.5l-120 -60q3 49 -11 81.5t-42 32.5q-37 0 -63 -46.5t-35 -106.5l-6 -40h138l-4 -28h-139l-78 -481h-148z" />
    <glyph glyph-name="g" unicode="g" horiz-adv-x="530" 
d="M563 509l-4 -28h-112q56 -44 56 -118q0 -86 -69.5 -139t-173.5 -53q-65 0 -115 22q-26 -19 -26 -44q0 -15 19.5 -28.5t47.5 -15.5l157 -14q69 -5 107.5 -35.5t38.5 -85.5q0 -83 -87 -132.5t-237 -49.5q-95 0 -155.5 27t-60.5 81q0 45 39.5 74.5t92.5 35.5q-51 31 -51 83
q0 69 100 112q-77 42 -77 128t71 140t177 54q51 0 93 -14h169zM261 200q44 0 74.5 59t30.5 127q0 48 -18.5 78.5t-51.5 30.5q-44 0 -75 -59.5t-31 -127.5q0 -48 18.5 -78t52.5 -30zM168 -20q-39 4 -69 17q-32 -36 -32 -71q0 -52 44.5 -81.5t111.5 -29.5q63 0 112.5 24.5
t49.5 64.5q0 52 -89 62z" />
    <glyph glyph-name="h" unicode="h" horiz-adv-x="632" 
d="M606 90l10 -9q-65 -95 -155 -95q-46 0 -72 22.5t-26 61.5q0 22 6 61l34 216q7 38 -8.5 60.5t-47.5 22.5q-54 0 -107 -45l-62 -385h-150l97 587q4 25 -5 37t-34 17l-21 3l2 14l213 57h14l-48 -296q99 104 193 104q64 0 95 -43.5t20 -115.5l-37 -239q-4 -26 -4 -37
q0 -33 31 -33q26 0 62 35z" />
    <glyph glyph-name="i" unicode="i" horiz-adv-x="340" 
d="M185 571q-38 0 -62 23.5t-24 58.5q0 41 30.5 68.5t73.5 27.5q38 0 62 -22.5t24 -57.5q0 -40 -30.5 -69t-73.5 -29zM144 -14q-46 0 -72 22.5t-26 61.5q0 19 6 61l43 265q8 47 -46 55l-14 1l2 14l213 58h14l-64 -400q-4 -16 -4 -36q0 -16 8 -25t22 -9q26 0 63 36l10 -9
q-65 -95 -155 -95z" />
    <glyph glyph-name="j" unicode="j" horiz-adv-x="273" 
d="M189 571q-38 0 -62 23.5t-24 58.5q0 41 30.5 68.5t73.5 27.5q38 0 62 -22.5t24 -57.5q0 -40 -30.5 -69t-73.5 -29zM-99 -213l-4 12q38 22 59 40.5t44 64.5t34 117l60 374q8 47 -47 55l-14 2l2 14l213 57h14l-71 -450q-16 -114 -78 -181.5t-212 -104.5z" />
    <glyph glyph-name="k" unicode="k" horiz-adv-x="587" 
d="M513 69q14 -29 30.5 -41t48.5 -14l-2 -14l-203 -11l-126 275l-44 -39l-36 -225h-149l93 587q7 47 -46 55l-14 2l2 14l213 57h14l-71 -447l207 177q4 3 14.5 12.5t15 13t14.5 11.5t15 11.5t14 9.5t14.5 8t14 5t15 3.5t14 0t14.5 -3.5l-26 -107q-21 13 -62.5 12.5
t-67.5 -23.5l-44 -38z" />
    <glyph glyph-name="l" unicode="l" horiz-adv-x="317" 
d="M145 -14q-46 0 -72 22.5t-26 61.5q0 19 6 61l72 456q4 26 -4.5 37.5t-34.5 16.5l-21 3l2 14l213 57h14l-93 -590q-4 -18 -4 -37q0 -33 30 -33q27 0 63 35l10 -9q-65 -95 -155 -95z" />
    <glyph glyph-name="m" unicode="m" horiz-adv-x="957" 
d="M931 90l10 -9q-65 -95 -156 -95q-46 0 -72 22.5t-26 61.5q0 22 6 61l35 216q6 38 -9.5 60.5t-47.5 22.5q-54 0 -110 -48q0 -6 -2 -18l-57 -364h-149l54 347q6 38 -9.5 60.5t-46.5 22.5q-54 0 -108 -47l-61 -383h-149l62 396q4 25 -5 37t-34 16l-21 3l2 14l214 58h14
l-17 -107q99 106 195 106q53 0 84.5 -30t34.5 -83q104 113 202 113q64 0 95.5 -43.5t19.5 -115.5l-38 -239q-4 -28 -4 -37q0 -33 31 -33q26 0 63 35z" />
    <glyph glyph-name="n" unicode="n" horiz-adv-x="636" 
d="M610 90l10 -9q-65 -95 -155 -95q-46 0 -72 22.5t-26 61.5q0 22 6 61l34 216q7 38 -8.5 60.5t-47.5 22.5q-54 0 -109 -48l-60 -382h-150l63 396q4 25 -5 37t-34 16l-21 3l2 14l213 58h14l-17 -108q100 107 196 107q64 0 95 -43.5t20 -115.5l-37 -239q-4 -28 -4 -37
q0 -33 31 -33q26 0 62 35z" />
    <glyph glyph-name="o" unicode="o" horiz-adv-x="577" 
d="M245 -15q-100 0 -163 62t-63 166q0 137 88.5 224t223.5 87q100 0 163 -62t63 -167q0 -137 -88 -223.5t-224 -86.5zM265 13q43 0 75.5 48t46.5 111.5t14 126.5q0 88 -23.5 142.5t-64.5 54.5q-42 0 -74.5 -48t-47.5 -111.5t-15 -125.5q0 -89 24 -143.5t65 -54.5z" />
    <glyph glyph-name="p" unicode="p" 
d="M2 -197l94 593q7 46 -40 53l-21 3l2 14l213 58h14l-15 -100q25 46 68 73t95 27q77 0 123 -59.5t46 -162.5q0 -134 -76.5 -225.5t-196.5 -91.5q-43 0 -74.5 15.5t-44.5 41.5l-38 -239h-149zM279 27q64 0 104 88.5t40 188.5q0 63 -22.5 101.5t-65.5 38.5q-62 0 -92 -56
l-35 -230q-8 -55 10 -93t61 -38z" />
    <glyph glyph-name="q" unicode="q" horiz-adv-x="580" 
d="M307 -197l45 282q-54 -100 -160 -100q-79 0 -126.5 57.5t-47.5 157.5q0 138 80.5 231t206.5 93q96 0 140 -62l110 62h14l-114 -721h-148zM265 65q29 0 54.5 16.5t37.5 39.5l38 236q7 51 -11 88t-62 37q-64 0 -104.5 -82t-40.5 -184q0 -73 23.5 -112t64.5 -39z" />
    <glyph glyph-name="r" unicode="r" horiz-adv-x="418" 
d="M413 524q23 0 41 -9l-30 -134q-21 21 -66 21q-31 0 -65 -17.5t-59 -49.5l-52 -335h-149l62 396q8 47 -46 55l-14 1l2 14l213 58h14l-23 -147q34 73 79.5 110t92.5 37z" />
    <glyph glyph-name="s" unicode="s" horiz-adv-x="475" 
d="M204 -14q-80 0 -139 30.5t-80 74.5l111 70q8 -68 41 -107.5t83 -39.5q38 0 64 24t26 63q0 36 -27 59.5t-66 38t-77.5 30.5t-65.5 48t-27 80q0 79 65 122.5t160 43.5q72 0 123 -24.5t69 -69.5l-100 -64q-11 61 -39.5 95.5t-69.5 34.5q-38 0 -60 -22t-22 -57
q0 -32 27.5 -52.5t66.5 -34t78.5 -29t67 -49t27.5 -83.5q0 -85 -70 -133.5t-166 -48.5z" />
    <glyph glyph-name="t" unicode="t" horiz-adv-x="366" 
d="M244 481l-54 -339q-6 -39 11 -66t53 -27q25 0 66 25l7 -8q-68 -80 -164 -80q-67 0 -100.5 40.5t-22.5 110.5l55 344h-55l2 14l214 153h14l-22 -139h144l-4 -28h-144z" />
    <glyph glyph-name="u" unicode="u" horiz-adv-x="619" 
d="M532 113q-4 -25 5.5 -37t33.5 -16l22 -3l-2 -14l-201 -58h-14l5 101q-84 -100 -187 -100q-67 0 -101.5 45t-23.5 114l39 240q4 14 4 37q0 33 -30 33q-27 0 -63 -35l-10 9q65 95 156 95q46 0 72 -22.5t26 -61.5q0 -15 -7 -61l-35 -217q-6 -37 10 -60t49 -23q52 0 106 45
l60 385h149z" />
    <glyph glyph-name="v" unicode="v" horiz-adv-x="474" 
d="M203 -15l-147 462q-8 26 -20 36.5t-41 11.5l2 14l194 11l109 -351l100 168q37 61 -46 135l78 57q44 -29 47.5 -74t-25.5 -86l-241 -384h-10z" />
    <glyph glyph-name="w" unicode="w" horiz-adv-x="800" 
d="M758 529q44 -29 47.5 -74t-25.5 -86l-241 -384h-10l-106 333l-210 -333h-10l-147 462q-8 26 -20 36.5t-41 11.5l2 14l194 11l109 -351l112 183l-30 95q-8 26 -20 36.5t-41 11.5l3 14l193 11l109 -351l100 168q37 60 -45 135z" />
    <glyph glyph-name="x" unicode="x" horiz-adv-x="528" 
d="M531 409q-19 9 -40.5 11.5t-46.5 -6t-44 -31.5l-61 -75l109 -239q13 -27 30.5 -40t48.5 -15l-2 -14l-229 -11l-91 196l-85 -106q-42 -53 -73 -71.5t-76 -7.5l26 107q24 -16 64 -11.5t67 37.5l65 78l-106 226q-13 29 -30.5 42t-48.5 16l3 14l231 11l85 -186l81 103
q43 54 74 73t76 6z" />
    <glyph glyph-name="y" unicode="y" horiz-adv-x="474" 
d="M-27 -212q-40 0 -83 19l66 140q55 -45 112 -45q68 0 112 76l18 28l-142 441q-9 26 -21 36.5t-40 11.5l2 14l195 11l108 -356l101 173q37 60 -47 135l78 57q44 -29 47.5 -74t-25.5 -86l-237 -384q-61 -99 -114.5 -148t-129.5 -49z" />
    <glyph glyph-name="z" unicode="z" horiz-adv-x="468" 
d="M-20 0l-6 11l379 390h-188q-38 0 -62 -20.5t-42 -70.5h-13l39 199h397l4 -13l-386 -394q39 21 84 22.5t79 -7t66 -11.5t56.5 17t40.5 70l12 -5l-8 -38q-16 -70 -40 -106t-52 -43t-68.5 -3t-81.5 14t-98.5 8.5t-111.5 -20.5z" />
    <glyph glyph-name="uni00A0" unicode="&#xa0;" horiz-adv-x="200" 
 />
    <glyph glyph-name="K.ss05" horiz-adv-x="760" 
d="M765 654q-65 -5 -151 -72l-209 -164l212 -315q53 -83 109 -89l-2 -14h-242q-3 21 -29 63l-172 260l-39 -243q-9 -61 76 -66l-2 -14h-328l2 14q87 6 97 66l81 508q5 30 -14 47t-62 19l2 14h328l-2 -14q-44 -2 -67.5 -16t-28.5 -46l-37 -230l298 231q39 31 30 46.5
t-65 14.5l2 14h215z" />
    <glyph glyph-name="M.ss11" horiz-adv-x="976" 
d="M845 78q-2 -28 15 -42.5t66 -21.5l-3 -14h-333l2 14q52 7 74 22t24 42l23 438l-323 -515h-46l-125 510l-117 -433q-7 -25 12 -41t69 -23l-2 -14h-209l3 14q50 6 71 21t28 43l139 511q8 31 -8.5 45t-61.5 20l4 14h214l109 -491l308 491h183v-14q-45 -6 -66.5 -20
t-23.5 -45z" />
    <glyph glyph-name="R.ss12" horiz-adv-x="734" 
d="M603 87q45 -66 103 -73l-2 -14h-247q0 28 -20 60l-162 226l-33 -206q-6 -30 12 -45t64 -21l-2 -14h-329l3 14q49 7 70.5 21t26.5 45l80 508q5 30 -13 45t-63 21l2 14h329q111 0 173 -45.5t62 -129.5q0 -76 -56 -128.5t-157 -70.5zM370 640h-38l-52 -326h42
q82 0 128.5 54.5t46.5 125.5q0 146 -127 146z" />
    <glyph glyph-name="a.ss01" horiz-adv-x="592" 
d="M572 524l-67 -411q-4 -25 7 -37.5t40 -17.5l15 -1l-2 -14l-203 -58h-13l5 102q-53 -102 -151 -102q-79 0 -131.5 59t-52.5 159q0 142 78 231.5t198 89.5q108 0 151 -62l112 62h14zM276 65q53 0 82 56l37 234q8 51 -9.5 89t-61.5 38q-65 0 -105.5 -82t-40.5 -185
q0 -71 27.5 -110.5t70.5 -39.5z" />
    <glyph glyph-name="g.ss02" horiz-adv-x="584" 
d="M210 -212q-89 0 -153.5 31.5t-86.5 86.5l123 52q7 -66 42 -103.5t83 -37.5q95 0 116 135l22 135q-52 -102 -152 -102q-78 0 -131 58t-53 159q0 141 80 231.5t207 90.5q97 0 141 -62l111 62h14l-87 -537q-17 -105 -91.5 -152t-184.5 -47zM278 65q25 0 47 15.5t34 40.5
l38 236q8 50 -10 87.5t-62 37.5q-64 0 -105 -81.5t-41 -183.5q0 -72 28 -112t71 -40z" />
    <glyph glyph-name="g.ss03" horiz-adv-x="536" 
d="M580 509l-5 -28h-112q56 -44 56 -117q0 -86 -70 -139.5t-174 -53.5q-89 0 -145 39l-18 -113l219 1q68 0 115 -30t47 -89q0 -83 -93.5 -137t-236.5 -54q-98 0 -155.5 29t-57.5 84q0 46 35 73.5t86 35.5l35 221q-37 39 -37 98q0 85 70.5 139.5t176.5 54.5q52 0 94 -14h170z
M280 197q37 0 62.5 60.5t25.5 128.5q0 48 -16 78.5t-44 30.5q-37 0 -63 -59.5t-26 -127.5q0 -48 16.5 -79.5t44.5 -31.5zM295 -9l-203 1q-23 -34 -23 -67q0 -52 44 -81t110 -29q71 0 120.5 31t49.5 81q0 64 -98 64z" />
    <glyph glyph-name="g.ss04" horiz-adv-x="580" 
d="M6 -197l4 28h301l40 254q-51 -93 -160 -100q-74 -5 -123.5 55t-49.5 162q0 136 80.5 229t206.5 93q96 0 140 -62l110 60h14l-103 -649q-4 -31 -27 -50.5t-55 -19.5h-378zM265 65q29 0 54.5 16.5t37.5 39.5l38 236q7 51 -10.5 88t-61.5 37q-64 0 -105 -81.5t-41 -183.5
q0 -73 23.5 -112.5t64.5 -39.5z" />
    <glyph glyph-name="k.ss05" horiz-adv-x="575" 
d="M501 67q14 -27 30.5 -39t48.5 -14l-2 -14l-202 -11l-152 285l-43 -274h-149l93 587q7 47 -46 55l-14 2l2 14l213 57h14l-68 -431l215 162q7 5 22 17t22.5 17.5t20.5 15t22 13t20.5 7.5t21.5 4t20 -4l-26 -107q-21 13 -63.5 12t-70.5 -22l-79 -56z" />
    <glyph glyph-name="r.ss06" horiz-adv-x="386" 
d="M14 0l69 439q4 30 28 50t55 20h255l-5 -28h-178l-75 -481h-149z" />
    <glyph glyph-name="t.ss07" horiz-adv-x="327" 
d="M88 0q-31 0 -47 19.5t-11 50.5l65 411h-55l2 14l214 153h14l-22 -139h110l-4 -28h-111l-71 -453h110l-5 -28h-189z" />
    <glyph glyph-name="y.ss08" horiz-adv-x="474" 
d="M-35 -197l3 13l231 198l-143 433q-9 26 -21 36.5t-40 11.5l2 14l194 11l110 -353l100 170q37 61 -46 135l77 57q44 -29 48 -74t-25 -86l-232 -368l-108 -198h-150z" />
    <glyph glyph-name="y.ss09" horiz-adv-x="610" 
d="M448 509h149l-83 -522q-17 -105 -91.5 -152t-183.5 -47q-90 0 -154.5 31.5t-86.5 86.5l123 52q7 -66 42 -103.5t83 -37.5q93 0 114 136l21 130q-84 -97 -185 -97q-67 0 -101.5 45t-23.5 114l37 240q4 14 4 37q0 33 -30 33q-27 0 -63 -35l-10 9q65 95 156 95
q46 0 72 -22.5t26 -61.5q0 -15 -7 -61l-34 -217q-6 -37 10.5 -60t48.5 -23q54 0 106 45z" />
    <glyph glyph-name="y.ss10" horiz-adv-x="610" 
d="M35 -197l5 28h300l40 251q-82 -96 -184 -96q-67 0 -101.5 45t-23.5 114l37 240q4 14 4 37q0 33 -30 33q-27 0 -63 -35l-10 9q65 95 156 95q46 0 72 -22.5t26 -61.5q0 -15 -7 -61l-34 -217q-6 -37 10.5 -60t48.5 -23q56 0 106 47l61 383h149l-102 -636q-4 -31 -27 -50.5
t-54 -19.5h-379z" />
    </font>
</defs>
</svg>
