<?xml version="1.0" standalone="no"?>
<!DOCTYPE svg PUBLIC "-//W3C//DTD SVG 1.1//EN" "http://www.w3.org/Graphics/SVG/1.1/DTD/svg11.dtd" >
<svg xmlns="http://www.w3.org/2000/svg" xmlns:xlink="http://www.w3.org/1999/xlink" version="1.1">
<metadata>
Created by FontForge 20170731 at Fri Jun  7 02:30:10 2019
 By Aleksey,,,
Copyright (c) 2018 by Martin Va'cha. All rights reserved.
</metadata>
<defs>
<font id="RecklessNeueTRIAL-Regular" horiz-adv-x="576" >
  <font-face 
    font-family="Reckless Neue TRIAL"
    font-weight="400"
    font-stretch="normal"
    units-per-em="1000"
    panose-1="0 0 5 0 0 0 0 0 0 0"
    ascent="800"
    descent="-200"
    x-height="501"
    cap-height="668"
    bbox="4 -219.111 1044 810"
    underline-thickness="50"
    underline-position="-200"
    unicode-range="U+000D-00A0"
  />
<missing-glyph horiz-adv-x="1081" 
d="M44 309q0 201 141 347t341 154v-1000q-99 3 -188 44t-153.5 107.5t-102.5 157.5t-38 190zM562 806q62 -21 105.5 -165t43.5 -332t-43.5 -331t-105.5 -165v993zM886 309q0 -168 -69.5 -301.5t-178.5 -178.5q51 66 80.5 194.5t29.5 285.5t-29.5 286t-80.5 196
q109 -46 178.5 -180.5t69.5 -301.5zM1044 309q0 -151 -83.5 -276.5t-220.5 -182.5q84 73 133.5 195t49.5 264q0 141 -49.5 264t-133.5 196q137 -58 220.5 -183.5t83.5 -276.5z" />
    <glyph glyph-name=".notdef" horiz-adv-x="1081" 
d="M44 309q0 201 141 347t341 154v-1000q-99 3 -188 44t-153.5 107.5t-102.5 157.5t-38 190zM562 806q62 -21 105.5 -165t43.5 -332t-43.5 -331t-105.5 -165v993zM886 309q0 -168 -69.5 -301.5t-178.5 -178.5q51 66 80.5 194.5t29.5 285.5t-29.5 286t-80.5 196
q109 -46 178.5 -180.5t69.5 -301.5zM1044 309q0 -151 -83.5 -276.5t-220.5 -182.5q84 73 133.5 195t49.5 264q0 141 -49.5 264t-133.5 196q137 -58 220.5 -183.5t83.5 -276.5z" />
    <glyph glyph-name=".null" horiz-adv-x="0" 
 />
    <glyph glyph-name="nonmarkingreturn" horiz-adv-x="333" 
 />
    <glyph glyph-name="CR" unicode="&#xd;" horiz-adv-x="600" 
 />
    <glyph glyph-name="space" unicode=" " horiz-adv-x="234" 
 />
    <glyph glyph-name="comma" unicode="," horiz-adv-x="236" 
d="M53 -116v14q38 8 64.5 35.5t27.5 69.5q-16 -13 -37 -13q-26 0 -41 16t-15 43q0 26 18.5 43.5t45.5 17.5q31 0 49.5 -21t18.5 -57q0 -60 -35 -101t-96 -47z" />
    <glyph glyph-name="hyphen" unicode="-" horiz-adv-x="307" 
d="M28 265v42h250v-42h-250z" />
    <glyph glyph-name="period" unicode="." horiz-adv-x="226" 
d="M113 -12q-25 0 -43 18t-18 43t18 43t43 18q27 0 44 -17.5t17 -43.5q0 -25 -18 -43t-43 -18z" />
    <glyph glyph-name="zero" unicode="0" horiz-adv-x="615" 
d="M308 -15q-123 0 -191.5 99t-68.5 250t68.5 250t191.5 99q122 0 190.5 -99t68.5 -250q0 -150 -68.5 -249.5t-190.5 -99.5zM323 13q63 0 105.5 79.5t42.5 203.5q0 56 -9.5 114.5t-29 115.5t-56.5 93t-84 36q-65 0 -106.5 -79t-41.5 -203q0 -61 9.5 -120t29 -115t56 -90.5
t84.5 -34.5z" />
    <glyph glyph-name="one" unicode="1" horiz-adv-x="396" 
d="M61 0v14q63 3 86.5 17.5t23.5 57.5v479h-110v14q123 31 186 90h14v-583q0 -43 20 -57.5t70 -17.5v-14h-290z" />
    <glyph glyph-name="two" unicode="2" horiz-adv-x="529" 
d="M27 0v14l169 186q49 53 78.5 89.5t56.5 93t27 108.5q0 59 -36 94.5t-94 35.5q-54 0 -99 -32.5t-65 -89.5l-11 5q14 76 70.5 127t143.5 51q85 0 136.5 -49.5t51.5 -131.5q0 -51 -19.5 -98t-63 -96t-90 -91.5t-123.5 -107.5l-36 -30h217q65 0 89 18.5t42 81.5h14l-28 -178
h-430z" />
    <glyph glyph-name="three" unicode="3" horiz-adv-x="531" 
d="M258 352q109 -4 172 -49t63 -127q0 -88 -64 -139t-173 -51q-87 0 -150.5 40t-76.5 121l92 27q8 -73 47.5 -116.5t99.5 -43.5q58 0 93.5 42.5t35.5 113.5q0 77 -55.5 122.5t-157.5 44.5v16q86 9 134 51t48 98q0 51 -36.5 85t-91.5 34q-54 0 -100.5 -31t-65.5 -84l-12 5
q15 71 72 121t144 50q85 0 135 -45t50 -113q0 -135 -203 -172z" />
    <glyph glyph-name="four" unicode="4" horiz-adv-x="570" 
d="M227 0v14q64 3 87 17.5t23 57.5v99h-313v18l335 462h68v-450h115v-30h-115v-99q0 -42 20.5 -57t69.5 -18v-14h-290zM70 218h267v369z" />
    <glyph glyph-name="five" unicode="5" horiz-adv-x="540" 
d="M252 -14q-87 0 -151.5 40t-77.5 121l93 27q5 -73 48.5 -116.5t103.5 -43.5q64 0 100.5 46.5t36.5 124.5q0 85 -46 136t-124 51q-80 0 -150 -51l-9 4l57 343h333v-80h-318l-38 -226q66 68 167 68q97 0 160 -61t63 -156q0 -102 -66 -164.5t-182 -62.5z" />
    <glyph glyph-name="six" unicode="6" 
d="M327 429q89 0 148 -59t59 -157q0 -101 -64 -164.5t-170 -63.5q-121 0 -186.5 89t-65.5 250q0 99 25 172t67 112t86.5 57t91.5 18q69 0 127.5 -31.5t79.5 -90.5l-96 -35q-10 58 -46.5 93.5t-81.5 35.5q-66 0 -110 -80.5t-44 -234.5v-4q33 46 82 69.5t98 23.5zM310 13
q61 0 95 52t34 128q0 87 -45 136t-112 49q-34 0 -71.5 -17t-62.5 -51q4 -128 45.5 -212.5t116.5 -84.5z" />
    <glyph glyph-name="seven" unicode="7" horiz-adv-x="521" 
d="M166 0q-2 92 19.5 178.5t66 162.5t84.5 129t98 118h-249q-53 0 -81 -28t-45 -95h-14l29 203h439v-14q-55 -71 -95 -134t-78 -145t-57 -177t-17 -198h-100z" />
    <glyph glyph-name="eight" unicode="8" horiz-adv-x="566" 
d="M350 373q79 -37 122 -79.5t43 -116.5q0 -83 -62.5 -137.5t-167.5 -54.5q-106 0 -170 47.5t-64 126.5q0 121 158 175q-63 31 -97.5 69t-34.5 100q0 77 56.5 128.5t149.5 51.5q91 0 148.5 -45.5t57.5 -112.5q0 -53 -36.5 -92t-102.5 -60zM165 544q0 -30 11.5 -54
t37.5 -43.5t47 -31t60 -29.5q44 25 60 56t16 79q0 59 -32.5 96.5t-81.5 37.5q-52 0 -85 -31t-33 -80zM285 13q59 0 98 37t39 95q0 27 -10 49.5t-23.5 38t-38 31t-44 25t-50.5 23.5q-12 5 -18 8q-57 -31 -74.5 -67.5t-17.5 -90.5q0 -64 40 -106.5t99 -42.5z" />
    <glyph glyph-name="nine" unicode="9" 
d="M276 683q121 0 186.5 -89t65.5 -250q0 -99 -25 -172t-67 -112t-86.5 -57t-91.5 -18q-69 0 -127 31.5t-79 90.5l95 35q10 -58 46.5 -93.5t81.5 -35.5q66 0 110 80.5t44 234.5v3q-32 -46 -81 -69t-99 -23q-89 0 -148 59t-59 157q0 101 64 164.5t170 63.5zM294 290
q34 0 71.5 17t62.5 51q-4 128 -45.5 212.5t-116.5 84.5q-60 0 -94.5 -51.5t-34.5 -127.5q0 -87 45 -136.5t112 -49.5z" />
    <glyph glyph-name="A" unicode="A" horiz-adv-x="744" 
d="M631 97q20 -45 41.5 -62t62.5 -21v-14h-257v14q51 4 61.5 21t-9.5 62l-53 123h-286l-52 -123q-19 -45 -8 -62t63 -21v-14h-185v14q39 4 60 21t40 62l250 586h16zM203 248h262l-132 310z" />
    <glyph glyph-name="B" unicode="B" horiz-adv-x="660" 
d="M38 0v14q50 3 70 17.5t20 57.5v491q0 41 -20.5 56t-69.5 18v14h286q112 0 176 -42.5t64 -116.5q0 -62 -43 -104t-118 -53q96 -10 151.5 -56t55.5 -115q0 -84 -64 -132.5t-175 -48.5h-333zM219 361h104q67 0 105 39t38 108q0 62 -43.5 97t-119.5 35h-84v-279zM303 28h51
q72 0 115 42t43 111t-50 110.5t-138 41.5h-105v-242q0 -63 84 -63z" />
    <glyph glyph-name="C" unicode="C" horiz-adv-x="665" 
d="M358 -15q-136 0 -225 95.5t-89 237.5q0 161 89 263t237 102q92 0 157 -39.5t85 -107.5l-88 -28q-16 68 -60.5 108t-105.5 40q-97 0 -157.5 -82.5t-60.5 -214.5q0 -134 71.5 -216.5t185.5 -82.5q79 0 137 40t81 108l13 -3q-26 -102 -97.5 -161t-172.5 -59z" />
    <glyph glyph-name="D" unicode="D" horiz-adv-x="719" 
d="M325 668q91 0 161.5 -25t112 -68.5t62.5 -98.5t21 -119q0 -83 -29.5 -152t-78 -113t-109 -68t-125.5 -24h-302v14q50 3 70 17.5t20 57.5v491q0 41 -20.5 56t-69.5 18v14h287zM340 28q113 0 179 81t66 225q0 78 -30.5 146.5t-95 114t-151.5 45.5h-89v-553q0 -35 26 -47
t95 -12z" />
    <glyph glyph-name="E" unicode="E" horiz-adv-x="646" 
d="M577 180h14l-26 -180h-527v14q50 3 70 17.5t20 57.5v491q0 41 -20.5 56t-69.5 18v14h515l27 -179h-14q-35 151 -164 151h-183v-283h127q52 0 69 21.5t19 73.5h14v-219h-14q-2 52 -19 74t-69 22h-127v-240q0 -61 51 -61h144q128 0 163 152z" />
    <glyph glyph-name="F" unicode="F" horiz-adv-x="609" 
d="M553 668l26 -179h-14q-35 151 -163 151h-183v-283h127q52 0 69 21.5t19 73.5h14v-219h-14q-2 52 -19.5 74t-68.5 22h-127v-237q0 -46 24.5 -60.5t94.5 -17.5v-14h-300v14q50 3 70 17.5t20 57.5v491q0 41 -20.5 56t-69.5 18v14h515z" />
    <glyph glyph-name="G" unicode="G" horiz-adv-x="744" 
d="M370 -15q-142 0 -234 96t-92 237q0 163 92 264t247 101q94 0 164.5 -40.5t90.5 -106.5l-88 -28q-17 66 -67 107t-115 41q-99 0 -163 -87t-63 -223q1 -138 75 -234.5t185 -96.5q91 0 141 49v174q0 42 -21 62t-74 23v14h276v-14q-90 -6 -90 -85v-133q-38 -52 -107.5 -86
t-156.5 -34z" />
    <glyph glyph-name="H" unicode="H" horiz-adv-x="785" 
d="M747 654q-49 -3 -69.5 -18t-20.5 -56v-491q0 -42 20.5 -56.5t69.5 -18.5v-14h-270v14q49 4 69.5 18.5t20.5 56.5v239h-348v-239q0 -42 20 -56.5t69 -18.5v-14h-270v14q50 4 70 18.5t20 56.5v491q0 41 -20.5 56t-69.5 18v14h270v-14q-48 -3 -68.5 -18t-20.5 -56v-224h348
v224q0 41 -20.5 56t-69.5 18v14h270v-14z" />
    <glyph glyph-name="I" unicode="I" horiz-adv-x="347" 
d="M38 0v14q50 4 70 18.5t20 56.5v491q0 41 -20.5 56t-69.5 18v14h270v-14q-48 -3 -68.5 -18t-20.5 -56v-491q0 -42 20 -56.5t69 -18.5v-14h-270z" />
    <glyph glyph-name="J" unicode="J" horiz-adv-x="525" 
d="M497 668v-14q-49 -2 -69 -18t-20 -59v-391q0 -99 -52 -150t-147 -51q-83 0 -134 41t-63 111l98 26q4 -69 33 -109.5t74 -40.5q47 0 74.5 38t27.5 111v415q0 43 -20.5 59t-69.5 18v14h268z" />
    <glyph glyph-name="K" unicode="K" horiz-adv-x="743" 
d="M619 81q20 -28 50 -47t62 -20v-14h-178q-3 22 -33 64l-208 295l-93 -87v-183q0 -42 20 -56.5t69 -18.5v-14h-270v14q50 4 70 18.5t20 56.5v491q0 41 -20.5 56t-69.5 18v14h270v-14q-48 -3 -68.5 -18t-20.5 -56v-270l304 285q32 30 20.5 44t-68.5 15v14h210v-14
q-62 -3 -123 -61l-184 -172z" />
    <glyph glyph-name="L" unicode="L" horiz-adv-x="586" 
d="M543 180h14l-27 -180h-492v14q50 3 70 18.5t20 56.5v491q0 40 -20 55.5t-70 18.5v14h270v-14q-49 -3 -69 -18.5t-20 -55.5v-491q0 -61 51 -61h109q129 0 164 152z" />
    <glyph glyph-name="M" unicode="M" horiz-adv-x="926" 
d="M888 668v-14q-50 -2 -70 -20t-20 -62v-490q0 -34 20 -48.5t70 -19.5v-14h-270v14q49 5 69.5 19.5t20.5 48.5v473l-269 -555h-23l-260 563v-481q0 -34 20 -48.5t71 -19.5v-14h-208v14q49 5 69 19.5t20 48.5v490q0 44 -19.5 62t-70.5 20v14h169l256 -554l268 554h157z" />
    <glyph glyph-name="N" unicode="N" horiz-adv-x="746" 
d="M485 668h223v-14q-52 -3 -71 -20.5t-19 -62.5v-586h-24l-431 585v-473q0 -45 22 -62t83 -21v-14h-223v14q52 4 71 21t19 62v508q-42 47 -97 49v14h165l387 -528v431q0 45 -22.5 62.5t-82.5 20.5v14z" />
    <glyph glyph-name="O" unicode="O" horiz-adv-x="750" 
d="M377 -15q-150 0 -241.5 95t-91.5 240q0 160 95 261.5t243 101.5q150 0 240.5 -95t90.5 -240q0 -160 -94.5 -261.5t-241.5 -101.5zM395 13q100 0 160.5 86t60.5 222q0 143 -71.5 238.5t-182.5 95.5q-100 1 -160 -85t-61 -223q0 -143 72 -238.5t182 -95.5z" />
    <glyph glyph-name="P" unicode="P" horiz-adv-x="611" 
d="M320 668q121 0 191 -47t70 -140q0 -92 -70.5 -139t-190.5 -47h-101v-206q0 -42 20 -57t69 -18v-14h-270v14q50 3 70 17.5t20 57.5v491q0 41 -20.5 56t-69.5 18v14h282zM309 323q83 0 128.5 43t45.5 115t-45 115.5t-129 43.5h-90v-317h90z" />
    <glyph glyph-name="Q" unicode="Q" horiz-adv-x="750" 
d="M397 -14q18 -50 54 -80.5t79 -38.5t78 -7.5t67 6.5l-16 -85q-41 -1 -79.5 7t-80 28.5t-74.5 63.5t-49 105q-150 0 -241 95t-91 240q0 160 95 261.5t243 101.5q150 0 240.5 -95t90.5 -240q0 -154 -88 -254t-228 -108zM141 347q0 -143 72 -238.5t182 -95.5q100 0 160.5 86
t60.5 222q0 143 -71.5 238.5t-182.5 95.5q-100 1 -160 -85t-61 -223z" />
    <glyph glyph-name="R" unicode="R" horiz-adv-x="686" 
d="M578 68q16 -22 44 -37t55 -17v-14h-168q-4 13 -29 51l-179 244h-82v-206q0 -42 20 -57t69 -18v-14h-270v14q50 3 70 17.5t20 57.5v491q0 41 -20.5 56t-69.5 18v14h282q121 0 191 -47t70 -140q0 -74 -47.5 -119.5t-131.5 -60.5zM219 640v-317h90q83 0 128.5 43t45.5 115
t-45 115.5t-129 43.5h-90z" />
    <glyph glyph-name="S" unicode="S" horiz-adv-x="579" 
d="M296 -14q-93 0 -161.5 43t-87.5 116l85 25q14 -70 63 -113t113 -43q62 0 100.5 34.5t38.5 90.5q0 41 -20.5 71.5t-54 49t-73.5 34t-80 32.5t-73.5 38t-54 56.5t-20.5 82.5q0 80 61 129.5t161 49.5q82 0 147.5 -38.5t87.5 -104.5l-85 -26q-16 63 -62 102t-100 39
q-59 0 -95.5 -31.5t-36.5 -81.5q0 -43 28.5 -74t71 -48t92.5 -38t92.5 -42.5t71 -62.5t28.5 -97q0 -88 -64 -140.5t-173 -52.5z" />
    <glyph glyph-name="T" unicode="T" horiz-adv-x="666" 
d="M610 668l26 -179h-14q-35 151 -163 151h-81v-551q0 -41 20 -56.5t70 -18.5v-14h-270v14q50 3 70 18.5t20 56.5v551h-81q-128 0 -163 -151h-14l26 179h554z" />
    <glyph glyph-name="U" unicode="U" horiz-adv-x="738" 
d="M505 668h207v-14q-49 -3 -69.5 -18t-20.5 -56v-342q0 -115 -65.5 -183.5t-175.5 -68.5q-123 0 -194 67.5t-71 184.5v342q0 41 -20.5 56t-69.5 18v14h270v-14q-49 -3 -69.5 -18t-20.5 -56v-342q0 -96 55.5 -152t150.5 -56q84 0 133 56.5t49 151.5v342q0 41 -20.5 56
t-68.5 18v14z" />
    <glyph glyph-name="V" unicode="V" horiz-adv-x="741" 
d="M368 -15l-257 586q-20 45 -41.5 62.5t-61.5 20.5v14h257v-14q-52 -3 -62.5 -20.5t9.5 -62.5l197 -461l194 461q20 45 8.5 62.5t-63.5 20.5v14h185v-14q-39 -4 -59.5 -21t-40.5 -62l-250 -586h-15z" />
    <glyph glyph-name="W" unicode="W" horiz-adv-x="1012" 
d="M831 668h172v-14q-38 -6 -55.5 -21.5t-34.5 -61.5l-214 -586h-14l-179 483l-173 -483h-14l-217 586q-15 41 -33 60.5t-59 22.5v14h225v-14q-45 -4 -52.5 -23.5t9.5 -59.5l161 -449l138 386l-23 63q-15 42 -33.5 61t-58.5 22v14h225v-14q-44 -4 -51.5 -23.5t9.5 -59.5
l161 -452l163 452q7 21 9.5 32t-0.5 24t-18 19t-43 8v14z" />
    <glyph glyph-name="X" unicode="X" horiz-adv-x="700" 
d="M575 97q32 -45 54.5 -62t56.5 -21v-14h-250v14q50 3 56.5 20t-25.5 63l-142 205l-149 -205q-34 -45 -28.5 -62.5t55.5 -20.5v-14h-190v14q42 4 68.5 21t59.5 62l169 227l-171 247q-30 45 -53 62t-58 21v14h250v-14q-50 -3 -56 -20t25 -63l124 -179l131 179q34 46 28.5 63
t-56.5 20v14h190v-14q-41 -4 -67.5 -21t-59.5 -62l-150 -202z" />
    <glyph glyph-name="Y" unicode="Y" horiz-adv-x="639" 
d="M185 0v14q48 3 68 18t20 57v221l-166 261q-29 45 -50 62t-53 21v14h246v-14q-52 -3 -60 -20t21 -63l142 -225l141 225q29 46 18.5 63t-67.5 20v14h190v-14q-35 -4 -57 -20.5t-51 -62.5l-165 -261v-221q0 -42 20 -57t68 -18v-14h-265z" />
    <glyph glyph-name="Z" unicode="Z" horiz-adv-x="598" 
d="M550 180h14l-26 -180h-505v14l412 626h-209q-128 0 -163 -151h-14l26 179h476v-14l-412 -626h238q128 0 163 152z" />
    <glyph glyph-name="a" unicode="a" horiz-adv-x="519" 
d="M487 41l24 -1v-14l-145 -41h-14v129q-22 -60 -67 -94.5t-102 -34.5q-59 0 -95.5 36t-36.5 94q0 72 51 111.5t172 62.5l78 15v34q0 70 -31 110t-86 40q-58 0 -84.5 -48.5t-0.5 -102.5l-78 -27q-39 78 18.5 142t162.5 64q84 0 133 -48.5t49 -131.5v-243q0 -26 12.5 -38
t39.5 -14zM352 142v133l-75 -15q-72 -14 -106 -43t-34 -78q0 -42 25 -69.5t64 -27.5q38 0 72 27.5t54 72.5z" />
    <glyph glyph-name="b" unicode="b" horiz-adv-x="580" 
d="M336 516q90 0 145.5 -72t55.5 -177q0 -133 -67.5 -207.5t-167.5 -74.5q-86 0 -137 70l-59 -70h-14v614q0 26 -12 38.5t-40 13.5h-24v14l145 41h14v-313q21 53 63.5 88t97.5 35zM311 19q59 0 98 61t39 149q0 58 -14.5 109t-48.5 87.5t-83 36.5q-38 0 -75 -30.5t-52 -70.5
v-188q0 -61 35.5 -107.5t100.5 -46.5z" />
    <glyph glyph-name="c" unicode="c" horiz-adv-x="502" 
d="M272 -14q-102 0 -165.5 74t-63.5 185q0 117 65 194t174 77q71 0 119.5 -37.5t56.5 -83.5l-79 -25q-9 48 -36 83t-74 35q-62 0 -101.5 -57t-39.5 -143q0 -103 49 -166.5t131 -63.5q46 0 86 24t66 71l12 -3q-20 -76 -72.5 -120t-127.5 -44z" />
    <glyph glyph-name="d" unicode="d" horiz-adv-x="566" 
d="M245 -15q-90 0 -146 72t-56 177q0 133 66.5 207.5t162.5 74.5q86 0 133 -65v148q0 49 -52 52h-24v14l145 41h14v-613q0 -26 12.5 -38t39.5 -14l24 -1v-14l-145 -41h-14v122q-20 -55 -64 -88.5t-96 -33.5zM278 43q42 0 76.5 27t50.5 71v187q0 61 -35.5 108t-99.5 47
q-59 0 -98.5 -61.5t-39.5 -149.5q0 -58 14.5 -108t48.5 -85.5t83 -35.5z" />
    <glyph glyph-name="e" unicode="e" horiz-adv-x="516" 
d="M315 57q93 0 146 85l11 -5q-18 -66 -71.5 -108.5t-128.5 -42.5q-105 0 -167 72t-62 182q0 123 66 199.5t172 76.5q89 0 139.5 -60.5t51.5 -158.5h-343q-1 -6 -1 -19q-4 -101 48 -161t139 -60zM266 488q-52 0 -87.5 -45t-46.5 -118h249q-2 66 -33 114.5t-82 48.5z" />
    <glyph glyph-name="f" unicode="f" horiz-adv-x="350" 
d="M282 693q-42 0 -63 -36t-21 -98v-58h139v-28h-139v-398q0 -31 22 -43t76 -18v-14h-252v14q36 6 53.5 18.5t17.5 42.5v398h-84v28h84v31q0 93 49.5 141t129.5 48q89 0 119 -48l-66 -52q-6 31 -24 51.5t-41 20.5z" />
    <glyph glyph-name="g" unicode="g" horiz-adv-x="531" 
d="M351 71q156 -12 156 -125q0 -72 -73.5 -115t-191.5 -43q-98 0 -157 33t-59 86q0 46 29 76t69 43q-51 25 -51 74q0 63 67 100q-82 49 -82 142q0 76 56 125t146 49q48 0 87 -15h156v-28h-105q64 -50 64 -131q0 -75 -56 -123.5t-146 -48.5q-60 0 -107 24q-31 -26 -31 -57
q0 -19 18.5 -36t52.5 -19zM253 487q-47 0 -77 -36t-30 -93q0 -70 34 -114.5t87 -44.5q48 0 77.5 35.5t29.5 92.5q0 70 -33.5 115t-87.5 45zM271 -186q76 0 128 28t52 72q0 75 -111 84l-149 11q-29 3 -50 9q-43 -40 -43 -80q0 -57 48.5 -90.5t124.5 -33.5z" />
    <glyph glyph-name="h" unicode="h" horiz-adv-x="584" 
d="M503 74q0 -21 10 -34t22 -17.5t34 -8.5v-14h-215v14q22 4 34 8.5t22 17.5t10 34v284q0 46 -24.5 73t-67.5 27q-71 0 -140 -79v-305q0 -21 10 -34t22 -17.5t34 -8.5v-14h-216v14q23 4 35 8.5t22 17.5t10 34v525q0 49 -52 52h-24v14l145 41h14v-302q85 112 176 112
q66 0 102.5 -40t36.5 -113v-289z" />
    <glyph glyph-name="i" unicode="i" horiz-adv-x="287" 
d="M147 584q-28 0 -46 17t-18 43t18 43t46 17q26 0 43.5 -17.5t17.5 -42.5t-17.5 -42.5t-43.5 -17.5zM195 74q0 -21 10 -34t22 -17.5t34 -8.5v-14h-216v14q23 4 35 8.5t22 17.5t10 34v335q0 49 -52 53h-24v14l145 41h14v-443z" />
    <glyph glyph-name="j" unicode="j" horiz-adv-x="266" 
d="M143 585q-27 0 -45 17t-18 43t18 43t45 17q26 0 43.5 -17t17.5 -43t-17.5 -43t-43.5 -17zM31 476l144 41h14v-442q0 -111 -38.5 -178t-138.5 -109l-7 11q53 40 77 93.5t24 151.5v365q0 49 -52 53h-23v14z" />
    <glyph glyph-name="k" unicode="k" horiz-adv-x="586" 
d="M479 66q16 -25 37 -37.5t60 -14.5v-14h-159q-3 17 -24 53l-138 224l-67 -63v-140q0 -21 10 -34t22 -17.5t34 -8.5v-14h-216v14q23 4 35 8.5t22 17.5t10 34v525q0 49 -52 52h-24v14l145 41h14v-453l198 184q26 23 18.5 36.5t-47.5 13.5v14h180v-14q-32 0 -58 -13.5
t-69 -53.5l-94 -87z" />
    <glyph glyph-name="l" unicode="l" horiz-adv-x="283" 
d="M188 74q0 -21 10 -34t22 -17.5t34 -8.5v-14h-216v14q23 4 35 8.5t22 17.5t10 34v525q0 49 -52 52h-24v14l145 41h14v-632z" />
    <glyph glyph-name="m" unicode="m" horiz-adv-x="901" 
d="M821 74q0 -21 10 -34t22 -17.5t34 -8.5v-14h-215v14q22 4 34 8.5t22 17.5t10 34v284q0 46 -24.5 73t-67.5 27q-39 0 -72 -19t-71 -64v-12v-289q0 -21 10 -34t22 -17.5t34 -8.5v-14h-215v14q22 4 34 8.5t22 17.5t10 34v284q0 46 -24.5 73t-67.5 27q-68 0 -133 -71v-313
q0 -21 10 -34t22 -17.5t34 -8.5v-14h-216v14q23 4 35 8.5t22 17.5t10 34v335q0 49 -52 53h-24v14l145 41h14v-104q81 103 169 103q58 0 93.5 -31t43.5 -88q88 119 181 119q66 0 102.5 -40t36.5 -113v-289z" />
    <glyph glyph-name="n" unicode="n" horiz-adv-x="593" 
d="M513 74q0 -21 10 -34t22 -17.5t34 -8.5v-14h-216v14q23 4 35 8.5t22 17.5t10 34v284q0 46 -24.5 73t-67.5 27q-38 0 -71 -19t-72 -63v-302q0 -21 10 -34t22 -17.5t34 -8.5v-14h-216v14q23 4 35 8.5t22 17.5t10 34v335q0 49 -52 52h-24v14l145 41h14v-116q44 58 86 87
t92 29q67 0 103.5 -40t36.5 -113v-289z" />
    <glyph glyph-name="o" unicode="o" horiz-adv-x="555" 
d="M273 -14q-102 0 -166 70.5t-64 183.5q0 122 66.5 199t172.5 77q102 0 166 -71t64 -184q0 -122 -66.5 -198.5t-172.5 -76.5zM290 14q61 0 97.5 58t36.5 152q0 44 -9 88t-27 84.5t-49.5 66t-72.5 25.5q-61 0 -97.5 -58t-36.5 -150q0 -62 14.5 -119.5t52 -102t91.5 -44.5z
" />
    <glyph glyph-name="p" unicode="p" horiz-adv-x="600" 
d="M355 516q90 0 145.5 -71.5t55.5 -177.5q0 -133 -66 -207.5t-162 -74.5q-41 0 -76.5 17.5t-56.5 47.5v-172q0 -31 21.5 -43t76.5 -18v-14h-253v14q36 6 54 18.5t18 42.5v531q0 49 -52 52h-24v14l145 41h14v-120q21 54 65 87t95 33zM330 19q59 0 98.5 61.5t39.5 148.5
q0 91 -37.5 160t-109.5 69q-42 0 -76.5 -26.5t-49.5 -70.5v-188q0 -61 35 -107.5t100 -46.5z" />
    <glyph glyph-name="q" unicode="q" horiz-adv-x="572" 
d="M488 -123q0 -30 17.5 -42.5t53.5 -18.5v-14h-252v14q54 6 76 18t22 43v230q-21 -53 -64 -88t-98 -35q-89 0 -144.5 72.5t-55.5 177.5q0 133 67.5 207.5t167.5 74.5q85 0 138 -67l58 67h14v-639zM278 42q39 0 76 29.5t51 68.5v200q0 54 -35.5 98t-99.5 44
q-59 0 -98.5 -61.5t-39.5 -149.5q0 -57 14.5 -107t48.5 -86t83 -36z" />
    <glyph glyph-name="r" unicode="r" horiz-adv-x="396" 
d="M339 516q22 0 40 -9l-5 -80q-22 13 -53 13q-36 0 -69.5 -24t-56.5 -69v-272q0 -31 21.5 -43t76.5 -18v-14h-253v14q36 6 54 18.5t18 42.5v334q0 49 -52 52h-24v14l145 41h14v-138q54 138 144 138z" />
    <glyph glyph-name="s" unicode="s" horiz-adv-x="463" 
d="M241 -14q-68 0 -123.5 32t-76.5 83l73 35q11 -55 48 -88.5t84 -33.5q48 0 77.5 25t29.5 66q-1 41 -31 67t-73.5 40.5t-86.5 30t-73.5 47.5t-31.5 81q-1 65 47.5 105t127.5 40q63 0 113 -27t67 -72l-68 -32q-14 46 -47 74.5t-72 28.5q-45 0 -72 -23t-27 -60
q0 -36 30 -59.5t73 -37.5t86.5 -30.5t74.5 -50t32 -84.5q1 -69 -49.5 -113t-131.5 -44z" />
    <glyph glyph-name="t" unicode="t" horiz-adv-x="339" 
d="M311 59l7 -5q-13 -27 -41 -48t-74 -21q-55 0 -86.5 35.5t-31.5 99.5v353h-55v14l124 125h14v-111h148v-28h-148v-351q0 -42 20 -66t58 -24q34 0 65 27z" />
    <glyph glyph-name="u" unicode="u" horiz-adv-x="581" 
d="M544 41l23 -1v-14l-144 -41h-14v116q-44 -58 -86 -87t-92 -29q-67 0 -103.5 40t-36.5 113v271q0 49 -52 53h-24v14l145 41h14v-374q0 -46 24.5 -73t67.5 -27q38 0 71 19t72 63v284q0 49 -53 53h-23v14l144 41h14v-424q0 -49 53 -52z" />
    <glyph glyph-name="v" unicode="v" horiz-adv-x="534" 
d="M262 -15l-187 447q-13 29 -28 41.5t-40 13.5v14h213v-14q-35 -1 -49.5 -15.5t-4.5 -39.5l134 -329l131 329q10 24 -3.5 38.5t-45.5 16.5v14h146v-14q-25 -1 -39.5 -13.5t-26.5 -41.5l-186 -447h-14z" />
    <glyph glyph-name="w" unicode="w" horiz-adv-x="810" 
d="M662 501h141v-14q-24 -1 -38 -13.5t-25 -41.5l-180 -447h-14l-139 343l-139 -343h-14l-181 447q-12 27 -26.5 40t-39.5 15v14h208v-14q-33 -1 -47.5 -15.5t-4.5 -39.5l128 -325l100 260l-26 65q-11 28 -25.5 40.5t-40.5 14.5v14h209v-14q-34 -1 -48.5 -15.5t-4.5 -39.5
l128 -325l126 325q9 24 -3.5 38.5t-43.5 16.5v14z" />
    <glyph glyph-name="x" unicode="x" horiz-adv-x="549" 
d="M458 69q21 -29 37.5 -40.5t40.5 -14.5v-14h-213v14q31 2 39.5 16.5t-8.5 38.5l-107 151l-118 -151q-19 -24 -9 -38.5t44 -16.5v-14h-151v14q41 6 81 55l137 174l-134 189q-20 28 -36.5 39.5t-40.5 15.5v14h211v-14q-31 -2 -39.5 -16.5t8.5 -38.5l91 -128l101 128
q18 25 8.5 39t-43.5 16v14h151v-14q-39 -4 -81 -55l-119 -152z" />
    <glyph glyph-name="y" unicode="y" horiz-adv-x="530" 
d="M388 501h146v-14q-25 -2 -39.5 -13.5t-27.5 -41.5l-197 -476q-36 -85 -80.5 -126.5t-107.5 -41.5q-42 0 -75 14l29 88q42 -31 87 -31q78 0 120 102l17 42l-179 429q-13 30 -28 41.5t-39 13.5v14h212v-14q-36 -2 -50 -16t-4 -38l131 -325l134 324q21 52 -49 55v14z" />
    <glyph glyph-name="z" unicode="z" horiz-adv-x="477" 
d="M442 501v-14l-308 -459h177q85 0 118 138h14l-22 -166h-390v14l308 459h-165q-43 0 -70 -28t-46 -94h-14l13 150h385z" />
    <glyph glyph-name="uni00A0" unicode="&#xa0;" horiz-adv-x="200" 
 />
    <glyph glyph-name="K.ss05" horiz-adv-x="726" 
d="M603 81q63 -65 111 -67v-14h-155l-340 327v-238q0 -42 20 -56.5t69 -18.5v-14h-270v14q50 4 70 18.5t20 56.5v491q0 41 -20.5 56t-69.5 18v14h270v-14q-48 -3 -68.5 -18t-20.5 -56v-230l286 245q32 27 20 42.5t-68 16.5v14h210v-14q-55 -3 -123 -61l-251 -215z" />
    <glyph glyph-name="M.ss11" horiz-adv-x="915" 
d="M807 82q4 -35 22.5 -49t67.5 -19v-14h-269v14q50 5 71 20t19 48l-43 473l-247 -555h-31l-214 550l-47 -468q-3 -34 18 -48t72 -20v-14h-208v14q49 4 68 18.5t22 49.5l51 506q4 36 -16.5 49.5t-66.5 16.5l1 14h162l211 -552l245 552h148l1 -14q-47 -2 -66.5 -17t-15.5 -57
z" />
    <glyph glyph-name="R.ss12" horiz-adv-x="686" 
d="M578 68q51 -51 99 -54v-14h-168q-6 20 -35 51l-255 244v-206q0 -42 20 -57t69 -18v-14h-270v14q50 3 70 17.5t20 57.5v491q0 41 -20.5 56t-69.5 18v14h282q122 0 191.5 -47t69.5 -140q0 -90 -66 -137t-182 -49zM312 640h-93v-317h93q82 0 126.5 43t44.5 115
q0 73 -44.5 116t-126.5 43z" />
    <glyph glyph-name="a.ss01" horiz-adv-x="577" 
d="M540 40l24 -1v-14l-145 -41h-14v124q-21 -54 -64 -89t-96 -35q-90 0 -146 72.5t-56 177.5q0 133 67.5 207.5t167.5 74.5q85 0 138 -67l58 67h14v-424q0 -49 52 -52zM278 42q39 0 76 29.5t51 68.5v200q0 54 -35.5 98t-99.5 44q-59 0 -98.5 -61.5t-39.5 -149.5
q0 -57 14.5 -107t48.5 -86t83 -36z" />
    <glyph glyph-name="g.ss02" horiz-adv-x="550" 
d="M474 516h14v-515q0 -102 -57 -157.5t-167 -55.5q-76 0 -127 25.5t-76 60.5l83 46q17 -45 53 -75t83 -30q125 0 125 150v142q-21 -53 -64 -88t-98 -35q-89 0 -144.5 72.5t-55.5 177.5q0 133 67.5 207.5t167.5 74.5q85 0 138 -67zM278 42q39 0 76 29.5t51 68.5v200
q0 54 -35.5 98t-98.5 44q-60 0 -99.5 -61.5t-39.5 -149.5q0 -57 14.5 -107t48.5 -86t83 -36z" />
    <glyph glyph-name="g.ss03" horiz-adv-x="540" 
d="M312 92q202 -2 202 -136q0 -78 -76 -123t-196 -45q-103 0 -159.5 32t-56.5 92q0 44 27 78.5t64 49.5v183q-52 47 -52 119q0 76 56 125t146 49q48 0 87 -15h156v-28h-105q64 -50 64 -131q0 -75 -56 -123.5t-146 -48.5q-69 0 -122 32v-110h167zM259 487q-47 0 -76.5 -36
t-29.5 -93q0 -71 33.5 -115.5t88.5 -44.5q47 0 76.5 36t29.5 93q0 70 -34 115t-88 45zM273 -186q79 0 132 31t53 83q0 50 -37.5 71.5t-113.5 22.5l-173 1q-36 -42 -36 -85q0 -58 50.5 -91t124.5 -33z" />
    <glyph glyph-name="g.ss04" horiz-adv-x="550" 
d="M474 516h14v-661q0 -23 -15 -37.5t-38 -14.5h-338v28h308v276q-21 -52 -63.5 -87.5t-96.5 -35.5q-90 0 -146 72.5t-56 177.5q0 133 67.5 207.5t167.5 74.5q85 0 138 -67zM278 42q39 0 76 29.5t51 68.5v200q0 54 -35.5 98t-99.5 44q-59 0 -98.5 -61.5t-39.5 -149.5
q0 -57 14.5 -107t48.5 -86t83 -36z" />
    <glyph glyph-name="k.ss05" horiz-adv-x="583" 
d="M473 66q15 -18 25 -26.5t28.5 -16.5t43.5 -9v-14h-159q-5 26 -27 53l-196 225v-204q0 -21 10 -34t22 -17.5t34 -8.5v-14h-216v14q23 4 35 8.5t22 17.5t10 34v525q0 49 -52 52h-24v14l145 41h14v-418l198 149q28 21 20 35.5t-49 14.5v14h181v-14q-21 0 -44 -10.5
t-38.5 -21.5t-48.5 -37l-141 -107z" />
    <glyph glyph-name="r.ss06" horiz-adv-x="381" 
d="M190 74q0 -21 10.5 -34t22.5 -17.5t34 -8.5v-14h-216v14q22 4 34 8.5t22.5 17.5t10.5 34v375q0 23 14.5 37.5t37.5 14.5h212v-28h-182v-399z" />
    <glyph glyph-name="t.ss07" horiz-adv-x="301" 
d="M137 0q-23 0 -37.5 14.5t-14.5 38.5v420h-55v14l124 125h14v-111h113v-28h-113v-445h113v-28h-144z" />
    <glyph glyph-name="y.ss08" horiz-adv-x="523" 
d="M381 501h146v-13q-25 -1 -40 -13.5t-27 -40.5l-184 -431l-80 -200h-89v14l149 192l-183 425q-12 29 -26.5 41t-39.5 13v13h212v-13q-35 -2 -49.5 -16t-4.5 -37l133 -323l131 322q10 25 -2.5 38.5t-45.5 15.5v13z" />
    <glyph glyph-name="y.ss09" horiz-adv-x="553" 
d="M477 516h14v-515q0 -102 -57 -157.5t-166 -55.5q-76 0 -127 25.5t-76 60.5l83 46q16 -45 52 -75t84 -30q62 0 93.5 39.5t31.5 110.5v136q-44 -58 -86 -87t-92 -29q-67 0 -103.5 40t-36.5 113v271q0 49 -52 52h-24v14l145 41h14v-373q0 -46 24.5 -73t67.5 -27q38 0 71 19
t72 63v284q0 49 -53 52h-23v14z" />
    <glyph glyph-name="y.ss10" horiz-adv-x="553" 
d="M477 516h14v-662q0 -23 -14.5 -37.5t-37.5 -14.5h-338v28h308v271q-44 -58 -86 -87t-92 -29q-67 0 -103.5 40t-36.5 113v271q0 49 -52 52h-24v14l145 41h14v-373q0 -46 24.5 -73t67.5 -27q38 0 71 19t72 63v284q0 49 -53 52h-23v14z" />
    </font>
</defs>
</svg>
