<?xml version="1.0" standalone="no"?>
<!DOCTYPE svg PUBLIC "-//W3C//DTD SVG 1.1//EN" "http://www.w3.org/Graphics/SVG/1.1/DTD/svg11.dtd" >
<svg xmlns="http://www.w3.org/2000/svg" xmlns:xlink="http://www.w3.org/1999/xlink" version="1.1">
<metadata>
Created by FontForge 20170731 at Fri Jun  7 02:30:07 2019
 By Aleksey,,,
Copyright (c) 2018 by Martin Va'cha. All rights reserved.
</metadata>
<defs>
<font id="RecklessNeueTRIAL-MediumItalic" horiz-adv-x="462" >
  <font-face 
    font-family="Reckless Neue TRIAL Medium"
    font-weight="500"
    font-style="italic"
    font-stretch="normal"
    units-per-em="1000"
    panose-1="0 0 6 0 0 0 0 0 0 0"
    ascent="800"
    descent="-200"
    x-height="503"
    cap-height="668"
    bbox="-99 -223.105 1079 810"
    underline-thickness="50"
    underline-position="-200"
    slope="-9"
    unicode-range="U+000D-00A0"
  />
<missing-glyph horiz-adv-x="1097" 
d="M57 309q0 201 141 347t341 154v-1000q-99 3 -188 44t-153.5 107.5t-102.5 157.5t-38 190zM575 806q62 -21 105.5 -165t43.5 -332t-43.5 -331t-105.5 -165v993zM899 309q0 -168 -69.5 -301.5t-178.5 -178.5q51 66 80.5 194.5t29.5 285.5t-29.5 286t-80.5 196
q109 -46 178.5 -180.5t69.5 -301.5zM1057 309q0 -151 -83.5 -276.5t-220.5 -182.5q84 73 133.5 195t49.5 264q0 141 -49.5 264t-133.5 196q137 -58 220.5 -183.5t83.5 -276.5z" />
    <glyph glyph-name=".notdef" horiz-adv-x="1097" 
d="M57 309q0 201 141 347t341 154v-1000q-99 3 -188 44t-153.5 107.5t-102.5 157.5t-38 190zM575 806q62 -21 105.5 -165t43.5 -332t-43.5 -331t-105.5 -165v993zM899 309q0 -168 -69.5 -301.5t-178.5 -178.5q51 66 80.5 194.5t29.5 285.5t-29.5 286t-80.5 196
q109 -46 178.5 -180.5t69.5 -301.5zM1057 309q0 -151 -83.5 -276.5t-220.5 -182.5q84 73 133.5 195t49.5 264q0 141 -49.5 264t-133.5 196q137 -58 220.5 -183.5t83.5 -276.5z" />
    <glyph glyph-name=".null" horiz-adv-x="0" 
 />
    <glyph glyph-name="nonmarkingreturn" horiz-adv-x="333" 
 />
    <glyph glyph-name="CR" unicode="&#xd;" horiz-adv-x="600" 
 />
    <glyph glyph-name="space" unicode=" " horiz-adv-x="232" 
 />
    <glyph glyph-name="comma" unicode="," horiz-adv-x="241" 
d="M7 -118l1 14q39 8 68.5 35t34.5 68q-13 -11 -33 -11q-26 0 -44 18t-18 44q0 30 21 50.5t52 20.5q30 0 50 -21.5t20 -58.5q-1 -62 -44 -108t-108 -51z" />
    <glyph glyph-name="hyphen" unicode="-" horiz-adv-x="302" 
d="M28 265l7 45h250l-7 -45h-250z" />
    <glyph glyph-name="period" unicode="." horiz-adv-x="228" 
d="M77 -12q-26 0 -43.5 18t-17.5 44q0 29 22 50t51 21q27 0 44 -18t17 -43q0 -30 -21.5 -51t-51.5 -21z" />
    <glyph glyph-name="zero" unicode="0" horiz-adv-x="632" 
d="M270 -15q-109 0 -163 74t-54 201q0 180 95.5 301.5t239.5 121.5q109 0 163 -74t54 -201q0 -180 -95.5 -301.5t-239.5 -121.5zM287 13q55 0 102 61.5t73 156.5t26 196q0 60 -9 107.5t-37 84t-72 36.5q-56 0 -102.5 -63t-72 -158.5t-25.5 -196.5q0 -44 5.5 -81.5t18 -71
t36.5 -52.5t57 -19z" />
    <glyph glyph-name="one" unicode="1" horiz-adv-x="403" 
d="M15 0l2 14q64 2 88.5 16t31.5 56l76 477h-108l2 14q122 22 219 97h13l-93 -588q-6 -41 12 -55.5t66 -16.5l-3 -14h-306z" />
    <glyph glyph-name="two" unicode="2" horiz-adv-x="506" 
d="M-32 0l2 14l207 197q43 40 69 66.5t59.5 67t50 80.5t16.5 80q0 51 -28 80t-77 29q-51 0 -101 -30.5t-80 -82.5l-11 4q30 76 93.5 126.5t150.5 50.5q79 0 124 -43.5t45 -119.5q0 -32 -10.5 -64t-24 -58t-42 -57t-49.5 -51t-63 -52t-65.5 -48.5t-73 -50.5t-71.5 -49h227
q58 0 83.5 19t53.5 83h14l-59 -191h-440z" />
    <glyph glyph-name="three" unicode="3" horiz-adv-x="512" 
d="M281 352q91 -4 145 -39.5t54 -106.5q0 -100 -75 -160t-196 -60q-96 0 -154.5 45t-58.5 116l114 31q-5 -68 26.5 -116t90.5 -48q61 0 100.5 58.5t39.5 124.5t-47 103t-136 36l2 15q94 12 147 58.5t53 107.5q0 43 -29.5 70t-78.5 27q-52 0 -102 -30t-77 -83l-11 4
q24 72 89.5 124.5t158.5 52.5q80 0 123.5 -37.5t43.5 -97.5q0 -79 -60 -128.5t-162 -66.5z" />
    <glyph glyph-name="four" unicode="4" horiz-adv-x="559" 
d="M175 0l2 14q63 4 87 17t30 55l16 102h-308l3 19l404 461h86l-71 -450h111l-5 -30h-111l-16 -102q-6 -41 11 -54.5t67 -17.5l-3 -14h-303zM52 218h263l58 367z" />
    <glyph glyph-name="five" unicode="5" horiz-adv-x="524" 
d="M211 -14q-97 0 -158 44.5t-61 116.5l113 31q-5 -68 29 -116t95 -48q64 0 105.5 60t41.5 142q0 69 -36.5 110t-102.5 41q-79 0 -157 -50l-7 5l112 346h342l-15 -95h-329l-72 -217q82 74 189 74q88 0 141 -53t53 -139q0 -111 -80.5 -181.5t-202.5 -70.5z" />
    <glyph glyph-name="six" unicode="6" horiz-adv-x="581" 
d="M368 429q81 0 129 -51t48 -133q0 -111 -80.5 -185.5t-194.5 -74.5q-105 0 -162.5 68t-57.5 196q0 62 13.5 123t42 117.5t68.5 99.5t96.5 68.5t122.5 25.5q74 0 128.5 -34t62.5 -95l-117 -37q1 56 -25.5 97t-70.5 41q-53 0 -95 -50t-65.5 -118.5t-34.5 -150.5
q80 93 192 93zM282 13q61 0 103.5 67t42.5 147q0 66 -33 107t-88 41q-77 0 -133 -60q-6 -48 -6 -90q0 -98 30 -155t84 -57z" />
    <glyph glyph-name="seven" unicode="7" horiz-adv-x="533" 
d="M121 0q12 91 46.5 173.5t91 156t105.5 125t123 118.5h-256q-54 0 -84.5 -26.5t-58.5 -93.5h-14l64 215h452l-2 -14q-149 -160 -235.5 -312.5t-112.5 -341.5h-119z" />
    <glyph glyph-name="eight" unicode="8" horiz-adv-x="546" 
d="M358 376q33 -18 54 -32.5t44.5 -37t35 -53t11.5 -68.5q0 -92 -74 -146t-192 -54q-104 0 -163 42t-59 114q0 74 56.5 120.5t150.5 68.5q-56 33 -86.5 69t-30.5 94q0 81 69.5 135.5t174.5 54.5q86 0 137.5 -37.5t51.5 -101.5q0 -63 -49.5 -105t-130.5 -63zM337 655
q-51 0 -86 -37.5t-35 -88.5q0 -49 29.5 -78.5t87.5 -61.5q100 56 100 160q0 48 -26 77t-70 29zM243 13q62 0 102.5 40.5t40.5 100.5q0 31 -10.5 55.5t-35 45.5t-41 31.5t-53.5 30.5q-119 -60 -119 -177q0 -61 30.5 -94t85.5 -33z" />
    <glyph glyph-name="nine" unicode="9" horiz-adv-x="584" 
d="M340 683q105 0 162.5 -68t57.5 -196q0 -78 -22 -154t-63.5 -139t-108.5 -102t-148 -39q-75 0 -129.5 34t-62.5 95l117 37q-1 -56 25.5 -97t70.5 -41q53 0 95.5 50.5t66 119.5t34.5 150q-78 -94 -192 -94q-82 0 -129.5 51t-47.5 134q0 110 80 184.5t194 74.5zM304 293
q78 0 133 61q6 48 6 89q0 98 -30.5 155t-84.5 57q-61 0 -103.5 -67t-42.5 -147q0 -66 33.5 -107t88.5 -41z" />
    <glyph glyph-name="A" unicode="A" horiz-adv-x="751" 
d="M616 99q13 -45 32.5 -62.5t60.5 -22.5l-2 -14h-280l2 14q51 5 64.5 22.5t0.5 62.5l-33 118h-280l-69 -118q-27 -45 -18 -62.5t60 -22.5l-3 -14h-187l3 14q39 5 63.5 22.5t50.5 62.5l349 584h15zM198 245h255l-82 294z" />
    <glyph glyph-name="B" unicode="B" horiz-adv-x="642" 
d="M-8 0l2 14q47 3 71 19t30 53l79 496q6 36 -12.5 53.5t-65.5 18.5l2 14h285q104 0 162.5 -40.5t58.5 -114.5q0 -65 -50.5 -110t-134.5 -52q85 -5 132.5 -45t47.5 -110q0 -90 -74 -143t-198 -53h-335zM248 361h88q66 0 109 46.5t43 108.5q0 60 -33 92t-95 32h-68zM269 28
h44q76 0 123 47.5t47 120.5q0 64 -39 100.5t-110 36.5h-91l-39 -249q-4 -27 13 -41.5t52 -14.5z" />
    <glyph glyph-name="C" unicode="C" horiz-adv-x="667" 
d="M320 -15q-117 0 -192.5 84t-75.5 213q0 167 111.5 284t271.5 117q98 0 160.5 -40t72.5 -110l-107 -31q-4 71 -41 112.5t-100 41.5q-69 0 -127 -48.5t-90 -125.5t-32 -162q0 -112 58.5 -181t151.5 -69q80 0 143.5 38t94.5 108l13 -3q-37 -108 -121 -168t-191 -60z" />
    <glyph glyph-name="D" unicode="D" horiz-adv-x="733" 
d="M392 668q154 0 235 -75t81 -202q0 -170 -115 -280.5t-288 -110.5h-313l2 14q49 4 72 18.5t29 53.5l78 496q5 39 -12.5 54t-65.5 18l3 14h294zM305 28q122 0 204.5 109t82.5 250q0 108 -57 180.5t-165 72.5h-79l-88 -556q-6 -35 19.5 -45.5t82.5 -10.5z" />
    <glyph glyph-name="E" unicode="E" horiz-adv-x="622" 
d="M438 640h-146l-45 -283h125q43 0 63.5 22.5t30.5 73.5h14l-35 -221h-14q6 51 -7 74t-56 23h-125l-39 -243q-8 -58 35 -58h129q71 0 118.5 34t77.5 117h14l-53 -179h-533l2 14q48 2 71.5 18t29.5 54l79 496q5 37 -12.5 54t-65.5 18l2 14h513l9 -182h-14q-12 80 -50 117
t-118 37z" />
    <glyph glyph-name="F" unicode="F" horiz-adv-x="594" 
d="M610 668l9 -182h-14q-11 80 -49 117t-118 37h-146l-45 -283h124q44 0 64 22.5t31 73.5h14l-36 -221h-14q6 51 -6.5 74t-56.5 23h-125l-38 -243q-7 -40 15 -55t79 -17l-2 -14h-304l2 14q48 2 71.5 18t29.5 54l79 496q5 37 -12.5 54t-65.5 18l2 14h512z" />
    <glyph glyph-name="G" unicode="G" horiz-adv-x="746" 
d="M343 -14q-136 0 -213 79.5t-77 217.5q0 171 111 285.5t277 114.5q102 0 167 -40.5t75 -110.5l-108 -31q-3 70 -43.5 112t-105.5 42q-105 0 -179.5 -107.5t-74.5 -252.5q0 -128 56.5 -203.5t151.5 -75.5q79 0 131 45l27 175q6 45 -11.5 65t-68.5 22l2 14h294l-2 -14
q-52 -4 -75.5 -26t-29.5 -61l-19 -126q-47 -55 -124 -89.5t-161 -34.5z" />
    <glyph glyph-name="H" unicode="H" horiz-adv-x="791" 
d="M538 668h287l-2 -14q-48 -2 -71.5 -16.5t-29.5 -52.5l-79 -499q-5 -37 13 -53.5t65 -18.5l-2 -14h-287l2 14q47 2 70.5 18t30.5 54l38 242h-331l-38 -242q-6 -37 12.5 -53.5t64.5 -18.5l-2 -14h-287l2 14q47 2 70.5 18t30.5 54l79 496q6 36 -12 53.5t-66 18.5l2 14h287
l-2 -14q-47 -2 -70.5 -16.5t-29.5 -52.5l-36 -229h330l36 226q6 37 -11.5 54t-65.5 18z" />
    <glyph glyph-name="I" unicode="I" horiz-adv-x="351" 
d="M-8 0l2 14q47 2 70.5 18t30.5 54l79 496q6 36 -12 53.5t-66 18.5l2 14h287l-2 -14q-47 -2 -70.5 -16.5t-29.5 -52.5l-79 -499q-6 -37 12.5 -53.5t64.5 -18.5l-2 -14h-287z" />
    <glyph glyph-name="J" unicode="J" horiz-adv-x="532" 
d="M186 -15q-90 0 -142 41t-57 112l114 31q-4 -72 20 -114t68 -42q85 0 110 146l66 423q6 34 -10 52.5t-67 19.5l2 14h287l-2 -14q-49 -3 -71.5 -17.5t-28.5 -51.5l-64 -399q-7 -44 -19.5 -77t-37 -63t-67 -45.5t-101.5 -15.5z" />
    <glyph glyph-name="K" unicode="K" horiz-adv-x="730" 
d="M752 654q-39 -2 -65 -13.5t-60 -39.5l-216 -177l186 -344q20 -36 40.5 -50t59.5 -16l-3 -14h-188q-2 22 -26 68l-154 287l-91 -75l-31 -194q-6 -37 12.5 -53.5t64.5 -18.5l-2 -14h-287l2 14q47 2 70.5 18t30.5 54l79 496q6 36 -12 53.5t-66 18.5l2 14h287l-2 -14
q-47 -2 -70.5 -16.5t-29.5 -52.5l-41 -262l334 272q37 28 28.5 43t-66.5 16l3 14h213z" />
    <glyph glyph-name="L" unicode="L" horiz-adv-x="576" 
d="M538 183h14l-54 -183h-506l2 14q51 5 73 20t28 52l78 496q6 37 -11.5 52t-66.5 20l3 14h287l-3 -14q-50 -5 -72 -20t-28 -52l-79 -496q-9 -58 41 -58h94q140 0 200 155z" />
    <glyph glyph-name="M" unicode="M" horiz-adv-x="927" 
d="M962 668l-3 -14q-51 -2 -73 -16.5t-27 -52.5l-81 -504q-5 -32 12.5 -46.5t67.5 -20.5l-2 -14h-288l3 14q50 5 72 20t27 47l74 463l-349 -544h-27l-170 555l-75 -474q-5 -32 13 -46.5t67 -20.5l-3 -14h-208l3 14q50 5 72.5 20t27.5 47l80 504q6 38 -11.5 52.5t-68.5 16.5
l3 14h185l165 -537l344 537h170z" />
    <glyph glyph-name="N" unicode="N" horiz-adv-x="740" 
d="M551 668h224l-3 -14q-52 -4 -73.5 -21.5t-28.5 -63.5l-93 -584h-27l-342 581l-74 -467q-7 -46 13 -63t80 -22l-2 -14h-224l3 14q51 5 73 22.5t29 62.5l79 501q-20 27 -39.5 39.5t-50.5 14.5l3 14h186l293 -504l65 405q7 45 -13 63t-80 22z" />
    <glyph glyph-name="O" unicode="O" horiz-adv-x="769" 
d="M348 -14q-138 0 -217 83t-79 217q0 167 115 281.5t282 114.5q138 0 216 -82.5t78 -216.5q0 -168 -114 -282.5t-281 -114.5zM361 14q77 0 139 55t94 139t32 177q0 116 -51.5 192.5t-139.5 76.5q-78 0 -140 -55t-93.5 -139t-31.5 -177q0 -117 52 -193t139 -76z" />
    <glyph glyph-name="P" unicode="P" horiz-adv-x="616" 
d="M395 668q108 0 168.5 -45.5t60.5 -128.5q0 -92 -79.5 -148t-218.5 -56h-89l-33 -204q-8 -37 12 -53.5t65 -18.5l-2 -14h-287l2 14q47 3 71 19t30 53l79 496q6 36 -14.5 53t-63.5 19l2 14h297zM313 318q91 0 143.5 50.5t52.5 124.5q0 69 -37 108t-109 39h-70l-52 -322h72z
" />
    <glyph glyph-name="Q" unicode="Q" horiz-adv-x="747" 
d="M731 383q0 -164 -108.5 -277.5t-270.5 -119.5q9 -48 41 -77.5t74 -37t78 -6.5t69 9l-35 -97q-44 -1 -82.5 7.5t-75.5 30.5t-61 65.5t-29 105.5q-136 1 -213 84t-77 216q0 167 114.5 281.5t282.5 114.5q137 0 215 -82.5t78 -216.5zM350 14q77 0 139 55t94 139t32 177
q0 116 -52 192.5t-140 76.5q-78 0 -140 -55t-93.5 -139t-31.5 -177q0 -117 52.5 -193t139.5 -76z" />
    <glyph glyph-name="R" unicode="R" horiz-adv-x="683" 
d="M561 74q13 -25 39.5 -41.5t55.5 -18.5l-3 -14h-186q-2 19 -19 53l-129 237h-82l-33 -204q-8 -37 12 -53.5t65 -18.5l-2 -14h-287l2 14q47 3 71 19t30 53l79 496q6 36 -14.5 53t-63.5 19l2 14h297q108 0 168.5 -45.5t60.5 -128.5q0 -72 -49.5 -123t-140.5 -70zM293 640
l-52 -322h72q91 0 143.5 50.5t52.5 124.5q0 69 -37 108t-109 39h-70z" />
    <glyph glyph-name="S" unicode="S" horiz-adv-x="543" 
d="M239 -14q-97 0 -162 42t-74 117l107 31q-1 -73 41 -117.5t103 -44.5q62 0 102 38.5t40 95.5q0 41 -23.5 72t-58.5 49t-76.5 39t-76.5 41t-58.5 56t-23.5 83q0 85 68 139.5t181 54.5q84 0 146 -39t74 -108l-103 -31q-2 61 -40 105.5t-90 44.5q-59 0 -96.5 -34t-37.5 -85
q0 -37 24 -66.5t60.5 -46.5t78.5 -38t78.5 -42t60.5 -58t24 -86q0 -94 -75 -153t-193 -59z" />
    <glyph glyph-name="T" unicode="T" horiz-adv-x="636" 
d="M664 668l-3 -182h-14q-6 80 -42 117t-115 37h-55l-89 -554q-5 -37 13 -53.5t65 -18.5l-2 -14h-287l2 14q47 2 70.5 18t30.5 54l88 554h-56q-80 0 -127.5 -37t-78.5 -117h-14l54 182h560z" />
    <glyph glyph-name="U" unicode="U" horiz-adv-x="729" 
d="M571 668h206l-2 -14q-49 -4 -71.5 -18.5t-28.5 -53.5l-55 -344q-18 -117 -93 -184.5t-179 -67.5q-120 0 -184 53t-64 149q0 16 4 50l55 344q5 39 -12.5 54t-65.5 18l3 14h286l-2 -14q-49 -4 -71.5 -18.5t-28.5 -53.5l-55 -344q-4 -20 -4 -43q0 -75 45 -117.5t126 -42.5
q83 0 139.5 54t72.5 149l55 344q4 39 -13.5 54t-64.5 18z" />
    <glyph glyph-name="V" unicode="V" horiz-adv-x="756" 
d="M335 -15l-171 584q-14 45 -34 63t-60 22l3 14h280l-3 -14q-51 -4 -64.5 -22t0.5 -63l123 -440l259 440q26 45 17.5 63t-59.5 22l2 14h187l-2 -14q-40 -5 -64 -22.5t-51 -62.5l-348 -584h-15z" />
    <glyph glyph-name="W" unicode="W" horiz-adv-x="1019" 
d="M902 668h177l-3 -14q-39 -7 -60 -23.5t-44 -61.5l-309 -584h-15l-103 475l-251 -475h-14l-127 584q-9 41 -24.5 61t-58.5 24l3 14h241l-2 -14q-43 -4 -53.5 -25t0.5 -60l88 -430l189 361l-15 69q-10 43 -27 62t-56 23l3 14h241l-2 -14q-42 -4 -52 -22.5t-1 -62.5l89 -429
l224 429q24 38 17 59.5t-58 25.5z" />
    <glyph glyph-name="X" unicode="X" horiz-adv-x="694" 
d="M737 654q-44 -5 -75 -22.5t-71 -62.5l-177 -193l146 -277q24 -45 44 -63t53 -22l-3 -14h-270l2 14q49 4 58.5 21.5t-14.5 63.5l-103 198l-177 -198q-28 -31 -35.5 -48t3.5 -25.5t44 -11.5l-2 -14h-194l2 14q44 5 75 22.5t72 62.5l200 220l-131 250q-24 45 -44.5 62.5
t-53.5 22.5l2 14h271l-3 -14q-49 -4 -58 -21.5t15 -63.5l89 -170l154 170q28 31 35 48t-4 25.5t-44 11.5l2 14h194z" />
    <glyph glyph-name="Y" unicode="Y" horiz-adv-x="652" 
d="M144 0l2 14q47 4 69 18.5t28 53.5l35 223l-121 260q-21 45 -40 63t-50 22l3 14h264l-3 -14q-50 -4 -60 -21.5t11 -63.5l102 -221l173 221q34 46 26 63.5t-65 21.5l2 14h194l-2 -14q-37 -4 -62 -22t-60 -63l-204 -260l-35 -223q-6 -39 11.5 -53.5t62.5 -18.5l-2 -14h-279z
" />
    <glyph glyph-name="Z" unicode="Z" horiz-adv-x="569" 
d="M539 216l-18 -65q-23 -83 -59 -122t-81.5 -41t-105.5 4.5t-131.5 13t-159.5 -14.5l-8 11l518 572h-258q-117 0 -169 -127h-14l63 221h495l1 -13l-522 -579q53 23 113.5 22.5t104 -9t85.5 -8t75.5 32.5t58.5 105z" />
    <glyph glyph-name="a" unicode="a" horiz-adv-x="516" 
d="M470 46l21 -1l-2 -14l-169 -46h-14l19 121q-62 -121 -181 -121q-58 0 -90.5 36.5t-28.5 96.5q4 74 68.5 112t179.5 59l83 15l6 37q11 69 -11.5 109t-73.5 40q-60 0 -90.5 -47.5t-14.5 -102.5l-96 -30q-25 86 42 147t174 61q93 0 139 -48.5t32 -132.5l-37 -238
q-4 -27 7 -39t37 -14zM205 50q78 0 126 94l21 132l-80 -16q-135 -27 -141 -126q-2 -37 18 -60.5t56 -23.5z" />
    <glyph glyph-name="b" unicode="b" horiz-adv-x="562" 
d="M260 -15q-46 0 -83.5 19t-55.5 52l-82 -71h-14l98 610q4 26 -6 38t-39 15l-21 1l2 14l170 46h14l-50 -307q28 54 74.5 85t100.5 31q76 0 121.5 -58t45.5 -157q0 -132 -77 -225t-198 -93zM255 21q72 0 120 85.5t48 191.5q0 72 -27.5 116.5t-76.5 44.5q-40 0 -75 -24.5
t-56 -65.5l-33 -206q-9 -56 18.5 -99t81.5 -43z" />
    <glyph glyph-name="c" unicode="c" horiz-adv-x="497" 
d="M231 -14q-92 0 -147.5 60.5t-55.5 160.5q0 137 81.5 224t203.5 87q80 0 125.5 -38t48.5 -86l-96 -27q-1 46 -22 84.5t-70 38.5q-68 0 -114.5 -72.5t-46.5 -169.5q0 -82 39 -131t107 -49q112 0 171 92l11 -4q-31 -83 -92 -126.5t-143 -43.5z" />
    <glyph glyph-name="d" unicode="d" horiz-adv-x="562" 
d="M204 -15q-78 0 -127.5 57.5t-49.5 153.5q0 141 77 231.5t196 90.5q90 0 127 -61l23 139q4 27 -7 38.5t-38 14.5l-21 1l2 14l170 45h14l-99 -610q-4 -27 6.5 -39t37.5 -14l22 -1l-3 -14l-169 -46h-14l18 114q-58 -114 -165 -114zM252 49q38 0 71.5 24t51.5 60l34 215
q8 50 -17.5 92.5t-81.5 42.5q-74 0 -122 -82.5t-48 -189.5q0 -75 30.5 -118.5t81.5 -43.5z" />
    <glyph glyph-name="e" unicode="e" horiz-adv-x="508" 
d="M280 66q107 0 167 84l11 -6q-30 -76 -88.5 -117t-137.5 -41q-93 0 -148.5 61.5t-55.5 161.5q0 133 81 221t205 88q81 0 124.5 -30.5t43.5 -77.5q0 -36 -20 -62.5t-63 -45.5t-85.5 -30t-112.5 -25l-64 -13q2 -77 40 -122.5t103 -45.5zM298 490q-65 0 -109.5 -68.5
t-50.5 -159.5l61 13q179 42 179 138q0 29 -21.5 53t-58.5 24z" />
    <glyph glyph-name="f" unicode="f" horiz-adv-x="324" 
d="M34 0l77 475h-85l4 28h85l7 43q13 84 71.5 131t144.5 47q107 0 131 -61l-86 -52q-4 85 -59 85q-38 0 -63.5 -39t-34.5 -98l-9 -56h138l-4 -28h-139l-76 -475h-102z" />
    <glyph glyph-name="g" unicode="g" horiz-adv-x="506" 
d="M539 503l-5 -28h-107q49 -41 49 -113q0 -84 -66.5 -138t-164.5 -54q-63 0 -110 24q-37 -29 -37 -58q0 -17 17 -31.5t47 -16.5l157 -11q141 -12 141 -115q0 -79 -82.5 -126.5t-220.5 -47.5q-89 0 -145.5 29.5t-56.5 83.5q0 45 36.5 77t84.5 44q-43 24 -43 72q0 64 88 109
q-65 41 -65 122q0 84 66.5 138.5t166.5 54.5q51 0 90 -15h160zM253 199q49 0 83 52.5t34 120.5q0 52 -24.5 84.5t-66.5 32.5q-49 0 -83 -52t-34 -120q0 -52 24 -85t67 -33zM147 1q-32 3 -53 12q-51 -48 -51 -90q0 -50 44 -79.5t113 -29.5q72 0 128 28t56 77q0 60 -95 69z
" />
    <glyph glyph-name="h" unicode="h" horiz-adv-x="596" 
d="M558 72l10 -10q-52 -76 -121 -76q-37 0 -58 19t-21 54q0 17 6 53l38 243q8 44 -10.5 69.5t-56.5 25.5q-68 0 -145 -71l-61 -379h-102l97 595q4 26 -5 38t-35 14l-25 2l2 14l169 46h14l-49 -300q101 109 197 109q64 0 94.5 -41.5t19.5 -111.5l-41 -257q-4 -26 -4 -36
q0 -33 31 -33q24 0 56 33z" />
    <glyph glyph-name="i" unicode="i" horiz-adv-x="307" 
d="M175 580q-29 0 -47.5 18.5t-18.5 45.5q0 31 23 52t55 21q28 0 47 -18t19 -44q0 -31 -23 -53t-55 -22zM132 -14q-37 0 -58 19t-21 54q0 23 6 53l47 293q8 48 -45 53l-21 1l2 14l169 45h14l-66 -411q-4 -24 -4 -36q0 -33 30 -33q24 0 57 34l10 -10q-52 -76 -120 -76z" />
    <glyph glyph-name="j" unicode="j" horiz-adv-x="244" 
d="M179 581q-29 0 -47.5 18.5t-18.5 45.5q0 31 23 52t55 21q28 0 47 -18t19 -44q0 -31 -23 -53t-55 -22zM-87 -212l-4 11q58 38 90.5 89t48.5 149l59 367q8 48 -45 54h-21l2 14l169 46h14l-70 -444q-17 -115 -70 -181.5t-173 -104.5z" />
    <glyph glyph-name="k" unicode="k" horiz-adv-x="547" 
d="M455 66q14 -28 30 -39t48 -13l-2 -14l-152 -10l-138 282l-65 -54l-34 -218h-102l94 595q7 49 -44 53l-21 1l2 14l169 46h14l-71 -450l223 188q5 4 16.5 14t17 14.5t15.5 12t16 11t15 7.5t16 5.5t15.5 1.5t16.5 -3l-20 -85q-17 11 -51 7.5t-58 -22.5l-85 -71z" />
    <glyph glyph-name="l" unicode="l" horiz-adv-x="282" 
d="M131 -14q-37 0 -58 19t-21 54q0 23 6 53l76 483q4 27 -5 38.5t-35 13.5l-25 2l2 14l169 46h14l-95 -601q-4 -26 -4 -36q0 -33 30 -33q25 0 57 33l10 -10q-52 -76 -121 -76z" />
    <glyph glyph-name="m" unicode="m" horiz-adv-x="920" 
d="M881 72l10 -10q-52 -76 -120 -76q-37 0 -58.5 19t-21.5 54q0 17 6 53l39 243q7 44 -11 69.5t-57 25.5q-70 0 -146 -72q0 -2 -0.5 -6.5t-1.5 -6.5l-57 -365h-102l55 355q8 44 -10.5 69.5t-56.5 25.5q-70 0 -145 -72l-61 -378h-101l64 405q4 26 -5.5 38t-35.5 14l-25 2
l2 14l170 45h14l-18 -110q103 110 198 110q55 0 86 -31t31 -84q103 115 202 115q64 0 95 -41.5t20 -111.5l-41 -257q-4 -20 -4 -36q0 -33 30 -33q24 0 56 33z" />
    <glyph glyph-name="n" unicode="n" horiz-adv-x="600" 
d="M562 72l10 -10q-52 -76 -121 -76q-37 0 -58 19t-21 54q0 17 6 53l38 243q8 44 -10.5 69.5t-56.5 25.5q-68 0 -146 -72l-60 -378h-102l65 405q4 26 -5.5 38t-35.5 14l-25 2l2 14l169 45h14l-18 -111q103 111 199 111q64 0 94.5 -41.5t19.5 -111.5l-41 -257q0 -1 -2 -15.5
t-2 -20.5q0 -33 31 -33q24 0 56 33z" />
    <glyph glyph-name="o" unicode="o" horiz-adv-x="553" 
d="M234 -14q-94 0 -150 60t-56 165q0 131 83 219t208 88q94 0 150 -60.5t56 -164.5q0 -130 -82.5 -218.5t-208.5 -88.5zM254 14q48 0 86 43t56.5 105t18.5 128q0 89 -30.5 144.5t-83.5 55.5q-47 0 -85 -42t-57.5 -104.5t-19.5 -128.5q0 -90 30 -145.5t85 -55.5z" />
    <glyph glyph-name="p" unicode="p" horiz-adv-x="577" 
d="M10 -197l96 602q8 47 -41 52l-25 2l2 14l169 45h14l-17 -111q28 51 74 81t99 30q76 0 122 -58.5t46 -158.5q0 -130 -75 -223t-193 -93q-46 0 -80.5 18t-48.5 48l-40 -248h-102zM269 21q73 0 120.5 85.5t47.5 191.5q0 70 -28 113t-78 43q-41 0 -74.5 -22.5t-54.5 -61.5
l-31 -206q-9 -58 17 -100.5t81 -42.5z" />
    <glyph glyph-name="q" unicode="q" horiz-adv-x="555" 
d="M322 -197l47 295q-28 -54 -73.5 -83.5t-97.5 -29.5q-78 0 -124.5 56.5t-46.5 152.5q0 139 78.5 231.5t200.5 92.5q94 0 141 -66l76 66h14l-113 -715h-102zM246 49q38 0 74 24.5t54 59.5l35 218q6 51 -20 91.5t-80 40.5q-74 0 -121.5 -82t-47.5 -190q0 -76 28 -119t78 -43
z" />
    <glyph glyph-name="r" unicode="r" horiz-adv-x="377" 
d="M369 519q19 0 39 -9l-21 -96q-20 16 -55 16q-34 0 -70.5 -22.5t-64.5 -64.5l-54 -343h-101l64 405q7 48 -45 53l-21 1l2 14l169 45h14l-22 -139q36 70 79 105t87 35z" />
    <glyph glyph-name="s" unicode="s" horiz-adv-x="448" 
d="M194 -14q-73 0 -127.5 31t-72.5 79l88 49q5 -59 38.5 -95t84.5 -36q45 0 75 28t30 72q0 36 -26.5 60t-64 38t-75.5 29.5t-64.5 46.5t-26.5 77q0 70 56.5 111.5t140.5 41.5q69 0 117 -25.5t63 -69.5l-79 -47q-9 52 -39 83t-74 31t-70 -25t-26 -64q0 -28 19 -48t48 -30.5
t62.5 -24t62.5 -28.5t48 -44t19 -70q0 -77 -60 -123.5t-147 -46.5z" />
    <glyph glyph-name="t" unicode="t" horiz-adv-x="335" 
d="M207 475l-55 -346q-7 -41 9.5 -67t53.5 -26q32 0 69 28l7 -6q-53 -73 -135 -73q-58 0 -87.5 38t-19.5 102l56 350h-54l2 14l163 133h14l-19 -119h148l-5 -28h-147z" />
    <glyph glyph-name="u" unicode="u" horiz-adv-x="573" 
d="M523 46l25 -1l-2 -14l-162 -46h-14l11 106q-87 -106 -190 -106q-65 0 -99.5 43t-23.5 110l43 259q4 18 4 35q0 34 -30 34q-24 0 -57 -33l-10 9q51 76 121 76q37 0 58 -18.5t21 -54.5q0 -14 -6 -53l-40 -243q-7 -43 12.5 -69.5t59.5 -26.5q71 0 141 70l60 380h102
l-64 -404q-4 -27 5 -39t35 -14z" />
    <glyph glyph-name="v" unicode="v" 
d="M194 -15l-125 453q-8 27 -21.5 38.5t-44.5 12.5l3 14l149 11l105 -393l136 239q14 21 9.5 44t-17.5 40t-32 31l57 47q40 -24 46.5 -63.5t-20.5 -83.5l-233 -390h-12z" />
    <glyph glyph-name="w" unicode="w" horiz-adv-x="766" 
d="M717 522q40 -24 46.5 -63.5t-20.5 -83.5l-233 -390h-12l-92 334l-200 -334h-12l-125 453q-8 27 -21.5 38.5t-44.5 12.5l3 14l149 11l105 -393l136 234l-23 83q-8 27 -21.5 38.5t-44.5 12.5l3 14l149 11l105 -393l136 239q14 21 9.5 44t-17.5 40t-32 31z" />
    <glyph glyph-name="x" unicode="x" horiz-adv-x="496" 
d="M495 427q-18 12 -51 6.5t-55 -32.5l-90 -112l107 -223q13 -25 30 -37.5t48 -14.5l-2 -14l-167 -10l-105 215l-104 -129q-39 -49 -67 -67.5t-69 -8.5l22 83q19 -12 51 -6.5t55 32.5l99 121l-102 209q-13 25 -29.5 37t-48.5 13l3 14l170 11l97 -200l94 120q38 49 66.5 67.5
t69.5 8.5z" />
    <glyph glyph-name="y" unicode="y" 
d="M-28 -212q-33 0 -71 15l50 102q44 -34 90 -34q41 0 71.5 26.5t60.5 78.5l16 29l-120 433q-8 27 -21.5 38.5t-44.5 12.5l3 14l150 11l104 -398l137 244q14 22 9 44.5t-17.5 39.5t-32.5 31l57 47q40 -24 46.5 -63.5t-19.5 -83.5l-235 -398q-55 -92 -107 -140.5t-126 -48.5z
" />
    <glyph glyph-name="z" unicode="z" horiz-adv-x="456" 
d="M-15 -1l-7 11l383 415h-193q-39 0 -61.5 -20.5t-41.5 -75.5h-13l36 174h374l2 -11l-388 -420q40 21 85 21.5t79 -7.5t66.5 -10.5t58.5 20t43 77.5l13 -4l-10 -37q-15 -62 -37.5 -93.5t-49 -37.5t-65 -2t-77 12.5t-92.5 7t-105 -19.5z" />
    <glyph glyph-name="uni00A0" unicode="&#xa0;" horiz-adv-x="200" 
 />
    <glyph glyph-name="K.ss05" horiz-adv-x="713" 
d="M728 654q-58 -3 -137 -64l-263 -204l249 -299q17 -21 28.5 -34t32.5 -25.5t42 -13.5l-2 -14h-183q-5 19 -35 57l-219 264l-37 -235q-6 -37 12.5 -53.5t64.5 -18.5l-2 -14h-287l2 14q47 2 70.5 18t30.5 54l79 496q6 36 -12 53.5t-66 18.5l2 14h287l-2 -14
q-47 -2 -70.5 -16.5t-29.5 -52.5l-36 -228l308 238q40 31 30.5 45.5t-68.5 13.5l2 14h211z" />
    <glyph glyph-name="M.ss11" horiz-adv-x="933" 
d="M799 81q-2 -33 14.5 -47t65.5 -20l-3 -14h-287l2 14q51 5 74 20t26 47l29 463l-331 -544h-35l-127 539l-120 -458q-8 -31 11 -46t69 -21l-2 -14h-208l2 14q49 5 70.5 19.5t29.5 47.5l134 507q8 35 -9 48.5t-63 17.5l4 14h176l120 -535l325 535h158l-1 -14
q-47 -3 -68 -17.5t-25 -53.5z" />
    <glyph glyph-name="R.ss12" horiz-adv-x="683" 
d="M561 74q45 -56 94 -60l-2 -14h-183q-2 23 -25 53l-208 237h-1l-33 -204q-7 -37 12 -52.5t66 -19.5l-2 -14h-287l2 14q51 5 72.5 19.5t28.5 52.5l78 496q6 36 -12.5 52t-64.5 20l2 14h297q108 0 168.5 -45.5t60.5 -128.5q0 -86 -69.5 -141t-192.5 -62zM363 640h-71
l-52 -322h73q91 0 143.5 50.5t52.5 124.5q0 69 -37 108t-109 39z" />
    <glyph glyph-name="a.ss01" horiz-adv-x="563" 
d="M538 518l-67 -419q-4 -27 7 -39t38 -14l21 -1l-2 -14l-162 -46h-14l11 114q-58 -114 -161 -114q-79 0 -130.5 57.5t-51.5 153.5q0 141 77 231.5t196 90.5q102 0 147 -66l77 66h14zM256 49q38 0 69 24t50 60l34 215q8 50 -17.5 92.5t-81.5 42.5q-74 0 -122 -82.5
t-48 -189.5q0 -74 32.5 -118t83.5 -44z" />
    <glyph glyph-name="g.ss02" horiz-adv-x="558" 
d="M205 -212q-78 0 -140 29.5t-81 84.5l95 42q4 -59 42 -93.5t90 -34.5q56 0 92 37.5t47 109.5l21 136q-59 -114 -163 -114q-77 0 -128.5 57.5t-51.5 156.5q0 137 78.5 228t199.5 91q95 0 142 -66l77 66h14l-85 -532q-16 -100 -83 -149t-166 -49zM257 49q37 0 68 23.5
t50 60.5l35 218q6 50 -19.5 91t-79.5 41q-74 0 -122 -82t-48 -188q0 -76 32.5 -120t83.5 -44z" />
    <glyph glyph-name="g.ss03" horiz-adv-x="514" 
d="M549 503l-5 -28h-107q49 -41 49 -112q0 -84 -66.5 -138.5t-165.5 -54.5q-75 0 -127 35l-18 -111h181q44 0 80.5 -8.5t66.5 -37t30 -74.5q0 -83 -86.5 -134.5t-221.5 -51.5q-96 0 -149.5 30t-53.5 85q0 51 34 83t81 46l31 193q-37 40 -37 99q0 84 67 139t167 55
q51 0 90 -15h160zM263 198q49 0 83 53t34 121q0 52 -24 84.5t-66 32.5q-50 0 -84 -52.5t-34 -119.5q0 -52 24.5 -85.5t66.5 -33.5zM268 13l-182 1q-41 -45 -41 -93q0 -51 44 -79t113 -28q80 0 136.5 34.5t56.5 90.5q0 74 -127 74z" />
    <glyph glyph-name="g.ss04" horiz-adv-x="556" 
d="M16 -197l5 28h305l43 267q-59 -108 -172 -113q-74 -3 -122 55t-48 159q0 134 78.5 226.5t199.5 92.5q95 0 142 -66l75 62h14l-103 -654q-4 -25 -22.5 -41t-44.5 -16h-350zM246 49q38 0 74 24.5t54 59.5l35 218q6 50 -19.5 91t-79.5 41q-74 0 -122 -82t-48 -188
q0 -78 28 -121t78 -43z" />
    <glyph glyph-name="k.ss05" horiz-adv-x="538" 
d="M528 425q-17 11 -53.5 7.5t-62.5 -22.5l-133 -91l168 -259q15 -24 30 -34.5t47 -11.5l-2 -14l-150 -10l-186 286l-44 -276h-102l94 595q7 49 -44 53l-21 1l2 14l169 46h14l-67 -424l226 163q6 5 17.5 13.5t18 13t16.5 11.5t17 11t16.5 8t17 5.5t16 1.5t16.5 -2z" />
    <glyph glyph-name="r.ss06" horiz-adv-x="351" 
d="M22 0l69 446q4 25 23 41t45 16h224l-5 -28h-181l-74 -475h-101z" />
    <glyph glyph-name="t.ss07" horiz-adv-x="297" 
d="M87 0q-25 0 -38.5 16t-9.5 42l66 417h-54l2 14l163 133h14l-19 -119h113l-5 -28h-112l-71 -447h112l-4 -28h-157z" />
    <glyph glyph-name="y.ss08" 
d="M-3 -197l3 12l191 194l-122 429q-8 27 -21.5 38.5t-44.5 12.5l3 14l149 11l106 -394l136 240q14 22 9.5 44t-17.5 39.5t-33 31.5l58 47q39 -24 45.5 -63.5t-20.5 -83.5l-223 -374l-112 -198h-107z" />
    <glyph glyph-name="y.ss09" horiz-adv-x="569" 
d="M447 503h101l-82 -517q-16 -100 -82.5 -149t-164.5 -49q-80 0 -142 29.5t-81 84.5l94 42q4 -59 43 -93.5t91 -34.5q55 0 90.5 38.5t46.5 111.5l20 124q-86 -105 -189 -105q-65 0 -99 43t-23 110l41 259q4 18 4 35q0 34 -30 34q-24 0 -57 -33l-10 9q51 76 121 76
q37 0 58 -18.5t21 -54.5q0 -14 -6 -53l-38 -243q-7 -43 12.5 -69.5t58.5 -26.5q71 0 141 69z" />
    <glyph glyph-name="y.ss10" horiz-adv-x="569" 
d="M29 -197l5 28h305l42 258q-86 -104 -189 -104q-65 0 -99 43t-23 110l41 259q4 18 4 35q0 34 -30 34q-24 0 -57 -33l-10 9q51 76 121 76q37 0 58 -18.5t21 -54.5q0 -14 -6 -53l-38 -243q-7 -43 12.5 -69.5t58.5 -26.5q73 0 141 72l61 378h101l-102 -643
q-5 -26 -23.5 -41.5t-43.5 -15.5h-350z" />
    </font>
</defs>
</svg>
